<svg width="952" height="612" viewBox="0 0 952 612" fill="none" xmlns="http://www.w3.org/2000/svg">
<g clip-path="url(#clip0_1_64)">
<rect width="952" height="612" fill="black"/>
<path d="M213.583 267C213.583 211.2 246.583 168 298.783 142.2L292.183 127.8C221.383 153.6 175.783 207.6 175.783 276.6C175.783 352.8 230.983 415.2 322.183 427.2L318.583 466.2C284.983 464.4 251.983 464.4 218.383 466.2V507C148.183 504.6 73.7828 504.6 3.58281 507C7.78281 370.8 7.78281 235.2 3.58281 99C139.783 103.2 272.983 103.2 409.183 99C405.583 207 405.583 301.2 409.183 409.2C277.783 409.2 213.583 346.8 213.583 267ZM185.983 441.6C146.383 400.2 124.783 347.4 124.783 291.6C124.783 239.4 143.983 192.6 181.783 159.6L173.983 141C134.983 139.8 97.7828 140.4 57.5828 141.6C53.9828 244.8 53.9828 358.8 58.1828 461.4C98.9828 463.2 136.183 463.2 176.983 461.4L185.983 441.6ZM357.583 340.2C359.983 279.6 359.983 220.2 357.583 159.6C298.783 171.6 265.183 208.2 265.183 253.8C265.183 298.8 298.783 340.2 357.583 340.2ZM934.9 266.4C915.1 280.2 912.7 286.8 918.1 315.6L925.3 354.6C933.1 398.4 925.3 419.4 876.1 465.6C843.7 496.2 826.3 507 802.9 507C795.1 507 786.1 505.8 774.1 502.2L671.5 474C628.9 462.6 605.5 464.4 564.1 483C556.9 475.2 552.1 466.2 549.7 456C597.7 421.2 605.5 406.2 605.5 351.6V265.2C605.5 229.8 610.9 213.6 628.9 196.8C634.9 191.4 643.3 184.8 654.1 176.4L650.5 170.4C640.9 174 633.7 174.6 621.1 174.6H601.9C585.7 174.6 576.7 178.8 562.3 192C553.9 186.6 547.9 180.6 542.5 172.8L571.9 132C584.5 114.6 592.9 111 615.7 111H705.7C726.7 111 730.9 109.8 750.7 99C757.9 105.6 763.3 112.8 767.5 121.8L721.3 158.4C696.1 178.2 690.7 190.2 690.7 226.2V328.8C690.7 375.6 686.5 388.8 653.5 413.4L657.1 420.6C702.1 402 726.1 405 768.7 417.6L830.5 436.2C847.9 441.6 852.7 438 849.1 421.2L835.9 355.2C825.1 301.8 834.1 279.6 875.5 259.8L935.5 231C942.1 238.2 946.9 246 950.5 255.6L934.9 266.4ZM717.1 217.8C717.1 190.2 726.7 175.2 772.3 141C805.9 115.8 816.7 111 839.5 111H868.9C883.9 111 888.7 109.8 905.5 99C913.3 104.4 919.3 111 924.1 119.4L884.5 160.8C874.3 171.6 867.1 174.6 852.1 174.6H816.1C801.7 174.6 798.1 178.2 798.1 191.4V303C798.1 342 792.1 353.4 762.1 369.6L718.3 393.6C711.7 387 706.3 379.8 703.3 372C714.7 359.4 717.1 353.4 717.1 331.8V217.8Z" fill="#D6D9D8"/>
</g>
<defs>
<clipPath id="clip0_1_64">
<rect width="952" height="612" fill="white"/>
</clipPath>
</defs>
</svg>
