<svg width="1374" height="924" viewBox="0 0 1374 924" fill="none" xmlns="http://www.w3.org/2000/svg">
<rect width="1374" height="924" fill="black"/>
<path d="M1165.59 122L1134.26 124.056L935.345 137.106L887.382 140.252L871.033 185.476L863.36 206.7L848.552 207.86L845.918 208.066L821.257 186.702L776.692 148.096L753.083 127.644L721.98 130.448L535.027 147.304L488.297 151.517L472.443 195.699L467.916 208.314L468.093 206.051L437.467 181.717L400.511 152.355L376.559 133.324L346.185 136.91L171.188 157.573L125.885 162.923L110.559 205.917L99.6372 236.603L86.7533 240.078L40.03 252.684L33.1334 300.607C22.4565 374.837 16.1831 443.816 14.4768 505.627C12.7399 568.959 15.754 626.849 23.4271 677.688L28.7502 712.888L59.6369 730.549C88.1225 746.834 116.904 759.531 147.618 769.365L202.907 787.066L232.931 737.358L239.784 726.011C255.326 739.414 272.839 752.93 292.933 767.078L342.534 802L386.222 759.908L406.818 740.064C441.304 755.323 476.031 766.799 512.935 775.135L564.389 786.76L591.868 741.71L599.561 729.098C627.844 748.031 658.702 763.647 682.88 774.671L733.855 797.913L769.771 754.899L778.645 744.272L786.777 747.23C827.951 762.211 869.296 772.954 913.172 780.072L961.704 787.946L987.507 746.074L995.555 733.013C1025.72 748.909 1064.93 765.245 1105.36 778.467L1157.23 795.437L1188.47 750.655L1334.12 541.854L1374 484.685L1319.07 441.791L1274.51 406.99L1248.28 386.507L1264.22 254.085L1268.73 216.595L1240.91 191.078L1188.73 143.229L1165.59 122ZM964.069 533.478L1021.76 452.141C1022.99 412.466 1026.32 372.716 1031.46 334.466L983.634 344.035C966.586 433.097 961.241 491.055 964.069 533.478ZM563.906 545.712L628.056 449.471C629.851 407.359 633.583 364.866 638.905 322.776L582.007 334.363C563.919 433.253 558.804 500.778 563.906 545.712ZM200.454 557.947L271.06 446.803C273.424 402.253 277.553 357.014 283.061 311.085L217.088 324.689C197.962 433.408 193.079 510.5 200.454 557.947ZM1139.06 197.441L1191.24 245.291L1155.37 543.265L1162.98 547.615L1229.28 464.965L1273.84 499.765L1128.19 708.565C1071.68 690.077 1027.11 668.328 1006.46 654.19L1022.65 565.1L1014.07 562.84L924.939 707.477C884.721 700.952 847.766 691.165 811.897 678.115C809.165 654.602 807.395 626.552 807.053 595.54L713.36 707.749C670.426 688.174 634.557 666.424 612.819 646.849L627.345 557.791L619.34 555.499L529.124 703.399C495.429 695.786 464.995 685.456 435.648 672.406C433.312 654.922 431.545 635.747 430.444 615.204L335.235 706.934C305.888 686.271 278.714 664.521 255.889 639.509L268.753 550.482L261.323 548.159L170.02 699.32C142.846 690.621 118.938 679.746 96.1123 666.696C81.9819 573.171 85.2411 454.634 105.89 311.085L155.944 297.58L179.803 230.61L354.8 209.947L391.756 239.31L365.669 572.084L385.233 586.222L429.262 547.947C430.481 471.492 440.131 383.604 461.734 296.132L517.797 286.949L541.624 220.551L728.576 203.695L773.141 242.3L742.164 557.675L755.75 566.918L809.636 509.911C814.844 435.915 828.251 354.695 854.287 281.178L916.357 276.317L940.155 210.491L1139.06 197.441Z" fill="#D6D9D8"/>
</svg>
