<svg width="1710" height="692" viewBox="0 0 1710 692" fill="none" xmlns="http://www.w3.org/2000/svg">
<rect width="1710" height="692" fill="black"/>
<path d="M44.6582 497.5C26.6582 497.5 22.1582 494 6.1582 460L8.6582 458C22.6582 469.5 38.1582 472.5 52.6582 472.5C124.158 472.5 177.158 402 214.658 291.5C231.158 243 247.158 204 269.658 161.5C254.658 166.5 239.658 168.5 220.658 168.5C198.658 168.5 156.658 166 140.658 166C100.658 166 79.1582 180 79.1582 231.5C79.1582 240 79.6582 251 83.1582 263.5L81.1582 265C56.6582 252 54.1582 250 54.1582 242.5C54.1582 225.5 64.6582 195 83.1582 172C99.1582 152.5 118.658 141.5 161.658 141.5C185.158 141.5 232.658 144.5 257.658 144.5C275.658 144.5 288.158 143 304.658 138.5L306.158 141C297.158 159 295.658 177 297.158 194.5L313.658 420L400.658 247.5C421.158 207 451.658 163.5 475.158 138.5H551.658V149.5H508.658C500.658 149.5 498.158 151.5 496.158 162L459.158 359C452.158 397 445.158 455 462.658 455C467.658 449.5 474.658 441 484.158 426.5L491.658 432L449.658 495H447.158C414.158 469.5 412.658 430.5 428.158 351L462.158 175C446.158 192.5 427.158 222 409.158 258L330.158 416C317.658 440.5 308.158 462.5 300.658 490C295.658 493.5 285.658 492.5 282.158 490C283.658 443.5 280.658 401 277.658 357.5L265.658 195C242.658 238 225.658 304 206.658 350C165.158 450 107.658 497.5 44.6582 497.5ZM558.17 493.5C548.67 493.5 533.17 482 521.17 464C509.17 446.5 504.67 429.5 504.67 408C504.67 330.5 561.17 284.5 597.67 284.5C630.17 284.5 654.17 320.5 654.17 362.5C654.17 385.5 646.67 418.5 624.67 446.5C603.17 474 570.17 493.5 558.17 493.5ZM578.17 471.5C603.67 471.5 624.67 414 624.67 373C624.67 327.5 601.17 301.5 581.17 301.5C551.17 301.5 532.67 358.5 532.67 396C532.67 441 559.17 471.5 578.17 471.5ZM844.338 140.5L798.838 433C796.338 448 797.838 452 802.838 454.5C806.338 450.5 813.338 440.5 824.838 422.5L832.338 428L786.338 494.5C770.338 490 765.338 473.5 769.838 445.5L776.338 403C743.338 459.5 701.338 491.5 686.338 491.5C673.838 491.5 663.338 467.5 663.338 438.5C663.338 368 724.838 284.5 775.338 284.5C781.338 284.5 788.338 285.5 794.338 287.5L810.838 179.5C813.338 164.5 811.838 157.5 808.838 157.5C805.338 157.5 798.338 167.5 785.338 188L777.838 182.5L817.338 125.5C821.838 119 826.338 117 833.338 117C843.838 117 846.838 123.5 844.338 140.5ZM785.338 345.5L790.338 314C777.838 307 767.338 303 758.838 303C727.338 303 693.838 359.5 693.838 422.5C693.838 448 699.838 465.5 707.338 465.5C716.338 465.5 746.338 437.5 768.338 397.5C776.338 383 781.838 367.5 785.338 345.5ZM962.619 312.5C962.619 343.5 924.619 374.5 870.619 379.5C868.619 391.5 867.619 403.5 867.619 416C867.619 456 881.619 466 908.619 466C913.119 466 916.119 464.5 922.619 455L934.119 437.5L941.619 443L907.119 493C863.119 491.5 840.119 478 840.119 426.5C840.119 368.5 862.619 284.5 926.119 284.5C947.119 284.5 962.619 292.5 962.619 312.5ZM922.619 295C901.619 295 881.619 328.5 872.619 370.5C904.619 368.5 938.619 343 938.619 314.5C938.619 301.5 931.619 295 922.619 295ZM887.678 592.5L871.678 568.5L873.178 566.5C885.678 570.5 897.178 572 908.678 572C951.178 572 963.678 552 969.678 495.5L995.678 244.5C1005.18 151.5 1054.18 112.5 1100.68 112.5C1112.18 112.5 1124.18 115 1139.18 120L1135.18 149H1132.68C1115.68 135 1101.68 130 1085.18 130C1050.68 130 1032.68 150.5 1024.68 227L999.178 473C991.678 547 948.678 592.5 887.678 592.5ZM1111.9 493C1062.4 491 1037.4 460 1037.4 406C1037.4 346 1080.4 284.5 1127.9 284.5C1140.9 284.5 1155.9 289 1167.4 294.5L1160.9 325H1158.4C1143.4 309 1125.9 300.5 1113.9 300.5C1093.9 300.5 1064.9 325 1064.9 397.5C1064.9 448.5 1092.4 466 1113.4 466C1116.9 466 1119.9 464.5 1126.4 455L1150.4 421L1157.9 426.5L1111.9 493ZM1308.27 284.5C1329.27 284.5 1335.27 304 1335.27 331C1335.27 364 1325.27 408.5 1314.77 432.5C1301.27 463 1271.77 491 1234.27 493L1232.77 491.5L1236.27 464C1244.27 468 1253.77 470 1261.77 470C1278.77 470 1285.27 460.5 1294.77 427.5C1300.27 408 1307.27 374 1307.27 338.5C1307.27 318 1304.27 308.5 1292.27 308.5C1267.27 308.5 1240.77 350.5 1219.77 392C1212.77 405.5 1206.27 420 1203.27 440C1200.77 456.5 1198.77 473.5 1197.27 490.5C1187.77 490 1177.77 490 1168.27 490.5L1216.27 179.5C1218.77 164.5 1217.27 157.5 1214.27 157.5C1210.77 157.5 1203.77 167.5 1190.77 188L1183.27 182.5L1222.77 125.5C1227.27 119 1231.77 117 1238.77 117C1249.27 117 1252.27 123.5 1249.77 140.5L1211.27 387.5C1244.27 325 1277.77 284.5 1308.27 284.5ZM1506.97 422.5L1514.47 428L1468.47 494.5C1452.47 490 1447.47 473.5 1451.97 445.5L1458.47 403C1425.47 459.5 1383.47 491.5 1368.47 491.5C1355.97 491.5 1345.47 467.5 1345.47 438.5C1345.47 368 1405.97 287 1456.47 287C1462.97 287 1469.47 288.5 1475.97 290L1477.97 277.5C1486.97 278 1495.97 278 1504.97 277.5L1480.97 433C1478.47 448 1479.97 452 1484.97 454.5C1488.47 450.5 1495.47 440.5 1506.97 422.5ZM1467.47 345.5L1471.97 316.5C1458.97 309.5 1448.47 305.5 1439.97 305.5C1408.47 305.5 1375.97 359.5 1375.97 422.5C1375.97 448 1381.97 465.5 1389.47 465.5C1398.47 465.5 1428.47 437.5 1450.47 397.5C1458.47 383 1463.97 367.5 1467.47 345.5ZM1690.25 422.5L1697.75 428L1651.75 494.5C1635.75 490 1630.75 473.5 1634.75 445.5L1645.25 379C1580.75 480.5 1566.25 492 1552.75 492C1536.75 492 1533.25 475.5 1537.75 447L1553.25 346.5C1555.75 331.5 1554.25 324.5 1551.25 324.5C1547.75 324.5 1540.75 334.5 1527.75 355L1520.25 349.5L1559.75 292.5C1564.25 286 1568.75 284.5 1575.75 284.5C1586.25 284.5 1589.25 290.5 1586.75 307.5L1567.75 427.5C1564.25 448.5 1565.75 454.5 1570.75 454.5C1582.75 454.5 1611.75 417.5 1638.25 372.5C1643.25 364 1649.25 353.5 1651.75 338C1654.25 321.5 1656.25 304.5 1657.75 287.5C1667.25 288 1677.25 288 1686.75 287.5L1664.25 433C1661.75 448 1663.25 452 1668.25 454.5C1671.75 450.5 1678.75 440.5 1690.25 422.5Z" fill="#DEE1E0"/>
</svg>
