<svg width="1078" height="740" viewBox="0 0 1078 740" fill="none" xmlns="http://www.w3.org/2000/svg">
<rect width="1078" height="740" fill="black"/>
<path d="M12.9043 479.748H21.2836V460.334H40.0846V453.795H21.2836V439.081H42.6048V432.473H12.9043V479.748Z" fill="#DEE1E0"/>
<path d="M58.613 480.566C63.7217 480.566 67.468 478.25 69.7839 473.482H70.3288L70.8749 479.748H78.0951V444.054H70.1926V463.808C70.1926 470.28 66.9912 474.095 61.8144 474.095C57.4551 474.095 55.3435 471.37 55.3435 466.124V444.054H47.4409V468.031C47.4409 476.138 51.5279 480.566 58.613 480.566Z" fill="#DEE1E0"/>
<path d="M94.0342 430.702H86.1328V479.749H94.0342V430.702Z" fill="#DEE1E0"/>
<path d="M109.974 430.702H102.073V479.749H109.974V430.702Z" fill="#DEE1E0"/>
<path d="M142.946 479.748H152.822L168.626 432.473H160.044L148.463 470.689H147.918L136.337 432.473H127.074L142.946 479.748Z" fill="#DEE1E0"/>
<path d="M178.436 480.497C183.749 480.497 188.176 478.045 190.56 472.868H191.105C190.969 477.704 193.353 480.224 197.986 480.224C199.28 480.224 200.711 479.952 202.141 479.407V473.276C199.076 474.162 197.85 473.549 197.85 471.165V456.042C197.85 447.39 193.081 443.235 184.362 443.235C176.323 443.235 170.874 446.914 168.967 453.658L175.983 455.565C177.345 450.932 180.071 449.093 183.817 449.093C188.176 449.093 190.22 451.478 190.22 456.178V458.358H187.155C174.552 458.358 167.945 462.922 167.945 470.756C167.945 476.887 172.032 480.497 178.436 480.497ZM181.501 474.639C178.163 474.639 176.051 472.868 176.051 469.735C176.051 465.306 180.275 462.922 186.746 462.922H190.288V464.693C190.288 470.552 186.542 474.639 181.501 474.639Z" fill="#DEE1E0"/>
<path d="M206.569 479.748H214.471V460.606C214.471 454.067 216.923 450.865 221.964 450.865C223.19 450.865 224.688 451.07 226.255 451.411V443.781C225.37 443.508 224.416 443.372 223.394 443.372C219.444 443.372 216.515 445.62 214.675 450.32H214.131L213.584 444.053H206.569V479.748Z" fill="#DEE1E0"/>
<path d="M230.614 438.332H238.926V430.702H230.614V438.332ZM230.819 479.749H238.721V444.054H230.819V479.749Z" fill="#DEE1E0"/>
<path d="M255.275 480.497C260.588 480.497 265.015 478.045 267.399 472.868H267.945C267.809 477.704 270.193 480.224 274.825 480.224C276.119 480.224 277.549 479.952 278.98 479.407V473.276C275.915 474.162 274.689 473.549 274.689 471.165V456.042C274.689 447.39 269.92 443.235 261.201 443.235C253.163 443.235 247.713 446.914 245.805 453.658L252.822 455.565C254.185 450.932 256.909 449.093 260.656 449.093C265.015 449.093 267.059 451.478 267.059 456.178V458.358H263.993C251.392 458.358 244.784 462.922 244.784 470.756C244.784 476.887 248.871 480.497 255.275 480.497ZM258.34 474.639C255.002 474.639 252.891 472.868 252.891 469.735C252.891 465.306 257.114 462.922 263.585 462.922H267.127V464.693C267.127 470.552 263.38 474.639 258.34 474.639Z" fill="#DEE1E0"/>
<path d="M302.345 480.498C310.86 480.498 316.446 473.21 316.446 461.22C316.446 449.094 311.064 443.305 302.889 443.305C297.713 443.305 293.898 445.689 291.514 450.184H290.969L291.31 430.702H283.407V479.749H290.765L290.969 473.55H291.514C293.83 478.182 297.44 480.498 302.345 480.498ZM299.961 474.572C294.239 474.572 291.174 469.668 291.174 461.833C291.174 454.204 294.103 449.163 299.756 449.163C305.275 449.163 307.999 454.068 307.999 462.106C307.999 469.804 305.479 474.572 299.961 474.572Z" fill="#DEE1E0"/>
<path d="M330.547 430.702H322.645V479.749H330.547V430.702Z" fill="#DEE1E0"/>
<path d="M352.821 480.565C360.451 480.565 365.696 477.023 368.285 470.007L361.337 468.03C359.634 472.459 357.25 474.639 353.298 474.639C347.985 474.639 345.192 470.552 344.92 462.99H367.74C369.17 448.957 362.427 443.235 353.298 443.235C342.876 443.235 336.677 450.66 336.677 462.241C336.677 474.094 342.604 480.565 352.821 480.565ZM352.957 448.889C357.181 448.889 360.043 451.615 359.906 458.018H345.056C345.805 452.296 348.394 448.889 352.957 448.889Z" fill="#DEE1E0"/>
<path d="M8 539.692H16.5144L20.1257 528.317H37.7687L41.3788 539.692H50.3019L34.4299 492.418H23.872L8 539.692ZM28.7082 501.137H29.2531L35.7934 521.981H22.101L28.7082 501.137Z" fill="#DEE1E0"/>
<path d="M54.3218 539.693H62.2231V520.074C62.2231 513.331 65.4245 509.653 70.4662 509.653C74.5531 509.653 76.7328 512.105 76.7328 517.282V539.693H84.6342V520.074C84.6342 513.331 87.8356 509.653 92.8773 509.653C96.9642 509.653 99.1439 512.105 99.1439 517.282V539.693H107.046V515.579C107.046 507.473 102.89 503.181 96.0787 503.181C90.9701 503.181 87.0864 505.566 84.6342 510.606H84.0893C82.727 505.906 79.1169 503.181 73.7358 503.181C68.6941 503.181 65.0159 505.498 62.6999 510.198H62.155L61.542 503.998H54.3218V539.693Z" fill="#DEE1E0"/>
<path d="M114.675 553.998H122.577L122.236 533.495H122.781C125.098 538.126 128.708 540.442 133.613 540.442C142.128 540.442 147.714 533.154 147.714 521.164C147.714 509.04 142.332 503.249 134.157 503.249C128.981 503.249 125.166 505.634 122.781 510.13H122.236L122.032 503.998H114.675V553.998ZM131.229 534.516C125.507 534.516 122.44 529.612 122.44 521.778C122.44 514.149 125.371 509.108 131.024 509.108C136.541 509.108 139.266 514.012 139.266 522.05C139.266 529.748 136.746 534.516 131.229 534.516Z" fill="#DEE1E0"/>
<path d="M161.813 490.647H153.912V539.694H161.813V490.647Z" fill="#DEE1E0"/>
<path d="M169.648 498.276H177.958V490.647H169.648V498.276ZM169.852 539.693H177.754V503.998H169.852V539.693Z" fill="#DEE1E0"/>
<path d="M196.283 540.375C198.735 540.375 200.983 539.83 202.89 539.013V532.746C200.983 533.359 199.485 533.631 198.327 533.631C195.873 533.631 194.92 532.337 194.92 529.34V509.926H203.163V503.999H194.92V494.735H187.836L187.291 503.999H182.114V509.926H187.291V530.702C187.291 537.378 190.084 540.375 196.283 540.375Z" fill="#DEE1E0"/>
<path d="M218.626 540.511C223.735 540.511 227.481 538.195 229.797 533.427H230.342L230.887 539.694H238.108V503.999H230.206V523.755C230.206 530.226 227.004 534.04 221.828 534.04C217.468 534.04 215.357 531.316 215.357 526.071V503.999H207.454V527.978C207.454 536.084 211.541 540.511 218.626 540.511Z" fill="#DEE1E0"/>
<path d="M257.863 540.442C263.04 540.442 266.854 538.058 269.239 533.494H269.784L269.989 539.693H277.345V490.647H269.444L269.784 510.13H269.239C266.922 505.566 263.312 503.249 258.408 503.249C249.894 503.249 244.307 510.538 244.307 522.527C244.307 534.652 249.689 540.442 257.863 540.442ZM260.996 534.584C255.479 534.584 252.754 529.68 252.754 521.641C252.754 513.944 255.275 509.176 260.792 509.176C266.514 509.176 269.58 514.08 269.58 521.913C269.58 529.544 266.65 534.584 260.996 534.584Z" fill="#DEE1E0"/>
<path d="M299.62 540.51C307.25 540.51 312.495 536.968 315.083 529.952L308.135 527.977C306.433 532.404 304.048 534.584 300.097 534.584C294.784 534.584 291.991 530.497 291.719 522.936H314.538C315.969 508.904 309.225 503.181 300.097 503.181C289.675 503.181 283.475 510.606 283.475 522.186C283.475 534.039 289.403 540.51 299.62 540.51ZM299.756 508.835C303.98 508.835 306.841 511.56 306.705 517.963H291.855C292.604 512.241 295.192 508.835 299.756 508.835Z" fill="#DEE1E0"/>
<path d="M278.014 313.701C279.184 305.564 277.814 299.007 274.055 294.666C270.384 290.428 264.593 288.278 256.849 288.278L214.647 287.745L210.046 335.426L206.391 287.642L135.6 286.749L151.921 406.662H267.458L270.022 389.113L278.014 313.701Z" fill="#DEE1E0"/>
<path d="M256.818 277.675C273.097 277.675 284.623 267.764 286.922 251.813L302.82 164.547L303.589 159.287H227.037L215.559 278.195L256.818 277.675Z" fill="#DEE1E0"/>
<path d="M205.677 278.274L197.966 159.234L118.145 159.234L134.3 279.155L205.677 278.274Z" fill="#DEE1E0"/>
<path d="M128.152 279.3L125.326 258.167H90.2444V234.069H121.796L111.895 159.29H11.2097V280.776L128.152 279.3Z" fill="#DEE1E0"/>
<path d="M11.2097 285.178V406.661H90.2444V326.919H134.52L129.137 286.666L11.2097 285.178Z" fill="#DEE1E0"/>
<path d="M297.49 252.252C296.32 260.39 297.69 266.947 301.449 271.285C305.12 275.525 310.911 277.676 318.655 277.676L361.074 278.741L369.169 215.282L377.317 279.147L448.956 280.945L430.474 159.289H307.865L305.976 172.21L297.49 252.252Z" fill="#DEE1E0"/>
<path d="M449.579 284.993L378.3 286.782L382.29 318.061H356.065L359.997 287.241L318.707 288.277C302.405 288.277 290.879 298.188 288.58 314.139L271.728 406.662H348.26L351.447 381.853H386.903L390.094 406.662H468.062L449.579 284.993Z" fill="#DEE1E0"/>
<path d="M647.297 161.154L585.019 269.022H709.575L647.297 161.154ZM647.297 169.458L702.384 264.87H592.21L647.297 169.458Z" fill="#DEE1E0"/>
<path d="M598.647 201.068H606.66C612.224 201.068 615.088 197.623 615.088 192.806C615.088 188.696 612.929 186.412 609.982 185.582V185.499C612.306 184.585 614.175 182.634 614.175 179.188C614.175 174.828 611.227 172.088 606.535 172.088H598.647V201.068ZM604.044 183.672V176.573H605.415C607.491 176.573 608.736 177.86 608.736 180.143C608.736 182.427 607.491 183.672 605.415 183.672H604.044ZM604.044 196.584V188.156H605.788C608.238 188.156 609.567 189.651 609.567 192.35C609.567 195.048 608.238 196.584 605.788 196.584H604.044Z" fill="#DEE1E0"/>
<path d="M688.245 201.276C693.518 201.276 697.669 198.121 697.669 191.685C697.669 185.249 693.6 182.343 689.116 182.343C687.622 182.343 686.21 182.675 684.965 183.423H684.882L685.255 177.154H696.548V172.088H680.149L679.567 189.401H684.508C685.255 187.906 686.625 187.118 688.245 187.118C690.32 187.118 692.271 188.447 692.271 191.685C692.271 194.924 690.32 196.252 688.327 196.252C686.335 196.252 684.674 194.924 684.591 192.806H679.235C679.235 198.121 683.014 201.276 688.245 201.276Z" fill="#DEE1E0"/>
<path d="M709.556 161.154H585V269.022H709.556V161.154ZM705.403 264.871H589.151V165.306H705.403V264.871Z" fill="#DEE1E0"/>
<path d="M631.627 254.363C639.35 254.363 644.041 250.875 644.041 244.939C644.041 240.412 641.425 237.921 635.529 236.801L629.468 235.597C626.769 235.057 625.566 234.102 625.566 232.482C625.566 230.407 627.682 229.161 631.087 229.161C634.658 229.161 637.564 230.531 639.557 233.023L643.336 230.324C640.678 226.463 636.485 224.47 631.045 224.47C624.154 224.47 619.877 227.791 619.877 233.146C619.877 237.465 622.534 239.956 628.181 241.077L633.62 242.157C636.899 242.821 638.228 243.775 638.228 245.561C638.228 248.052 635.696 249.422 631.71 249.422C627.682 249.422 624.61 248.011 622.326 245.104L618.465 248.052C621.33 252.287 625.731 254.363 631.627 254.363Z" fill="#DEE1E0"/>
<path d="M648.484 253.948H654.255V242.322H663.638C665.423 242.322 665.963 242.863 666.378 244.772L667.416 249.63C667.789 251.374 668.205 252.661 668.953 253.948H675.138C674.225 252.536 673.685 251.124 673.312 249.215L672.481 245.354C671.941 242.447 670.945 240.745 668.869 239.998V239.914C672.44 239.125 674.432 236.551 674.432 232.69C674.432 227.584 670.945 224.885 664.344 224.885H648.484V253.948ZM664.011 229.618C666.96 229.618 668.412 230.905 668.412 233.521C668.412 236.261 666.793 237.59 663.597 237.59H654.255V229.618H664.011Z" fill="#DEE1E0"/>
<path d="M752.919 215.088C752.919 183.559 778.478 158 810.007 158C841.536 158 867.095 183.559 867.095 215.088C867.095 246.617 841.536 272.176 810.007 272.176C778.478 272.176 752.919 246.617 752.919 215.088Z" stroke="#DEE1E0" stroke-width="4.14879" stroke-miterlimit="10"/>
<path d="M753.956 223.393H866.057" stroke="#DEE1E0" stroke-width="4.14879" stroke-miterlimit="10"/>
<path d="M804.799 189.819V176.917C806.817 176.689 808.638 176.572 810.38 176.572C816.601 176.572 819.275 178.085 819.275 183.083C819.275 185.642 818.577 187.851 817.588 189.711C813.285 190.429 809.136 190.508 804.799 189.819ZM823.519 206.455L818.635 197.152L816.02 194.13L816.133 193.163C821.543 191.659 824.275 187.873 824.275 182.154C824.275 175.061 819.915 172.852 811.95 172.852H795.962V175.933L799.799 177.038V206.455L795.962 207.559V210.757C800.206 210.641 804.392 210.641 808.636 210.757V207.559L804.799 206.455V193.897H810.089C810.62 193.897 811.134 193.882 811.635 193.855L820.03 210.699C822.53 210.641 825.03 210.641 827.531 210.699V207.559L823.519 206.455Z" fill="#DEE1E0"/>
<path d="M788.479 253.716H793.087L796.793 247.612C799.222 243.627 799.969 241.696 799.969 239.392C799.969 234.597 796.825 231.731 792.465 231.731C787.825 231.731 784.712 234.939 784.712 239.578C784.712 244.156 787.67 246.927 791.997 246.927C792.278 246.927 792.559 246.927 792.807 246.897L788.479 253.716ZM792.371 243.658C790.285 243.658 788.821 241.976 788.821 239.578C788.821 237.15 790.254 235.499 792.371 235.499C794.489 235.499 795.89 237.15 795.89 239.578C795.89 242.008 794.458 243.658 792.371 243.658Z" fill="#DEE1E0"/>
<path d="M810.526 253.965C815.352 253.965 817.905 250.166 817.905 242.848C817.905 235.53 815.352 231.731 810.526 231.731C805.699 231.731 803.177 235.499 803.177 242.848C803.177 250.166 805.699 253.965 810.526 253.965ZM810.526 250.197C808.408 250.197 807.411 247.924 807.411 242.848C807.411 237.742 808.377 235.53 810.526 235.53C812.674 235.53 813.67 237.742 813.67 242.848C813.67 247.955 812.674 250.197 810.526 250.197Z" fill="#DEE1E0"/>
<path d="M828.71 253.965C833.537 253.965 836.09 250.166 836.09 242.848C836.09 235.53 833.537 231.731 828.71 231.731C823.884 231.731 821.362 235.499 821.362 242.848C821.362 250.166 823.884 253.965 828.71 253.965ZM828.71 250.197C826.593 250.197 825.597 247.924 825.597 242.848C825.597 237.742 826.562 235.53 828.71 235.53C830.859 235.53 831.856 237.742 831.856 242.848C831.856 247.955 830.859 250.197 828.71 250.197Z" fill="#DEE1E0"/>
<path d="M951.948 231.549C961.364 231.549 966.495 226.567 968.588 216.303L972.574 196.375H966.844L962.908 216.155C961.513 223.179 958.125 226.667 952.396 226.667C947.015 226.667 945.022 223.528 946.467 216.353L950.453 196.375H944.424L940.438 216.353C938.446 226.368 942.431 231.549 951.948 231.549Z" fill="#DEE1E0"/>
<path d="M973.321 230.951H985.329C999.877 230.951 1005.51 218.795 1005.51 208.631C1005.51 200.261 1000.23 196.375 991.855 196.375H980.246L973.321 230.951ZM991.108 201.157C996.489 201.157 998.93 204.047 998.93 209.129C998.93 215.158 996.189 226.168 985.976 226.168H980.346L985.329 201.157H991.108Z" fill="#DEE1E0"/>
<path d="M1018.91 231.549C1028.27 231.549 1033.66 224.425 1033.66 216.553C1033.66 211.122 1030.32 207.834 1024.69 207.834C1021.6 207.834 1018.96 208.781 1016.67 211.421H1016.27L1019.11 201.706H1035.35L1036.4 196.375H1015.42L1010.44 215.058L1015.87 216.005C1017.56 213.613 1020.05 212.219 1022.79 212.219C1025.98 212.219 1027.68 214.162 1027.68 217.2C1027.68 221.734 1024.69 226.717 1019.36 226.717C1015.92 226.717 1013.93 224.724 1013.83 220.489L1007.9 221.436C1008.1 227.813 1011.98 231.549 1018.91 231.549Z" fill="#DEE1E0"/>
<path d="M903.925 215.088C903.925 192.157 941.102 173.568 986.963 173.568C1032.82 173.568 1070 192.157 1070 215.088C1070 238.018 1032.82 256.607 986.963 256.607C941.102 256.607 903.925 238.018 903.925 215.088Z" stroke="#DEE1E0" stroke-width="4.14879" stroke-miterlimit="10"/>
<path d="M698.762 454.946C710.616 454.946 717.825 449.59 717.825 440.476C717.825 433.528 713.804 429.704 704.752 427.983L695.449 426.134C691.304 425.306 689.46 423.839 689.46 421.354C689.46 418.166 692.71 416.255 697.939 416.255C703.418 416.255 707.877 418.358 710.939 422.182L716.741 418.039C712.658 412.111 706.22 409.052 697.866 409.052C687.293 409.052 680.72 414.151 680.72 422.374C680.72 429.003 684.804 432.827 693.47 434.548L701.824 436.205C706.856 437.225 708.897 438.691 708.897 441.432C708.897 445.256 705.012 447.36 698.887 447.36C692.71 447.36 687.991 445.192 684.491 440.731L678.554 445.256C682.96 451.758 689.71 454.946 698.762 454.946Z" fill="#DEE1E0"/>
<path d="M741.512 454.308H750.366V417.466H765.345V409.689H726.533V417.466H741.512V454.308Z" fill="#DEE1E0"/>
<path d="M778.199 454.308H812.554V446.723H787.054V435.185H808.022V427.792H787.054V417.275H812.429V409.689H778.199V454.308Z" fill="#DEE1E0"/>
<path d="M826.293 454.308H835.158V436.46H849.564C852.304 436.46 853.127 437.289 853.773 440.221L855.366 447.679C855.939 450.356 856.575 452.332 857.72 454.308H867.22C865.814 452.141 864.991 449.974 864.418 447.042L863.137 441.113C862.314 436.652 860.783 434.038 857.595 432.891V432.763C863.075 431.552 866.137 427.601 866.137 421.673C866.137 413.832 860.783 409.689 850.648 409.689H826.293V454.308ZM850.137 416.956C854.658 416.956 856.887 418.932 856.887 422.948C856.887 427.154 854.408 429.194 849.502 429.194H835.158V416.956H850.137Z" fill="#DEE1E0"/>
<path d="M880.064 454.308H914.429V446.723H888.929V435.185H909.897V427.792H888.929V417.275H914.293V409.689H880.064V454.308Z" fill="#DEE1E0"/>
<path d="M947.668 454.946C961.314 454.946 970.616 445.766 970.616 431.999C970.616 418.231 961.314 409.052 947.668 409.052C934.033 409.052 924.72 418.231 924.72 431.999C924.72 445.766 934.033 454.946 947.668 454.946ZM947.668 446.659C939.387 446.659 933.835 440.794 933.835 431.999C933.835 423.202 939.387 417.338 947.668 417.338C956.022 417.338 961.502 423.202 961.502 431.999C961.502 440.794 956.022 446.659 947.668 446.659Z" fill="#DEE1E0"/>
<mask id="mask0_46_93" style="mask-type:luminance" maskUnits="userSpaceOnUse" x="585" y="313" width="484" height="241">
<path d="M585 433.58C585 499.864 693.205 553.597 826.682 553.597C960.161 553.597 1068.37 499.864 1068.37 433.58C1068.37 367.297 960.161 313.563 826.682 313.563C693.205 313.563 585 367.297 585 433.58ZM615.528 433.58C615.528 375.031 710.065 327.565 826.682 327.565C943.3 327.565 1037.84 375.031 1037.84 433.58C1037.84 492.13 943.3 539.596 826.682 539.596C710.065 539.596 615.528 492.13 615.528 433.58Z" fill="white"/>
</mask>
<g mask="url(#mask0_46_93)">
<path d="M826.682 313.563C700.23 313.563 597.719 367.297 597.719 433.58C597.719 499.864 700.23 553.597 826.682 553.597C953.135 553.597 1055.65 499.864 1055.65 433.58C1055.65 367.297 953.135 313.563 826.682 313.563Z" stroke="#DEE1E0" stroke-width="53.1146" stroke-miterlimit="10" stroke-dasharray="7.97 15.94"/>
</g>
<path d="M814.439 388.605H817.95V380.637H822.939V388.605H826.449V370.146H822.939V377.715H817.95V370.146H814.439V388.605Z" fill="#DEE1E0"/>
<path d="M833.3 384.886H829.741V388.603H833.3V384.886Z" fill="#DEE1E0"/>
<path d="M844.054 388.605H848.647C853.397 388.605 856.054 385.55 856.054 379.203C856.054 372.988 853.481 370.146 848.804 370.146H844.054V388.605ZM848.491 373.014C851.064 373.014 852.314 374.846 852.314 379.494C852.314 383.93 851.116 385.709 848.564 385.709H847.554V373.014H848.491Z" fill="#DEE1E0"/>
<path d="M861.716 384.886H858.158V388.603H861.716V384.886Z" fill="#DEE1E0"/>
<path d="M799.272 495.028H802.679L803.449 491.07H807.929L808.7 495.028H812.21L808.22 476.569H803.21L799.272 495.028ZM805.575 480.075H805.783L807.377 488.255H803.981L805.575 480.075Z" fill="#DEE1E0"/>
<path d="M819.887 495.319C823.949 495.319 825.918 493.062 825.918 488.361V476.569H822.564V488.627C822.564 491.309 821.824 492.478 820.095 492.478C818.314 492.478 817.574 491.256 817.574 488.467V476.569H814.064V488.839C814.064 493.168 816.033 495.319 819.887 495.319Z" fill="#DEE1E0"/>
<path d="M829.522 495.028H834.116C838.876 495.028 841.533 491.973 841.533 485.626C841.533 479.411 838.949 476.569 834.283 476.569H829.522V495.028ZM833.96 479.437C836.533 479.437 837.783 481.27 837.783 485.918C837.783 490.353 836.585 492.133 834.043 492.133H833.033V479.437H833.96Z" fill="#DEE1E0"/>
<path d="M848.142 476.569H844.637V495.028H848.142V476.569Z" fill="#DEE1E0"/>
<path d="M857.7 495.319C862.002 495.319 864.345 491.946 864.345 485.678C864.345 479.464 862.168 476.276 857.866 476.276C853.564 476.276 851.252 479.649 851.252 485.944C851.252 492.133 853.429 495.319 857.7 495.319ZM857.866 492.371C855.918 492.371 854.97 490.193 854.97 485.732C854.97 481.27 855.845 479.224 857.731 479.224C859.637 479.224 860.595 481.456 860.595 485.918C860.595 490.352 859.72 492.371 857.866 492.371Z" fill="#DEE1E0"/>
</svg>
