<svg width="1710" height="1005" viewBox="0 0 1710 1005" fill="none" xmlns="http://www.w3.org/2000/svg">
<g clip-path="url(#clip0_59_13)">
<rect width="1710" height="1005" fill="black"/>
<path d="M12.3625 222.959V191.341C12.3625 162.441 23.9721 148.361 51.3904 144.409L54.8486 161.453C40.5219 164.911 34.5936 172.815 34.3466 185.907H49.4143V222.959H12.3625ZM120.531 327.939C86.1959 327.939 67.423 309.413 66.682 276.066L102.252 269.644C102.993 289.899 109.909 297.803 121.519 297.803C131.152 297.803 137.821 292.122 137.821 281.501C137.821 271.867 132.14 265.445 123.742 260.011L97.5584 243.214C79.2796 231.357 70.3871 216.042 70.3871 196.034C70.3871 166.393 88.913 149.596 120.531 149.596C150.666 149.596 167.71 165.405 170.18 195.787L136.339 201.222C135.598 185.66 130.411 178.25 119.542 178.25C110.897 178.25 105.71 182.943 105.71 191.835C105.71 200.481 110.403 205.421 118.06 210.361L142.021 225.676C166.969 241.732 175.614 255.07 175.614 276.807C175.614 309.907 155.112 327.939 120.531 327.939ZM216.298 327.692C196.537 327.692 184.433 314.106 184.433 291.875C184.433 262.728 204.935 246.919 242.728 246.919H244.704V231.357C244.704 221.477 240.999 218.019 234.824 218.019C226.178 218.019 221.238 224.688 220.003 238.026L187.397 233.086C192.091 204.68 209.134 190.106 237.541 190.106C265.453 190.106 279.286 203.198 279.286 229.381V290.393C279.286 296.568 281.015 298.544 288.919 296.815V324.975C282.991 326.457 278.051 326.704 275.087 326.704C259.031 326.704 250.632 319.54 250.138 305.461H248.162C244.21 319.046 231.613 327.692 216.298 327.692ZM232.354 302.003C240.999 302.003 244.951 295.086 244.951 280.265V266.433H241.246C227.907 266.433 221.238 273.349 221.238 286.688C221.238 297.309 225.19 302.003 232.354 302.003ZM341.822 378.823C311.687 378.823 293.408 367.461 293.408 348.194C293.408 333.62 304.276 324.234 323.049 321.763V319.787C307.735 315.094 300.077 306.943 300.077 295.827C300.077 285.947 305.758 278.289 316.874 274.09V272.114C305.017 264.457 299.089 252.106 299.089 235.309C299.089 205.915 315.886 190.106 347.256 190.106C352.444 190.106 357.137 190.6 361.583 191.341C359.607 169.604 371.217 158.242 394.93 159.23V187.883C383.814 186.154 378.133 189.118 377.145 197.517C388.26 204.68 394.189 216.783 394.189 233.58C394.189 262.481 375.663 281.007 346.268 281.007C340.834 281.007 335.153 280.265 330.213 279.03C328.237 280.76 327.249 282.736 327.249 284.959C327.249 289.158 330.213 291.134 337.87 292.616L362.571 297.309C389.742 302.497 401.599 313.612 401.599 335.349C401.599 362.767 379.368 378.823 341.822 378.823ZM347.256 257.293C355.655 257.293 360.101 250.377 360.101 237.285C360.101 222.465 355.161 214.56 346.021 214.56C337.623 214.56 333.177 221.477 333.177 234.568C333.177 249.389 338.117 257.293 347.256 257.293ZM346.021 356.839C359.854 356.839 368.005 351.158 368.005 341.524C368.005 331.891 359.854 326.704 346.762 326.704C333.424 326.704 325.272 332.138 325.272 342.018C325.272 351.652 332.683 356.839 346.021 356.839ZM412.275 177.756V147.126H448.832V177.756H412.275ZM412.275 324.975V193.07H448.832V324.975H412.275ZM509.73 326.951C485.276 326.951 474.408 315.094 474.408 287.923V221.23H461.069V193.07H474.655L477.866 161.947H509.977V193.07H530.479V221.23H509.977V282.983C509.977 291.628 512.942 295.827 521.34 295.827C524.304 295.827 527.762 295.333 531.714 294.592V323.246C525.045 325.716 517.635 326.951 509.73 326.951ZM584.509 326.951C560.055 326.951 549.187 315.094 549.187 287.923V221.23H535.848V193.07H549.434L552.645 161.947H584.756V193.07H605.258V221.23H584.756V282.983C584.756 291.628 587.721 295.827 596.119 295.827C599.083 295.827 602.541 295.333 606.493 294.592V323.246C599.824 325.716 592.414 326.951 584.509 326.951ZM645.674 327.692C625.913 327.692 613.809 314.106 613.809 291.875C613.809 262.728 634.311 246.919 672.104 246.919H674.08V231.357C674.08 221.477 670.375 218.019 664.2 218.019C655.554 218.019 650.614 224.688 649.379 238.026L616.773 233.086C621.467 204.68 638.51 190.106 666.917 190.106C694.829 190.106 708.662 203.198 708.662 229.381V290.393C708.662 296.568 710.391 298.544 718.295 296.815V324.975C712.367 326.457 707.427 326.704 704.463 326.704C688.407 326.704 680.008 319.54 679.514 305.461H677.538C673.586 319.046 660.988 327.692 645.674 327.692ZM661.729 302.003C670.375 302.003 674.327 295.086 674.327 280.265V266.433H670.622C657.283 266.433 650.614 273.349 650.614 286.688C650.614 297.309 654.566 302.003 661.729 302.003ZM730.688 324.975V193.07H762.306L764.776 212.831H766.752C770.457 197.517 777.867 190.6 789.724 190.6C791.947 190.6 794.911 190.847 798.369 191.835V226.664C793.182 225.429 788.242 224.441 784.043 224.441C772.433 224.441 767.246 231.851 767.246 247.66V324.975H730.688ZM810.774 177.756V147.126H847.332V177.756H810.774ZM810.774 324.975V193.07H847.332V324.975H810.774ZM896.373 327.445C875.624 327.445 866.485 313.859 866.485 289.652V193.07H903.043V284.959C903.043 294.098 906.254 299.038 913.911 299.038C923.545 299.038 927.25 291.381 927.25 273.843V193.07H963.807V324.975H929.72L927.25 308.425H925.274C919.098 321.269 910.453 327.445 896.373 327.445ZM1020.54 327.939C990.9 327.939 975.832 312.624 976.079 283.971L1006.96 279.277C1006.96 294.345 1011.9 301.756 1021.04 301.756C1027.46 301.756 1032.15 298.297 1032.15 291.134C1032.15 286.441 1030.17 282.983 1023.01 278.536L998.063 262.975C984.23 254.329 978.302 243.214 978.302 228.146C978.302 203.692 993.864 190.106 1021.04 190.106C1045.74 190.106 1059.07 201.963 1062.04 226.664L1031.66 231.357C1030.17 219.254 1026.22 214.066 1018.81 214.066C1012.88 214.066 1009.18 217.277 1009.18 222.959C1009.18 228.393 1012.39 231.851 1019.55 236.297L1038.82 247.907C1058.09 259.516 1065.25 271.126 1065.25 288.664C1065.25 314.106 1049.44 327.939 1020.54 327.939ZM1111.61 324.975L1145.95 152.56H1203.01L1238.08 324.975H1199.3L1193.62 292.863H1155.09L1149.4 324.975H1111.61ZM1173.12 189.612L1160.52 261.74H1187.94L1175.09 189.612H1173.12ZM1274.32 255.811L1248.39 236.791L1273.34 208.632L1236.53 200.234L1246.41 169.851L1280.99 184.672L1277.54 147.126H1309.65L1306.19 184.672L1340.77 169.851L1350.65 200.234L1313.85 208.632L1338.79 236.791L1312.86 255.811L1293.59 223.453L1274.32 255.811ZM1372.88 225.676L1369.42 208.632C1383.75 205.174 1389.68 197.27 1389.92 184.178H1374.86V147.126H1411.91V178.744C1411.91 207.644 1400.3 221.724 1372.88 225.676ZM35.8287 571.975V442.787H33.8526C27.9243 454.397 18.2908 460.572 6.92828 461.313V422.779C23.2311 421.297 34.0996 413.64 39.2868 399.56H74.3625V571.975H35.8287ZM109.295 571.975C116.459 498.118 134.738 463.042 153.757 434.142H94.7217V399.56H190.562V419.815C171.048 458.349 153.016 500.094 149.558 571.975H109.295ZM204.341 571.975V394.126H240.899L239.911 457.114H241.887C248.556 443.528 257.695 437.6 271.775 437.6C292.524 437.6 302.405 450.939 302.405 475.393V571.975H265.847V480.086C265.847 470.947 262.142 466.007 254.484 466.007C244.851 466.007 240.899 473.664 240.899 491.202V571.975H204.341ZM420.578 571.975V537.393H359.32V516.891L406.993 399.56H456.642V507.258H472.204V537.393H456.642V571.975H420.578ZM418.602 441.799L392.913 507.258H420.578V441.799H418.602ZM535.232 574.939C501.639 574.939 484.101 556.907 484.101 521.584L519.671 517.138C519.671 535.664 524.117 544.309 534.491 544.309C544.125 544.309 548.571 536.405 548.571 513.927C548.571 492.684 544.619 484.779 535.232 484.779C528.81 484.779 524.364 488.485 521.153 497.624L486.818 493.178L494.969 399.56H580.683V434.142H523.376L519.424 469.959H521.4C527.328 461.313 535.479 456.867 548.077 456.867C572.778 456.867 588.093 473.417 588.093 511.21C588.093 553.202 568.579 574.939 535.232 574.939ZM604.77 571.975V440.07H638.858L640.834 457.855H642.81C648.491 443.034 658.372 437.106 671.957 437.106C686.778 437.106 695.423 444.023 700.117 458.349H702.093C709.009 444.27 718.395 437.106 732.475 437.106C752.236 437.106 761.87 450.939 761.87 473.664V571.975H725.312V478.11C725.312 470.453 721.607 466.007 715.184 466.007C707.033 466.007 701.599 473.17 701.599 483.297V571.975H665.041V478.11C665.041 470.453 661.336 466.007 654.913 466.007C646.762 466.007 641.328 473.17 641.328 483.297V571.975H604.77ZM880.107 571.975V537.393H818.848V516.891L866.522 399.56H916.171V507.258H931.733V537.393H916.171V571.975H880.107ZM878.131 441.799L852.442 507.258H880.107V441.799H878.131ZM998.466 574.939C961.415 574.939 944.865 548.508 944.865 487.497C944.865 425.003 962.403 396.596 1000.44 396.596C1037.74 396.596 1054.29 423.027 1054.29 484.532C1054.29 546.779 1036.75 574.939 998.466 574.939ZM984.881 484.779C984.881 487.497 984.881 490.214 984.881 492.437L1012.79 454.644C1010.82 436.859 1006.37 429.696 998.96 429.696C988.833 429.696 984.881 443.528 984.881 484.779ZM1000.2 541.839C1010.32 541.839 1014.28 527.512 1014.28 487.25C1014.28 484.285 1014.28 481.568 1014.28 478.851L986.363 516.891C988.339 534.923 992.785 541.839 1000.2 541.839ZM1070.33 571.975V534.923H1107.38V571.975H1070.33ZM1177.21 574.939C1140.16 574.939 1123.61 548.508 1123.61 487.497C1123.61 425.003 1141.15 396.596 1179.19 396.596C1216.49 396.596 1233.04 423.027 1233.04 484.532C1233.04 546.779 1215.5 574.939 1177.21 574.939ZM1163.63 484.779C1163.63 487.497 1163.63 490.214 1163.63 492.437L1191.54 454.644C1189.56 436.859 1185.12 429.696 1177.71 429.696C1167.58 429.696 1163.63 443.528 1163.63 484.779ZM1178.94 541.839C1189.07 541.839 1193.02 527.512 1193.02 487.25C1193.02 484.285 1193.02 481.568 1193.02 478.851L1165.11 516.891C1167.08 534.923 1171.53 541.839 1178.94 541.839ZM1307.31 571.975V537.393H1246.05V516.891L1293.73 399.56H1343.38V507.258H1358.94V537.393H1343.38V571.975H1307.31ZM1305.34 441.799L1279.65 507.258H1307.31V441.799H1305.34ZM1425.67 574.939C1388.62 574.939 1372.07 548.508 1372.07 487.497C1372.07 425.003 1389.61 396.596 1427.65 396.596C1464.95 396.596 1481.5 423.027 1481.5 484.532C1481.5 546.779 1463.96 574.939 1425.67 574.939ZM1412.09 484.779C1412.09 487.497 1412.09 490.214 1412.09 492.437L1440 454.644C1438.02 436.859 1433.58 429.696 1426.17 429.696C1416.04 429.696 1412.09 443.528 1412.09 484.779ZM1427.4 541.839C1437.53 541.839 1441.48 527.512 1441.48 487.25C1441.48 484.285 1441.48 481.568 1441.48 478.851L1413.57 516.891C1415.54 534.923 1419.99 541.839 1427.4 541.839ZM1547.13 574.939C1520.2 574.939 1501.68 561.106 1499.7 532.7L1531.81 527.265C1533.29 541.098 1538.97 545.544 1547.37 545.544C1562.19 545.544 1565.65 530.477 1565.16 491.696H1563.18C1556.76 503.799 1547.13 510.222 1533.79 510.222C1509.83 510.222 1496.49 490.461 1496.49 456.373C1496.49 417.345 1514.27 396.596 1549.35 396.596C1586.15 396.596 1602.7 419.815 1602.7 477.369C1602.7 544.556 1585.41 574.939 1547.13 574.939ZM1548.11 483.791C1558.24 483.791 1562.19 474.899 1562.19 456.126C1562.19 436.859 1557.99 426.732 1548.61 426.732C1538.48 426.732 1534.53 435.624 1534.53 454.397C1534.53 473.664 1538.73 483.791 1548.11 483.791ZM1658.33 574.939C1628.69 574.939 1613.62 559.624 1613.87 530.971L1644.75 526.277C1644.75 541.345 1649.69 548.756 1658.83 548.756C1665.25 548.756 1669.94 545.297 1669.94 538.134C1669.94 533.441 1667.97 529.983 1660.8 525.536L1635.86 509.975C1622.02 501.329 1616.09 490.214 1616.09 475.146C1616.09 450.692 1631.66 437.106 1658.83 437.106C1683.53 437.106 1696.87 448.963 1699.83 473.664L1669.45 478.357C1667.97 466.254 1664.01 461.066 1656.6 461.066C1650.68 461.066 1646.97 464.277 1646.97 469.959C1646.97 475.393 1650.18 478.851 1657.35 483.297L1676.61 494.907C1695.88 506.516 1703.04 518.126 1703.04 535.664C1703.04 561.106 1687.23 574.939 1658.33 574.939Z" fill="#DEE1E0"/>
<path d="M287.489 761.508V732.36H383.33V761.508H287.489ZM401.231 823.014V802.265L447.916 723.715C454.585 712.599 457.549 703.954 457.549 695.062C457.549 685.428 454.091 680.488 446.928 680.488C437.788 680.488 433.836 688.392 434.824 704.942L400.737 700.496C399.008 667.396 417.78 647.635 450.633 647.635C479.533 647.635 496.083 663.691 496.083 691.603C496.083 708.153 490.155 724.95 477.804 742.735L446.434 788.432H497.318V823.014H401.231ZM561.383 825.978C534.459 825.978 515.933 812.145 513.957 783.739L546.068 778.305C547.55 792.137 553.232 796.583 561.63 796.583C576.451 796.583 579.909 781.516 579.415 742.735H577.439C571.017 754.838 561.383 761.261 548.044 761.261C524.084 761.261 510.746 741.5 510.746 707.412C510.746 668.384 528.531 647.635 563.606 647.635C600.411 647.635 616.961 670.854 616.961 728.408C616.961 795.595 599.67 825.978 561.383 825.978ZM562.371 734.83C572.499 734.83 576.451 725.938 576.451 707.165C576.451 687.898 572.252 677.771 562.865 677.771C552.738 677.771 548.785 686.663 548.785 705.436C548.785 724.703 552.985 734.83 562.371 734.83ZM674.32 735.572C649.618 735.572 633.069 718.281 633.069 692.838C633.069 665.914 650.359 647.635 675.555 647.635C700.256 647.635 716.806 664.926 716.806 690.615C716.806 717.293 699.515 735.572 674.32 735.572ZM675.061 712.352C683.706 712.352 689.14 704.695 689.14 691.85C689.14 679.006 683.706 671.101 674.814 671.101C666.168 671.101 660.734 678.759 660.734 691.603C660.734 704.448 666.168 712.352 675.061 712.352ZM829.744 825.978C792.692 825.978 776.142 799.548 776.142 738.536C776.142 676.042 793.68 647.635 831.72 647.635C869.019 647.635 885.569 674.066 885.569 735.572C885.569 797.818 868.031 825.978 829.744 825.978ZM816.158 735.819C816.158 738.536 816.158 741.253 816.158 743.476L844.071 705.683C842.095 687.898 837.648 680.735 830.238 680.735C820.111 680.735 816.158 694.568 816.158 735.819ZM831.473 792.878C841.601 792.878 845.553 778.552 845.553 738.289C845.553 735.324 845.553 732.607 845.553 729.89L817.64 767.93C819.617 785.962 824.063 792.878 831.473 792.878ZM901.549 721.739L926.25 645.165H965.278L930.697 721.739H901.549ZM1022.38 823.014V802.265L1069.06 723.715C1075.73 712.599 1078.7 703.954 1078.7 695.062C1078.7 685.428 1075.24 680.488 1068.08 680.488C1058.94 680.488 1054.98 688.392 1055.97 704.942L1021.88 700.496C1020.16 667.396 1038.93 647.635 1071.78 647.635C1100.68 647.635 1117.23 663.691 1117.23 691.603C1117.23 708.153 1111.3 724.95 1098.95 742.735L1067.58 788.432H1118.47V823.014H1022.38ZM1182.53 825.978C1149.18 825.978 1129.92 809.922 1129.92 783.245C1129.92 763.731 1140.29 748.663 1160.3 739.277V737.301C1142.27 723.962 1134.86 710.87 1134.86 693.085C1134.86 664.185 1153.38 647.635 1185.74 647.635C1215.14 647.635 1232.43 661.715 1232.18 685.181C1231.93 701.237 1223.29 715.564 1206.49 724.95V726.926C1230.45 741.253 1239.59 754.591 1239.59 776.081C1239.59 807.205 1218.35 825.978 1182.53 825.978ZM1183.77 712.352L1187.22 714.576C1196.36 706.671 1200.32 698.767 1200.32 691.109C1200.32 681.97 1194.63 675.795 1185 675.795C1175.37 675.795 1170.18 682.217 1170.18 691.356C1170.18 699.755 1174.38 706.177 1183.77 712.352ZM1183.77 797.324C1194.39 797.324 1201.06 789.667 1201.06 778.058C1201.06 768.671 1196.86 762.496 1185 754.591L1180.55 751.627C1171.42 759.532 1166.23 768.671 1166.23 778.552C1166.23 789.667 1172.9 797.324 1183.77 797.324ZM1254.03 823.014V785.962H1291.08V823.014H1254.03ZM1321.2 823.014V693.827H1319.22C1313.29 705.436 1303.66 711.611 1292.29 712.352V673.819C1308.6 672.336 1319.47 664.679 1324.65 650.599H1359.73V823.014H1321.2ZM1409.48 823.014V693.827H1407.51C1401.58 705.436 1391.94 711.611 1380.58 712.352V673.819C1396.88 672.336 1407.75 664.679 1412.94 650.599H1448.02V823.014H1409.48ZM1520 825.978C1486.65 825.978 1467.39 809.922 1467.39 783.245C1467.39 763.731 1477.76 748.663 1497.77 739.277V737.301C1479.74 723.962 1472.33 710.87 1472.33 693.085C1472.33 664.185 1490.85 647.635 1523.21 647.635C1552.61 647.635 1569.9 661.715 1569.65 685.181C1569.4 701.237 1560.76 715.564 1543.96 724.95V726.926C1567.92 741.253 1577.06 754.591 1577.06 776.081C1577.06 807.205 1555.82 825.978 1520 825.978ZM1521.24 712.352L1524.69 714.576C1533.83 706.671 1537.79 698.767 1537.79 691.109C1537.79 681.97 1532.1 675.795 1522.47 675.795C1512.84 675.795 1507.65 682.217 1507.65 691.356C1507.65 699.755 1511.85 706.177 1521.24 712.352ZM1521.24 797.324C1531.86 797.324 1538.53 789.667 1538.53 778.058C1538.53 768.671 1534.33 762.496 1522.47 754.591L1518.02 751.627C1508.89 759.532 1503.7 768.671 1503.7 778.552C1503.7 789.667 1510.37 797.324 1521.24 797.324ZM1589.03 721.739L1613.73 645.165H1652.76L1618.18 721.739H1589.03ZM1638.44 721.739L1663.14 645.165H1702.16L1667.58 721.739H1638.44Z" fill="#DEE1E0"/>
</g>
<defs>
<clipPath id="clip0_59_13">
<rect width="1710" height="1005" fill="white"/>
</clipPath>
</defs>
</svg>
