<svg width="1710" height="1005" viewBox="0 0 1710 1005" fill="none" xmlns="http://www.w3.org/2000/svg">
<g clip-path="url(#clip0_57_11)">
<rect width="1710" height="1005" fill="black"/>
<path d="M239.899 344V172.45H278.674C310.869 172.45 330.844 190.31 330.844 218.98C330.844 247.65 310.869 265.51 278.674 265.51H249.299V344H239.899ZM249.299 256.58H277.734C305.464 256.58 321.209 243.185 321.209 218.98C321.209 194.775 305.464 181.38 277.734 181.38H249.299V256.58ZM398.317 346.35C364.007 346.35 336.982 319.56 336.982 282.195C336.982 244.595 364.007 217.805 398.317 217.805C421.112 217.805 440.852 229.555 449.077 247.18V220.155H457.537V344H449.077V316.975C440.852 334.6 421.112 346.35 398.317 346.35ZM398.787 337.42C426.282 337.42 449.782 318.385 449.782 282.195C449.782 245.77 426.282 226.735 398.787 226.735C368.472 226.735 346.147 250.235 346.147 282.195C346.147 313.92 368.472 337.42 398.787 337.42ZM488.513 254.23C488.513 231.2 498.148 220.155 521.883 220.155H534.103V228.85H522.588C504.728 228.85 497.443 235.195 497.443 254.7V344H488.513V254.23ZM595.689 346.35C561.379 346.35 534.354 319.56 534.354 282.195C534.354 244.595 561.379 217.805 595.689 217.805C618.484 217.805 638.224 229.555 646.449 247.18V220.155H654.909V344H646.449V316.975C638.224 334.6 618.484 346.35 595.689 346.35ZM596.159 337.42C623.654 337.42 647.154 318.385 647.154 282.195C647.154 245.77 623.654 226.735 596.159 226.735C565.844 226.735 543.519 250.235 543.519 282.195C543.519 313.92 565.844 337.42 596.159 337.42ZM739.7 346.35C705.39 346.35 678.365 319.56 678.365 282.195C678.365 244.595 705.39 217.805 739.7 217.805C762.73 217.805 782.47 230.025 790.46 247.18L789.99 220.155V163.285H798.92V344H790.46V316.975C782.235 334.6 762.495 346.35 739.7 346.35ZM740.17 337.42C767.665 337.42 791.165 318.385 791.165 282.195C791.165 245.77 767.665 226.735 740.17 226.735C709.855 226.735 687.53 250.235 687.53 282.195C687.53 313.92 709.855 337.42 740.17 337.42ZM830.836 344V220.155H839.766V344H830.836ZM830.836 195.245V163.285H839.766V195.245H830.836ZM887.08 345.175C881.91 345.175 872.98 344.705 863.815 344V335.305C872.98 336.01 881.91 336.48 887.08 336.48C908.23 336.48 918.805 328.96 918.805 313.685C918.805 302.875 912.93 295.59 898.36 286.895L889.43 281.49C871.57 270.68 863.345 260.575 863.345 247.415C863.345 230.26 877.445 218.98 899.77 218.98C904.47 218.98 911.52 219.45 918.1 220.155V228.38C910.815 227.675 905.41 227.44 901.65 227.44C882.615 227.44 872.275 234.725 872.275 247.415C872.275 257.285 878.855 264.57 893.66 273.735L903.295 279.61C920.215 289.95 927.735 299.585 927.735 313.45C927.735 333.19 912.695 345.175 887.08 345.175ZM1001.69 345.88C964.795 345.88 939.885 317.68 939.885 282.43C939.885 247.415 965.03 218.51 1000.52 218.51C1030.13 218.51 1055.74 238.485 1058.56 279.14H949.05V281.96V282.9C949.05 312.745 969.965 336.95 1001.69 336.95C1023.78 336.95 1041.17 325.435 1050.34 307.34L1058.09 311.335C1050.1 327.08 1031.77 345.88 1001.69 345.88ZM950.225 270.445H1048.46C1043.05 239.895 1022.14 227.44 1000.28 227.44C973.725 227.44 954.69 246.24 950.225 270.445ZM1144.71 344V172.45H1154.11V335.07H1225.79V344H1144.71ZM1285.7 346.35C1250.22 346.35 1223.9 318.855 1223.9 282.195C1223.9 245.3 1250.22 217.805 1285.7 217.805C1320.95 217.805 1347.27 245.3 1347.27 282.195C1347.27 318.855 1320.95 346.35 1285.7 346.35ZM1285.7 337.42C1315.78 337.42 1338.11 313.92 1338.11 282.195C1338.11 250.235 1315.78 226.735 1285.7 226.735C1255.39 226.735 1233.06 250.235 1233.06 282.195C1233.06 313.92 1255.39 337.42 1285.7 337.42ZM1386.13 345.175C1380.96 345.175 1372.03 344.705 1362.87 344V335.305C1372.03 336.01 1380.96 336.48 1386.13 336.48C1407.28 336.48 1417.86 328.96 1417.86 313.685C1417.86 302.875 1411.98 295.59 1397.41 286.895L1388.48 281.49C1370.62 270.68 1362.4 260.575 1362.4 247.415C1362.4 230.26 1376.5 218.98 1398.82 218.98C1403.52 218.98 1410.57 219.45 1417.15 220.155V228.38C1409.87 227.675 1404.46 227.44 1400.7 227.44C1381.67 227.44 1371.33 234.725 1371.33 247.415C1371.33 257.285 1377.91 264.57 1392.71 273.735L1402.35 279.61C1419.27 289.95 1426.79 299.585 1426.79 313.45C1426.79 333.19 1411.75 345.175 1386.13 345.175ZM1450.48 344V228.85H1434.97V220.155H1450.48V184.2L1459.41 179.5V220.155H1475.86V228.85H1459.41V344H1450.48ZM12.3954 579V406.745H101.225V427.895H34.9554V479.595H100.52V500.745H34.9554V557.85H102.4V579H12.3954ZM216.882 579L156.017 502.39V579H133.457V406.745H180.457C213.357 406.745 233.802 424.605 233.802 455.39C233.802 482.18 214.297 501.685 182.337 502.39L244.847 579H216.882ZM156.017 484.06H179.047C199.022 484.06 210.772 472.78 210.772 455.39C210.772 437.765 199.022 426.955 179.047 426.955H156.017V484.06ZM265.076 579V406.745H311.841C345.681 406.745 367.066 423.195 367.066 450.69C367.066 468.315 358.606 481.71 344.036 488.525C362.131 494.4 372.941 509.44 372.941 530.355C372.941 560.2 351.086 579 316.776 579H265.076ZM287.636 558.79H316.306C337.456 558.79 349.911 548.685 349.911 529.415C349.911 510.145 337.456 500.04 315.131 500.04H287.636V558.79ZM287.636 480.065H312.781C332.756 480.065 344.741 469.725 344.741 453.275C344.741 436.825 332.991 427.19 312.781 427.19H287.636V480.065ZM380.921 579L439.906 406.745H461.761L521.216 579H497.481L485.496 542.81H416.406L404.421 579H380.921ZM422.986 522.835H478.681L450.716 438.47L422.986 522.835ZM625.048 579L564.183 502.39V579H541.623V406.745H588.623C621.523 406.745 641.968 424.605 641.968 455.39C641.968 482.18 622.463 501.685 590.503 502.39L653.013 579H625.048ZM564.183 484.06H587.213C607.188 484.06 618.938 472.78 618.938 455.39C618.938 437.765 607.188 426.955 587.213 426.955H564.183V484.06ZM657.705 512.025V491.58H718.1V512.025H657.705ZM827.113 581.82C777.763 581.82 738.988 545.395 738.988 493.225C738.988 440.35 777.763 403.925 827.583 403.925C853.433 403.925 877.168 413.56 893.853 431.89L877.638 448.105C865.888 434.24 847.558 425.545 827.583 425.545C789.983 425.545 762.253 453.98 762.253 493.225C762.253 532.47 790.218 560.435 827.113 560.435C859.778 560.435 883.983 539.05 886.568 503.8H821.708V483.355H910.538V492.285C910.538 547.98 875.053 581.82 827.113 581.82ZM1019.9 579L959.038 502.39V579H936.478V406.745H983.478C1016.38 406.745 1036.82 424.605 1036.82 455.39C1036.82 482.18 1017.32 501.685 985.358 502.39L1047.87 579H1019.9ZM959.038 484.06H982.068C1002.04 484.06 1013.79 472.78 1013.79 455.39C1013.79 437.765 1002.04 426.955 982.068 426.955H959.038V484.06ZM1143.59 581.82C1094.95 581.82 1055.47 545.63 1055.47 492.99C1055.47 440.35 1094.95 403.925 1143.59 403.925C1192.24 403.925 1231.72 440.35 1231.72 492.99C1231.72 545.63 1192.24 581.82 1143.59 581.82ZM1143.59 560.2C1179.55 560.2 1208.45 532.47 1208.45 492.99C1208.45 453.51 1179.55 425.78 1143.59 425.78C1107.64 425.78 1078.97 453.51 1078.97 492.99C1078.97 532.47 1107.64 560.2 1143.59 560.2ZM1277.43 579V427.895H1233.95V406.745H1343.46V427.895H1299.99V579H1277.43ZM1363.46 579V406.745H1452.29V427.895H1386.02V479.595H1451.59V500.745H1386.02V557.85H1453.47V579H1363.46ZM1506.38 580.88C1497.21 580.88 1488.05 580.41 1475.83 579V557.615C1487.81 558.79 1497.68 559.26 1505.91 559.26C1530.11 559.26 1542.33 550.33 1542.33 532.94C1542.33 520.955 1536.46 512.73 1522.12 503.565L1501.44 490.17C1484.29 479.125 1475.36 465.495 1475.36 448.105C1475.36 421.08 1495.33 404.865 1529.41 404.865C1536.46 404.865 1544.21 405.57 1553.61 406.745V427.19C1543.74 425.78 1536.46 425.31 1530.58 425.31C1509.2 425.31 1497.92 433.065 1497.92 447.635C1497.92 457.975 1503.79 465.495 1515.78 473.015L1535.05 485.235C1555.02 497.925 1564.89 512.495 1564.89 532.47C1564.89 563.02 1543.51 580.88 1506.38 580.88ZM1679.03 579L1613 497.925V579H1590.44V406.745H1613V479.83L1675.74 407.45H1703.24L1633.68 488.055L1707.47 579H1679.03ZM140.183 814V641.04H175.433L241.233 743.735V641.04H277.893V814H242.643L176.843 711.54V814H140.183ZM362.177 817.055C322.462 817.055 295.907 790.265 295.907 752.195C295.907 712.95 324.107 686.395 360.297 686.395C394.372 686.395 425.627 709.66 420.457 761.83H330.922C334.447 776.4 346.432 785.565 362.882 785.565C376.042 785.565 387.322 779.925 396.487 768.41L420.457 788.385C406.592 806.715 386.852 817.055 362.177 817.055ZM331.392 736.215H386.147C383.327 723.525 373.927 716.475 360.062 716.475C345.962 716.475 335.387 723.995 331.392 736.215ZM460.224 814L421.214 689.45H459.989L481.609 764.415L504.404 689.45H538.714L561.274 761.83L583.364 689.45H621.199L579.369 814H545.294L520.854 740.915L496.649 814H460.224ZM778.786 814V745.145H723.796V814H684.786V641.04H723.796V708.015H778.786V641.04H817.796V814H778.786ZM902.196 817.525C865.301 817.525 835.691 790.265 835.691 751.96C835.691 713.655 865.301 686.395 902.196 686.395C939.091 686.395 968.701 713.655 968.701 751.96C968.701 790.265 939.091 817.525 902.196 817.525ZM902.196 782.98C918.881 782.98 931.571 770.525 931.571 751.96C931.571 733.395 918.881 720.94 902.196 720.94C885.511 720.94 872.821 733.395 872.821 751.96C872.821 770.525 885.511 782.98 902.196 782.98ZM983.479 734.57C983.479 703.315 1000.16 689.45 1027.89 689.45H1043.87V722.82H1031.42C1023.9 722.82 1020.61 726.11 1020.61 733.63V814H983.479V734.57ZM1057.29 814V689.45H1094.42V814H1057.29ZM1057.29 670.415V632.345H1094.42V670.415H1057.29ZM1107.48 814V809.3L1156.36 722.82H1111L1115.7 689.45H1210.64V694.15L1161.76 780.63H1211.35L1206.65 814H1107.48ZM1284.32 817.525C1247.42 817.525 1217.81 790.265 1217.81 751.96C1217.81 713.655 1247.42 686.395 1284.32 686.395C1321.21 686.395 1350.82 713.655 1350.82 751.96C1350.82 790.265 1321.21 817.525 1284.32 817.525ZM1284.32 782.98C1301 782.98 1313.69 770.525 1313.69 751.96C1313.69 733.395 1301 720.94 1284.32 720.94C1267.63 720.94 1254.94 733.395 1254.94 751.96C1254.94 770.525 1267.63 782.98 1284.32 782.98ZM1365.13 740.445C1365.13 707.075 1385.81 686.395 1419.65 686.395C1453.49 686.395 1474.17 707.075 1474.17 740.445V814H1437.04V741.855C1437.04 728.46 1430.7 720.94 1419.65 720.94C1408.61 720.94 1402.26 728.46 1402.26 741.855V814H1365.13V740.445ZM1517.53 815.88C1510.48 815.88 1501.32 815.175 1492.15 814V782.51C1502.49 783.92 1510.01 784.625 1515.42 784.625C1525.05 784.625 1529.05 782.275 1529.05 777.34C1529.05 773.345 1526.23 769.82 1518.24 763.945L1510.95 758.54C1496.62 747.965 1490.74 738.095 1490.74 724.23C1490.74 701.2 1507.43 687.805 1536.57 687.805C1542.68 687.805 1549.26 688.275 1556.54 689.45V718.355C1549.73 717.415 1544.32 717.18 1541.27 717.18C1531.4 717.18 1526.7 719.53 1526.7 723.525C1526.7 726.345 1529.05 728.93 1536.8 734.335L1543.38 739.035C1560.3 751.02 1567.35 762.3 1567.35 777.105C1567.35 801.545 1549.02 815.88 1517.53 815.88Z" fill="#DEE1E0"/>
</g>
<defs>
<clipPath id="clip0_57_11">
<rect width="1710" height="1005" fill="white"/>
</clipPath>
</defs>
</svg>
