<svg width="1710" height="908" viewBox="0 0 1710 908" fill="none" xmlns="http://www.w3.org/2000/svg">
<rect width="1710" height="908" fill="black"/>
<path d="M113.887 236C108.277 236 104.962 232.685 102.157 225.8L45.2923 83V142.925C45.2923 149.045 49.3723 153.125 55.4923 153.125H60.5923C65.1823 153.125 68.2423 156.185 68.2423 160.775V228.35C68.2423 232.94 65.1823 236 60.5923 236H12.1423C7.55229 236 4.49229 232.94 4.49229 228.35V160.775C4.49229 156.185 7.55229 153.125 12.1423 153.125H17.2423C23.3623 153.125 27.4423 149.045 27.4423 142.925V93.2C27.4423 87.08 23.3623 83 17.2423 83H12.1423C7.55229 83 4.49229 79.94 4.49229 75.35V42.2C4.49229 37.61 7.55229 34.55 12.1423 34.55H63.9073C69.0073 34.55 73.5973 37.1 76.1473 43.22L120.517 153.125V93.2C120.517 87.08 116.437 83 110.317 83H105.217C100.627 83 97.5673 79.94 97.5673 75.35V42.2C97.5673 37.61 100.627 34.55 105.217 34.55H153.667C158.257 34.55 161.317 37.61 161.317 42.2V75.35C161.317 79.94 158.257 83 153.667 83H148.567C142.447 83 138.367 87.08 138.367 93.2V228.35C138.367 232.94 135.307 236 130.717 236H113.887ZM258.257 200.3C258.257 221.72 243.977 236 222.557 236H176.657C155.237 236 140.957 221.72 140.957 200.3V121.25C140.957 99.83 155.237 85.55 176.657 85.55H222.557C243.977 85.55 258.257 99.83 258.257 121.25V142.925C258.257 147.515 255.197 150.575 250.607 150.575H174.107V153.125H250.607C255.197 153.125 258.257 156.185 258.257 160.775V200.3ZM174.107 131.45V141.65H225.107V131.45C225.107 125.33 221.027 121.25 214.907 121.25H184.307C178.187 121.25 174.107 125.33 174.107 131.45ZM260.737 42.2C260.737 37.61 263.797 34.55 268.387 34.55H286.237C290.827 34.55 293.887 37.61 293.887 42.2V85.55H316.837C321.427 85.55 324.487 88.61 324.487 93.2V113.6C324.487 118.19 321.427 121.25 316.837 121.25H293.887V142.925C293.887 149.045 297.967 153.125 304.087 153.125H316.837C321.427 153.125 324.487 156.185 324.487 160.775V228.35C324.487 232.94 321.427 236 316.837 236H296.437C275.017 236 260.737 221.72 260.737 200.3V42.2ZM334.628 85.55H418.778C423.368 85.55 426.428 88.61 426.428 93.2V110.285C426.428 124.055 417.758 131.45 399.143 137.06L389.963 139.865C386.648 140.885 384.608 143.69 384.608 146.495C384.608 149.81 387.158 153.125 393.278 153.125H418.778C423.368 153.125 426.428 156.185 426.428 160.775V228.35C426.428 232.94 423.368 236 418.778 236H334.628C330.038 236 326.978 232.94 326.978 228.35V176.585C326.978 149.555 335.903 136.805 358.598 131.45L390.728 123.8V121.25H334.628C330.038 121.25 326.978 118.19 326.978 113.6V93.2C326.978 88.61 330.038 85.55 334.628 85.55ZM559.127 153.125C563.717 153.125 566.777 156.185 566.777 160.775V228.35C566.777 232.94 563.717 236 559.127 236H548.927C527.507 236 513.227 221.72 513.227 200.3V169.7H510.677V200.3C510.677 221.72 496.397 236 474.977 236H464.777C443.357 236 429.077 221.72 429.077 200.3V121.25C429.077 99.83 443.357 85.55 464.777 85.55H474.977C496.397 85.55 510.677 99.83 510.677 121.25H513.227V93.2C513.227 88.61 516.287 85.55 520.877 85.55H559.127C563.717 85.55 566.777 88.61 566.777 93.2V113.6C566.777 118.19 563.717 121.25 559.127 121.25H554.027C547.907 121.25 543.827 125.33 543.827 131.45V142.925C543.827 149.045 547.907 153.125 554.027 153.125H559.127ZM510.677 131.45C510.677 125.33 506.597 121.25 500.477 121.25H472.427C466.307 121.25 462.227 125.33 462.227 131.45V142.925C462.227 149.045 466.307 153.125 472.427 153.125H500.477C506.597 153.125 510.677 149.045 510.677 142.925V131.45ZM582.027 153.125C588.147 153.125 592.227 149.045 592.227 142.925V93.2C592.227 87.08 588.147 83 582.027 83H576.927C572.337 83 569.277 79.94 569.277 75.35V42.2C569.277 37.61 572.337 34.55 576.927 34.55H653.427C658.017 34.55 661.077 37.61 661.077 42.2V75.35C661.077 79.94 658.017 83 653.427 83H633.027C626.907 83 622.827 87.08 622.827 93.2V121.25H625.377C625.377 99.83 639.657 85.55 661.077 85.55H671.277C692.697 85.55 706.977 99.83 706.977 121.25V142.925C706.977 149.045 711.057 153.125 717.177 153.125H722.277C726.867 153.125 729.927 156.185 729.927 160.775V228.35C729.927 232.94 726.867 236 722.277 236H658.527C653.937 236 650.877 232.94 650.877 228.35V160.775C650.877 156.185 653.937 153.125 658.527 153.125H663.627C669.747 153.125 673.827 149.045 673.827 142.925V131.45C673.827 125.33 669.747 121.25 663.627 121.25H635.577C629.457 121.25 625.377 125.33 625.377 131.45V142.925C625.377 149.045 629.457 153.125 635.577 153.125H640.677C645.267 153.125 648.327 156.185 648.327 160.775V228.35C648.327 232.94 645.267 236 640.677 236H576.927C572.337 236 569.277 232.94 569.277 228.35V160.775C569.277 156.185 572.337 153.125 576.927 153.125H582.027ZM816.578 200.3V169.7H814.028V200.3C814.028 221.72 799.748 236 778.328 236H768.128C746.708 236 732.428 221.72 732.428 200.3V131.45C732.428 125.33 728.348 121.25 722.228 121.25H717.128C712.538 121.25 709.478 118.19 709.478 113.6V93.2C709.478 88.61 712.538 85.55 717.128 85.55H780.878C785.468 85.55 788.528 88.61 788.528 93.2V113.6C788.528 118.19 785.468 121.25 780.878 121.25H775.778C769.658 121.25 765.578 125.33 765.578 131.45V142.925C765.578 149.045 769.658 153.125 775.778 153.125H803.828C809.948 153.125 814.028 149.045 814.028 142.925V131.45C814.028 125.33 809.948 121.25 803.828 121.25H798.728C794.138 121.25 791.078 118.19 791.078 113.6V93.2C791.078 88.61 794.138 85.55 798.728 85.55H862.478C867.068 85.55 870.128 88.61 870.128 93.2V113.6C870.128 118.19 867.068 121.25 862.478 121.25H857.378C851.258 121.25 847.178 125.33 847.178 131.45V142.925C847.178 149.045 851.258 153.125 857.378 153.125H862.478C867.068 153.125 870.128 156.185 870.128 160.775V228.35C870.128 232.94 867.068 236 862.478 236H852.278C830.858 236 816.578 221.72 816.578 200.3ZM1002.64 153.125C1007.23 153.125 1010.29 156.185 1010.29 160.775V228.35C1010.29 232.94 1007.23 236 1002.64 236H992.438C971.018 236 956.738 221.72 956.738 200.3V169.7H954.188V200.3C954.188 221.72 939.908 236 918.488 236H908.288C886.868 236 872.588 221.72 872.588 200.3V121.25C872.588 99.83 886.868 85.55 908.288 85.55H918.488C939.908 85.55 954.188 99.83 954.188 121.25H956.738V93.2C956.738 88.61 959.798 85.55 964.388 85.55H1002.64C1007.23 85.55 1010.29 88.61 1010.29 93.2V113.6C1010.29 118.19 1007.23 121.25 1002.64 121.25H997.538C991.418 121.25 987.338 125.33 987.338 131.45V142.925C987.338 149.045 991.418 153.125 997.538 153.125H1002.64ZM954.188 131.45C954.188 125.33 950.108 121.25 943.988 121.25H915.938C909.818 121.25 905.738 125.33 905.738 131.45V142.925C905.738 149.045 909.818 153.125 915.938 153.125H943.988C950.108 153.125 954.188 149.045 954.188 142.925V131.45ZM1068.89 142.925C1068.89 149.045 1072.97 153.125 1079.09 153.125H1082.91C1087.5 153.125 1090.56 156.185 1090.56 160.775V228.35C1090.56 232.94 1087.5 236 1082.91 236H1020.44C1015.85 236 1012.79 232.94 1012.79 228.35V160.775C1012.79 156.185 1015.85 153.125 1020.44 153.125H1024.26C1030.38 153.125 1034.46 149.045 1034.46 142.925V93.2C1034.46 87.08 1030.38 83 1024.26 83H1020.44C1015.85 83 1012.79 79.94 1012.79 75.35V42.2C1012.79 37.61 1015.85 34.55 1020.44 34.55H1033.19C1054.61 34.55 1068.89 48.83 1068.89 70.25V142.925ZM1207.97 200.3C1207.97 221.72 1193.69 236 1172.27 236H1128.92C1107.5 236 1093.22 221.72 1093.22 200.3V121.25C1093.22 99.83 1107.5 85.55 1128.92 85.55H1172.27C1193.69 85.55 1207.97 99.83 1207.97 121.25V131.45C1207.97 136.04 1204.91 139.1 1200.32 139.1H1182.47C1177.88 139.1 1174.82 136.04 1174.82 131.45V131.195C1174.82 125.33 1170.74 121.25 1164.62 121.25H1136.57C1130.45 121.25 1126.37 125.33 1126.37 131.45V142.925C1126.37 149.045 1130.45 153.125 1136.57 153.125H1200.32C1204.91 153.125 1207.97 156.185 1207.97 160.775V200.3ZM1246.21 236C1224.79 236 1210.51 221.72 1210.51 200.3V121.25C1210.51 99.83 1224.79 85.55 1246.21 85.55H1289.56C1310.98 85.55 1325.26 99.83 1325.26 121.25V200.3C1325.26 221.72 1310.98 236 1289.56 236H1246.21ZM1281.91 153.125C1288.03 153.125 1292.11 149.045 1292.11 142.925V131.45C1292.11 125.33 1288.03 121.25 1281.91 121.25H1253.86C1247.74 121.25 1243.66 125.33 1243.66 131.45V142.925C1243.66 149.045 1247.74 153.125 1253.86 153.125H1281.91ZM1232.19 63.11L1309.2 49.595L1310.73 58.265L1233.72 71.78L1232.19 63.11ZM1335.45 287C1330.86 287 1327.8 283.94 1327.8 279.35V246.2C1327.8 241.61 1330.86 238.55 1335.45 238.55H1401.75C1407.87 238.55 1411.95 234.47 1411.95 228.35V169.7H1409.4V200.3C1409.4 221.72 1395.12 236 1373.7 236H1363.5C1342.08 236 1327.8 221.72 1327.8 200.3V93.2C1327.8 88.61 1330.86 85.55 1335.45 85.55H1376.25C1380.84 85.55 1383.9 88.61 1383.9 93.2V113.6C1383.9 118.19 1380.84 121.25 1376.25 121.25H1371.15C1365.03 121.25 1360.95 125.33 1360.95 131.45V142.925C1360.95 149.045 1365.03 153.125 1371.15 153.125H1399.2C1405.32 153.125 1409.4 149.045 1409.4 142.925V131.45C1409.4 125.33 1405.32 121.25 1399.2 121.25H1394.1C1389.51 121.25 1386.45 118.19 1386.45 113.6V93.2C1386.45 88.61 1389.51 85.55 1394.1 85.55H1434.9C1439.49 85.55 1442.55 88.61 1442.55 93.2V251.3C1442.55 272.72 1428.27 287 1406.85 287H1335.45ZM1480.79 236C1459.37 236 1445.09 221.72 1445.09 200.3V121.25C1445.09 99.83 1459.37 85.55 1480.79 85.55H1524.14C1545.56 85.55 1559.84 99.83 1559.84 121.25V200.3C1559.84 221.72 1545.56 236 1524.14 236H1480.79ZM1516.49 153.125C1522.61 153.125 1526.69 149.045 1526.69 142.925V131.45C1526.69 125.33 1522.61 121.25 1516.49 121.25H1488.44C1482.32 121.25 1478.24 125.33 1478.24 131.45V142.925C1478.24 149.045 1482.32 153.125 1488.44 153.125H1516.49ZM1562.38 42.2C1562.38 37.61 1565.44 34.55 1570.03 34.55H1587.88C1592.47 34.55 1595.53 37.61 1595.53 42.2V85.55H1618.48C1623.07 85.55 1626.13 88.61 1626.13 93.2V113.6C1626.13 118.19 1623.07 121.25 1618.48 121.25H1595.53V142.925C1595.53 149.045 1599.61 153.125 1605.73 153.125H1618.48C1623.07 153.125 1626.13 156.185 1626.13 160.775V228.35C1626.13 232.94 1623.07 236 1618.48 236H1598.08C1576.66 236 1562.38 221.72 1562.38 200.3V42.2ZM1684.72 142.925C1684.72 149.045 1688.8 153.125 1694.92 153.125H1698.75C1703.34 153.125 1706.4 156.185 1706.4 160.775V228.35C1706.4 232.94 1703.34 236 1698.75 236H1636.27C1631.68 236 1628.62 232.94 1628.62 228.35V160.775C1628.62 156.185 1631.68 153.125 1636.27 153.125H1640.1C1646.22 153.125 1650.3 149.045 1650.3 142.925V93.2C1650.3 87.08 1646.22 83 1640.1 83H1636.27C1631.68 83 1628.62 79.94 1628.62 75.35V42.2C1628.62 37.61 1631.68 34.55 1636.27 34.55H1649.02C1670.44 34.55 1684.72 48.83 1684.72 70.25V142.925ZM118.52 346.925C118.52 353.045 122.6 357.125 128.72 357.125H144.02C150.14 357.125 154.22 353.045 154.22 346.925V335.45C154.22 330.86 157.28 327.8 161.87 327.8H180.995C185.585 327.8 188.645 330.86 188.645 335.45V432.35C188.645 436.94 185.585 440 180.995 440H156.77C135.35 440 121.07 425.72 121.07 404.3V373.7H118.52V432.35C118.52 436.94 115.46 440 110.87 440H68.7951C64.2051 440 61.1451 436.94 61.1451 432.35V364.775C61.1451 360.185 64.2051 357.125 68.7951 357.125H73.8951C80.0151 357.125 84.0951 353.045 84.0951 346.925V297.2C84.0951 291.08 80.0151 287 73.8951 287H68.7951C64.2051 287 61.1451 283.94 61.1451 279.35V246.2C61.1451 241.61 64.2051 238.55 68.7951 238.55H141.47C146.06 238.55 149.12 241.61 149.12 246.2V279.35C149.12 283.94 146.06 287 141.47 287H128.72C122.6 287 118.52 291.08 118.52 297.2V346.925ZM321.185 357.125C325.775 357.125 328.835 360.185 328.835 364.775V432.35C328.835 436.94 325.775 440 321.185 440H310.985C289.565 440 275.285 425.72 275.285 404.3V373.7H272.735V404.3C272.735 425.72 258.455 440 237.035 440H226.835C205.415 440 191.135 425.72 191.135 404.3V325.25C191.135 303.83 205.415 289.55 226.835 289.55H237.035C258.455 289.55 272.735 303.83 272.735 325.25H275.285V297.2C275.285 292.61 278.345 289.55 282.935 289.55H321.185C325.775 289.55 328.835 292.61 328.835 297.2V317.6C328.835 322.19 325.775 325.25 321.185 325.25H316.085C309.965 325.25 305.885 329.33 305.885 335.45V346.925C305.885 353.045 309.965 357.125 316.085 357.125H321.185ZM272.735 335.45C272.735 329.33 268.655 325.25 262.535 325.25H234.485C228.365 325.25 224.285 329.33 224.285 335.45V346.925C224.285 353.045 228.365 357.125 234.485 357.125H262.535C268.655 357.125 272.735 353.045 272.735 346.925V335.45ZM423.136 289.55C427.726 289.55 430.786 292.61 430.786 297.2V317.6C430.786 322.19 427.726 325.25 423.136 325.25H367.036V327.8L399.166 335.45C421.861 340.805 430.786 353.555 430.786 380.585V404.3C430.786 425.72 416.506 440 395.086 440H367.036C345.616 440 331.336 425.72 331.336 404.3V364.775C331.336 360.185 334.396 357.125 338.986 357.125H364.486C370.606 357.125 373.156 353.81 373.156 350.495C373.156 347.69 371.116 344.885 367.801 343.865L358.621 341.06C340.006 335.45 331.336 328.055 331.336 314.285C331.336 299.495 341.281 289.55 356.071 289.55H423.136ZM545.705 357.125C550.295 357.125 553.355 360.185 553.355 364.775V432.35C553.355 436.94 550.295 440 545.705 440H480.68C476.09 440 473.03 436.94 473.03 432.35V364.775C473.03 360.185 476.09 357.125 480.68 357.125H485.78C491.9 357.125 495.98 353.045 495.98 346.925V297.2C495.98 291.08 491.9 287 485.78 287H480.68C476.09 287 473.03 283.94 473.03 279.35V246.2C473.03 241.61 476.09 238.55 480.68 238.55H545.705C550.295 238.55 553.355 241.61 553.355 246.2V279.35C553.355 283.94 550.295 287 545.705 287H540.605C534.485 287 530.405 291.08 530.405 297.2V313.775H578.855V297.2C578.855 291.08 574.775 287 568.655 287H563.555C558.965 287 555.905 283.94 555.905 279.35V246.2C555.905 241.61 558.965 238.55 563.555 238.55H628.58C633.17 238.55 636.23 241.61 636.23 246.2V279.35C636.23 283.94 633.17 287 628.58 287H623.48C617.36 287 613.28 291.08 613.28 297.2V346.925C613.28 353.045 617.36 357.125 623.48 357.125H628.58C633.17 357.125 636.23 360.185 636.23 364.775V432.35C636.23 436.94 633.17 440 628.58 440H563.555C558.965 440 555.905 436.94 555.905 432.35V364.775C555.905 360.185 558.965 357.125 563.555 357.125H568.655C574.775 357.125 578.855 353.045 578.855 346.925V330.35H530.405V346.925C530.405 353.045 534.485 357.125 540.605 357.125H545.705ZM756.18 404.3C756.18 425.72 741.899 440 720.479 440H674.579C653.159 440 638.879 425.72 638.879 404.3V325.25C638.879 303.83 653.159 289.55 674.579 289.55H720.479C741.899 289.55 756.18 303.83 756.18 325.25V346.925C756.18 351.515 753.119 354.575 748.53 354.575H672.029V357.125H748.53C753.119 357.125 756.18 360.185 756.18 364.775V404.3ZM672.029 335.45V345.65H723.029V335.45C723.029 329.33 718.949 325.25 712.829 325.25H682.229C676.109 325.25 672.029 329.33 672.029 335.45ZM824.96 325.25C818.84 325.25 814.76 329.33 814.76 335.45V346.925C814.76 353.045 818.84 357.125 824.96 357.125H851.735C856.325 357.125 859.385 360.185 859.385 364.775V432.35C859.385 436.94 856.325 440 851.735 440H766.31C761.72 440 758.66 436.94 758.66 432.35V364.775C758.66 360.185 761.72 357.125 766.31 357.125H771.41C777.53 357.125 781.61 353.045 781.61 346.925V335.45C781.61 329.33 777.53 325.25 771.41 325.25H766.31C761.72 325.25 758.66 322.19 758.66 317.6V297.2C758.66 292.61 761.72 289.55 766.31 289.55H804.56C809.15 289.55 812.21 292.61 812.21 297.2V325.25H814.76C814.76 303.83 829.04 289.55 850.46 289.55H851.735C856.325 289.55 859.385 292.61 859.385 297.2V317.6C859.385 322.19 856.325 325.25 851.735 325.25H824.96ZM915.554 297.2V325.25H918.104C918.104 303.83 932.384 289.55 953.804 289.55H961.454C982.109 289.55 997.154 303.83 997.154 323.21V325.25H999.704C999.704 303.83 1013.98 289.55 1035.4 289.55H1045.6C1067.02 289.55 1081.3 303.83 1081.3 325.25V346.925C1081.3 353.045 1085.38 357.125 1091.5 357.125H1096.6C1101.19 357.125 1104.25 360.185 1104.25 364.775V432.35C1104.25 436.94 1101.19 440 1096.6 440H1032.85C1028.26 440 1025.2 436.94 1025.2 432.35V364.775C1025.2 360.185 1028.26 357.125 1032.85 357.125H1037.95C1044.07 357.125 1048.15 353.045 1048.15 346.925V335.45C1048.15 329.33 1044.07 325.25 1037.95 325.25H1009.9C1003.78 325.25 999.704 329.33 999.704 335.45V346.925C999.704 353.045 1003.78 357.125 1009.9 357.125H1015C1019.59 357.125 1022.65 360.185 1022.65 364.775V432.35C1022.65 436.94 1019.59 440 1015 440H951.254C946.664 440 943.604 436.94 943.604 432.35V364.775C943.604 360.185 946.664 357.125 951.254 357.125H956.354C962.474 357.125 966.554 353.045 966.554 346.925V335.45C966.554 329.33 962.474 325.25 956.354 325.25H928.304C922.184 325.25 918.104 329.33 918.104 335.45V346.925C918.104 353.045 922.184 357.125 928.304 357.125H933.404C937.994 357.125 941.054 360.185 941.054 364.775V432.35C941.054 436.94 937.994 440 933.404 440H869.654C865.064 440 862.004 436.94 862.004 432.35V364.775C862.004 360.185 865.064 357.125 869.654 357.125H874.754C880.874 357.125 884.954 353.045 884.954 346.925V335.45C884.954 329.33 880.874 325.25 874.754 325.25H869.654C865.064 325.25 862.004 322.19 862.004 317.6V297.2C862.004 292.61 865.064 289.55 869.654 289.55H907.904C912.494 289.55 915.554 292.61 915.554 297.2ZM1236.84 357.125C1241.43 357.125 1244.49 360.185 1244.49 364.775V432.35C1244.49 436.94 1241.43 440 1236.84 440H1226.64C1205.22 440 1190.94 425.72 1190.94 404.3V373.7H1188.39V404.3C1188.39 425.72 1174.11 440 1152.69 440H1142.49C1121.07 440 1106.79 425.72 1106.79 404.3V325.25C1106.79 303.83 1121.07 289.55 1142.49 289.55H1152.69C1174.11 289.55 1188.39 303.83 1188.39 325.25H1190.94V297.2C1190.94 292.61 1194 289.55 1198.59 289.55H1236.84C1241.43 289.55 1244.49 292.61 1244.49 297.2V317.6C1244.49 322.19 1241.43 325.25 1236.84 325.25H1231.74C1225.62 325.25 1221.54 329.33 1221.54 335.45V346.925C1221.54 353.045 1225.62 357.125 1231.74 357.125H1236.84ZM1188.39 335.45C1188.39 329.33 1184.31 325.25 1178.19 325.25H1150.14C1144.02 325.25 1139.94 329.33 1139.94 335.45V346.925C1139.94 353.045 1144.02 357.125 1150.14 357.125H1178.19C1184.31 357.125 1188.39 353.045 1188.39 346.925V335.45ZM1300.54 297.2V325.25H1303.09C1303.09 303.83 1317.37 289.55 1338.79 289.55H1348.99C1370.41 289.55 1384.69 303.83 1384.69 325.25V346.925C1384.69 353.045 1388.77 357.125 1394.89 357.125H1399.99C1404.58 357.125 1407.64 360.185 1407.64 364.775V432.35C1407.64 436.94 1404.58 440 1399.99 440H1336.24C1331.65 440 1328.59 436.94 1328.59 432.35V364.775C1328.59 360.185 1331.65 357.125 1336.24 357.125H1341.34C1347.46 357.125 1351.54 353.045 1351.54 346.925V335.45C1351.54 329.33 1347.46 325.25 1341.34 325.25H1313.29C1307.17 325.25 1303.09 329.33 1303.09 335.45V346.925C1303.09 353.045 1307.17 357.125 1313.29 357.125H1318.39C1322.98 357.125 1326.04 360.185 1326.04 364.775V432.35C1326.04 436.94 1322.98 440 1318.39 440H1254.64C1250.05 440 1246.99 436.94 1246.99 432.35V364.775C1246.99 360.185 1250.05 357.125 1254.64 357.125H1259.74C1265.86 357.125 1269.94 353.045 1269.94 346.925V335.45C1269.94 329.33 1265.86 325.25 1259.74 325.25H1254.64C1250.05 325.25 1246.99 322.19 1246.99 317.6V297.2C1246.99 292.61 1250.05 289.55 1254.64 289.55H1292.89C1297.48 289.55 1300.54 292.61 1300.54 297.2ZM1540.16 357.125C1544.75 357.125 1547.81 360.185 1547.81 364.775V432.35C1547.81 436.94 1544.75 440 1540.16 440H1529.96C1508.54 440 1494.26 425.72 1494.26 404.3V373.7H1491.71V404.3C1491.71 425.72 1477.43 440 1456.01 440H1445.81C1424.39 440 1410.11 425.72 1410.11 404.3V325.25C1410.11 303.83 1424.39 289.55 1445.81 289.55H1456.01C1477.43 289.55 1491.71 303.83 1491.71 325.25H1494.26V297.2C1494.26 292.61 1497.32 289.55 1501.91 289.55H1540.16C1544.75 289.55 1547.81 292.61 1547.81 297.2V317.6C1547.81 322.19 1544.75 325.25 1540.16 325.25H1535.06C1528.94 325.25 1524.86 329.33 1524.86 335.45V346.925C1524.86 353.045 1528.94 357.125 1535.06 357.125H1540.16ZM1491.71 335.45C1491.71 329.33 1487.63 325.25 1481.51 325.25H1453.46C1447.34 325.25 1443.26 329.33 1443.26 335.45V346.925C1443.26 353.045 1447.34 357.125 1453.46 357.125H1481.51C1487.63 357.125 1491.71 353.045 1491.71 346.925V335.45ZM1642.11 289.55C1646.7 289.55 1649.76 292.61 1649.76 297.2V317.6C1649.76 322.19 1646.7 325.25 1642.11 325.25H1586.01V327.8L1618.14 335.45C1640.83 340.805 1649.76 353.555 1649.76 380.585V404.3C1649.76 425.72 1635.48 440 1614.06 440H1586.01C1564.59 440 1550.31 425.72 1550.31 404.3V364.775C1550.31 360.185 1553.37 357.125 1557.96 357.125H1583.46C1589.58 357.125 1592.13 353.81 1592.13 350.495C1592.13 347.69 1590.09 344.885 1586.77 343.865L1577.59 341.06C1558.98 335.45 1550.31 328.055 1550.31 314.285C1550.31 299.495 1560.25 289.55 1575.04 289.55H1642.11ZM66.3497 550.925C66.3497 557.045 70.4297 561.125 76.5497 561.125H91.8497C97.9697 561.125 102.05 557.045 102.05 550.925V539.45C102.05 534.86 105.11 531.8 109.7 531.8H128.825C133.415 531.8 136.475 534.86 136.475 539.45V636.35C136.475 640.94 133.415 644 128.825 644H104.6C83.1797 644 68.8997 629.72 68.8997 608.3V577.7H66.3497V636.35C66.3497 640.94 63.2897 644 58.6997 644H16.6247C12.0347 644 8.97471 640.94 8.97471 636.35V568.775C8.97471 564.185 12.0347 561.125 16.6247 561.125H21.7247C27.8447 561.125 31.9247 557.045 31.9247 550.925V501.2C31.9247 495.08 27.8447 491 21.7247 491H16.6247C12.0347 491 8.97471 487.94 8.97471 483.35V450.2C8.97471 445.61 12.0347 442.55 16.6247 442.55H89.2997C93.8897 442.55 96.9497 445.61 96.9497 450.2V483.35C96.9497 487.94 93.8897 491 89.2997 491H76.5497C70.4297 491 66.3497 495.08 66.3497 501.2V550.925ZM269.015 561.125C273.605 561.125 276.665 564.185 276.665 568.775V636.35C276.665 640.94 273.605 644 269.015 644H258.815C237.395 644 223.115 629.72 223.115 608.3V577.7H220.565V608.3C220.565 629.72 206.285 644 184.865 644H174.665C153.245 644 138.965 629.72 138.965 608.3V529.25C138.965 507.83 153.245 493.55 174.665 493.55H184.865C206.285 493.55 220.565 507.83 220.565 529.25H223.115V501.2C223.115 496.61 226.175 493.55 230.765 493.55H269.015C273.605 493.55 276.665 496.61 276.665 501.2V521.6C276.665 526.19 273.605 529.25 269.015 529.25H263.915C257.795 529.25 253.715 533.33 253.715 539.45V550.925C253.715 557.045 257.795 561.125 263.915 561.125H269.015ZM220.565 539.45C220.565 533.33 216.485 529.25 210.365 529.25H182.315C176.195 529.25 172.115 533.33 172.115 539.45V550.925C172.115 557.045 176.195 561.125 182.315 561.125H210.365C216.485 561.125 220.565 557.045 220.565 550.925V539.45ZM172.115 471.11L249.125 457.595L250.655 466.265L173.645 479.78L172.115 471.11ZM286.815 493.55H370.965C375.555 493.55 378.615 496.61 378.615 501.2V518.285C378.615 532.055 369.945 539.45 351.33 545.06L342.15 547.865C338.835 548.885 336.795 551.69 336.795 554.495C336.795 557.81 339.345 561.125 345.465 561.125H370.965C375.555 561.125 378.615 564.185 378.615 568.775V636.35C378.615 640.94 375.555 644 370.965 644H286.815C282.225 644 279.165 640.94 279.165 636.35V584.585C279.165 557.555 288.09 544.805 310.785 539.45L342.915 531.8V529.25H286.815C282.225 529.25 279.165 526.19 279.165 521.6V501.2C279.165 496.61 282.225 493.55 286.815 493.55ZM511.315 561.125C515.905 561.125 518.965 564.185 518.965 568.775V636.35C518.965 640.94 515.905 644 511.315 644H501.115C479.695 644 465.415 629.72 465.415 608.3V577.7H462.865V608.3C462.865 629.72 448.585 644 427.165 644H416.965C395.545 644 381.265 629.72 381.265 608.3V529.25C381.265 507.83 395.545 493.55 416.965 493.55H427.165C448.585 493.55 462.865 507.83 462.865 529.25H465.415V501.2C465.415 496.61 468.475 493.55 473.065 493.55H511.315C515.905 493.55 518.965 496.61 518.965 501.2V521.6C518.965 526.19 515.905 529.25 511.315 529.25H506.215C500.095 529.25 496.015 533.33 496.015 539.45V550.925C496.015 557.045 500.095 561.125 506.215 561.125H511.315ZM462.865 539.45C462.865 533.33 458.785 529.25 452.665 529.25H424.615C418.495 529.25 414.415 533.33 414.415 539.45V550.925C414.415 557.045 418.495 561.125 424.615 561.125H452.665C458.785 561.125 462.865 557.045 462.865 550.925V539.45ZM587.765 529.25C581.645 529.25 577.565 533.33 577.565 539.45V550.925C577.565 557.045 581.645 561.125 587.765 561.125H614.54C619.13 561.125 622.19 564.185 622.19 568.775V636.35C622.19 640.94 619.13 644 614.54 644H529.115C524.525 644 521.465 640.94 521.465 636.35V568.775C521.465 564.185 524.525 561.125 529.115 561.125H534.215C540.335 561.125 544.415 557.045 544.415 550.925V539.45C544.415 533.33 540.335 529.25 534.215 529.25H529.115C524.525 529.25 521.465 526.19 521.465 521.6V501.2C521.465 496.61 524.525 493.55 529.115 493.55H567.365C571.955 493.55 575.015 496.61 575.015 501.2V529.25H577.565C577.565 507.83 591.845 493.55 613.265 493.55H614.54C619.13 493.55 622.19 496.61 622.19 501.2V521.6C622.19 526.19 619.13 529.25 614.54 529.25H587.765ZM660.51 644C639.09 644 624.81 629.72 624.81 608.3V529.25C624.81 507.83 639.09 493.55 660.51 493.55H703.86C725.28 493.55 739.56 507.83 739.56 529.25V608.3C739.56 629.72 725.28 644 703.86 644H660.51ZM696.21 561.125C702.33 561.125 706.41 557.045 706.41 550.925V539.45C706.41 533.33 702.33 529.25 696.21 529.25H668.16C662.04 529.25 657.96 533.33 657.96 539.45V550.925C657.96 557.045 662.04 561.125 668.16 561.125H696.21ZM864.569 539.45C864.569 534.86 867.629 531.8 872.219 531.8H891.344C895.934 531.8 898.994 534.86 898.994 539.45V608.3C898.994 629.72 884.714 644 863.294 644H817.394C795.974 644 781.694 629.72 781.694 608.3V478.25C781.694 456.83 795.974 442.55 817.394 442.55H826.319C847.739 442.55 862.019 456.83 862.019 478.25V480.8H864.569V450.2C864.569 445.61 867.629 442.55 872.219 442.55H891.344C895.934 442.55 898.994 445.61 898.994 450.2V516.5C898.994 521.09 895.934 524.15 891.344 524.15H872.219C867.629 524.15 864.569 521.09 864.569 516.5V501.2C864.569 495.08 860.489 491 854.369 491H826.319C820.199 491 816.119 495.08 816.119 501.2V550.925C816.119 557.045 820.199 561.125 826.319 561.125H854.369C860.489 561.125 864.569 557.045 864.569 550.925V539.45ZM1031.52 561.125C1036.11 561.125 1039.17 564.185 1039.17 568.775V636.35C1039.17 640.94 1036.11 644 1031.52 644H1021.32C999.905 644 985.625 629.72 985.625 608.3V577.7H983.075V608.3C983.075 629.72 968.795 644 947.375 644H937.175C915.755 644 901.475 629.72 901.475 608.3V529.25C901.475 507.83 915.755 493.55 937.175 493.55H947.375C968.795 493.55 983.075 507.83 983.075 529.25H985.625V501.2C985.625 496.61 988.685 493.55 993.275 493.55H1031.52C1036.11 493.55 1039.17 496.61 1039.17 501.2V521.6C1039.17 526.19 1036.11 529.25 1031.52 529.25H1026.42C1020.3 529.25 1016.22 533.33 1016.22 539.45V550.925C1016.22 557.045 1020.3 561.125 1026.42 561.125H1031.52ZM983.075 539.45C983.075 533.33 978.995 529.25 972.875 529.25H944.825C938.705 529.25 934.625 533.33 934.625 539.45V550.925C934.625 557.045 938.705 561.125 944.825 561.125H972.875C978.995 561.125 983.075 557.045 983.075 550.925V539.45ZM1095.22 501.2V529.25H1097.77C1097.77 507.83 1112.05 493.55 1133.47 493.55H1143.67C1165.09 493.55 1179.37 507.83 1179.37 529.25V550.925C1179.37 557.045 1183.45 561.125 1189.57 561.125H1194.67C1199.26 561.125 1202.32 564.185 1202.32 568.775V636.35C1202.32 640.94 1199.26 644 1194.67 644H1130.92C1126.33 644 1123.27 640.94 1123.27 636.35V568.775C1123.27 564.185 1126.33 561.125 1130.92 561.125H1136.02C1142.14 561.125 1146.22 557.045 1146.22 550.925V539.45C1146.22 533.33 1142.14 529.25 1136.02 529.25H1107.97C1101.85 529.25 1097.77 533.33 1097.77 539.45V550.925C1097.77 557.045 1101.85 561.125 1107.97 561.125H1113.07C1117.66 561.125 1120.72 564.185 1120.72 568.775V636.35C1120.72 640.94 1117.66 644 1113.07 644H1049.32C1044.73 644 1041.67 640.94 1041.67 636.35V568.775C1041.67 564.185 1044.73 561.125 1049.32 561.125H1054.42C1060.54 561.125 1064.62 557.045 1064.62 550.925V539.45C1064.62 533.33 1060.54 529.25 1054.42 529.25H1049.32C1044.73 529.25 1041.67 526.19 1041.67 521.6V501.2C1041.67 496.61 1044.73 493.55 1049.32 493.55H1087.57C1092.16 493.55 1095.22 496.61 1095.22 501.2ZM1212.48 695C1207.89 695 1204.83 691.94 1204.83 687.35V654.2C1204.83 649.61 1207.89 646.55 1212.48 646.55H1278.78C1284.9 646.55 1288.98 642.47 1288.98 636.35V577.7H1286.43V608.3C1286.43 629.72 1272.15 644 1250.73 644H1240.53C1219.11 644 1204.83 629.72 1204.83 608.3V539.45C1204.83 533.33 1200.75 529.25 1194.63 529.25H1189.53C1184.94 529.25 1181.88 526.19 1181.88 521.6V501.2C1181.88 496.61 1184.94 493.55 1189.53 493.55H1253.28C1257.87 493.55 1260.93 496.61 1260.93 501.2V521.6C1260.93 526.19 1257.87 529.25 1253.28 529.25H1248.18C1242.06 529.25 1237.98 533.33 1237.98 539.45V550.925C1237.98 557.045 1242.06 561.125 1248.18 561.125H1276.23C1282.35 561.125 1286.43 557.045 1286.43 550.925V539.45C1286.43 533.33 1282.35 529.25 1276.23 529.25H1271.13C1266.54 529.25 1263.48 526.19 1263.48 521.6V501.2C1263.48 496.61 1266.54 493.55 1271.13 493.55H1311.93C1316.52 493.55 1319.58 496.61 1319.58 501.2V659.3C1319.58 680.72 1305.3 695 1283.88 695H1212.48ZM1357.78 644C1336.36 644 1322.08 629.72 1322.08 608.3V529.25C1322.08 507.83 1336.36 493.55 1357.78 493.55H1401.13C1422.55 493.55 1436.83 507.83 1436.83 529.25V608.3C1436.83 629.72 1422.55 644 1401.13 644H1357.78ZM1393.48 561.125C1399.6 561.125 1403.68 557.045 1403.68 550.925V539.45C1403.68 533.33 1399.6 529.25 1393.48 529.25H1365.43C1359.31 529.25 1355.23 533.33 1355.23 539.45V550.925C1355.23 557.045 1359.31 561.125 1365.43 561.125H1393.48ZM1492.92 501.2V529.25H1495.47C1495.47 507.83 1509.75 493.55 1531.17 493.55H1541.37C1562.79 493.55 1577.07 507.83 1577.07 529.25V550.925C1577.07 557.045 1581.15 561.125 1587.27 561.125H1592.37C1596.96 561.125 1600.02 564.185 1600.02 568.775V636.35C1600.02 640.94 1596.96 644 1592.37 644H1528.62C1524.03 644 1520.97 640.94 1520.97 636.35V568.775C1520.97 564.185 1524.03 561.125 1528.62 561.125H1533.72C1539.84 561.125 1543.92 557.045 1543.92 550.925V539.45C1543.92 533.33 1539.84 529.25 1533.72 529.25H1505.67C1499.55 529.25 1495.47 533.33 1495.47 539.45V550.925C1495.47 557.045 1499.55 561.125 1505.67 561.125H1510.77C1515.36 561.125 1518.42 564.185 1518.42 568.775V636.35C1518.42 640.94 1515.36 644 1510.77 644H1447.02C1442.43 644 1439.37 640.94 1439.37 636.35V568.775C1439.37 564.185 1442.43 561.125 1447.02 561.125H1452.12C1458.24 561.125 1462.32 557.045 1462.32 550.925V539.45C1462.32 533.33 1458.24 529.25 1452.12 529.25H1447.02C1442.43 529.25 1439.37 526.19 1439.37 521.6V501.2C1439.37 496.61 1442.43 493.55 1447.02 493.55H1485.27C1489.86 493.55 1492.92 496.61 1492.92 501.2ZM1694.28 493.55C1698.87 493.55 1701.93 496.61 1701.93 501.2V521.6C1701.93 526.19 1698.87 529.25 1694.28 529.25H1638.18V531.8L1670.31 539.45C1693 544.805 1701.93 557.555 1701.93 584.585V608.3C1701.93 629.72 1687.65 644 1666.23 644H1638.18C1616.76 644 1602.48 629.72 1602.48 608.3V568.775C1602.48 564.185 1605.54 561.125 1610.13 561.125H1635.63C1641.75 561.125 1644.3 557.81 1644.3 554.495C1644.3 551.69 1642.26 548.885 1638.94 547.865L1629.76 545.06C1611.15 539.45 1602.48 532.055 1602.48 518.285C1602.48 503.495 1612.42 493.55 1627.21 493.55H1694.28ZM74.4679 682.25C74.4679 662.105 87.4729 646.55 110.168 646.55H119.093C140.513 646.55 154.793 660.83 154.793 682.25V684.8H157.343V654.2C157.343 649.61 160.403 646.55 164.993 646.55H184.118C188.708 646.55 191.768 649.61 191.768 654.2V711.575C191.768 716.165 188.708 719.225 184.118 719.225H164.993C160.403 719.225 157.343 716.165 157.343 711.575V705.2C157.343 699.08 153.263 695 147.143 695H115.778C111.953 695 110.168 696.785 110.168 700.61C110.168 706.475 113.993 709.025 141.788 716.93C181.568 728.405 191.768 738.605 191.768 763.34V812.3C191.768 833.72 177.488 848 156.068 848H110.168C88.4929 848 74.4679 834.485 74.4679 812.3V749.57C74.4679 744.98 77.5279 741.92 82.1179 741.92H101.243C105.833 741.92 108.893 744.98 108.893 749.57V754.925C108.893 761.045 112.973 765.125 119.093 765.125H146.888C151.988 765.125 154.028 762.83 154.028 758.75C154.028 753.395 150.713 749.315 121.643 741.155C92.5729 732.995 74.4679 726.11 74.4679 701.885V682.25ZM324.298 765.125C328.888 765.125 331.948 768.185 331.948 772.775V840.35C331.948 844.94 328.888 848 324.298 848H314.098C292.678 848 278.398 833.72 278.398 812.3V781.7H275.848V812.3C275.848 833.72 261.568 848 240.148 848H229.948C208.528 848 194.248 833.72 194.248 812.3V733.25C194.248 711.83 208.528 697.55 229.948 697.55H240.148C261.568 697.55 275.848 711.83 275.848 733.25H278.398V705.2C278.398 700.61 281.458 697.55 286.048 697.55H324.298C328.888 697.55 331.948 700.61 331.948 705.2V725.6C331.948 730.19 328.888 733.25 324.298 733.25H319.198C313.078 733.25 308.998 737.33 308.998 743.45V754.925C308.998 761.045 313.078 765.125 319.198 765.125H324.298ZM275.848 743.45C275.848 737.33 271.768 733.25 265.648 733.25H237.598C231.478 733.25 227.398 737.33 227.398 743.45V754.925C227.398 761.045 231.478 765.125 237.598 765.125H265.648C271.768 765.125 275.848 761.045 275.848 754.925V743.45ZM387.998 705.2V733.25H390.548C390.548 711.83 404.828 697.55 426.248 697.55H436.448C457.868 697.55 472.148 711.83 472.148 733.25V754.925C472.148 761.045 476.228 765.125 482.348 765.125H487.448C492.038 765.125 495.098 768.185 495.098 772.775V840.35C495.098 844.94 492.038 848 487.448 848H423.698C419.108 848 416.048 844.94 416.048 840.35V772.775C416.048 768.185 419.108 765.125 423.698 765.125H428.798C434.918 765.125 438.998 761.045 438.998 754.925V743.45C438.998 737.33 434.918 733.25 428.798 733.25H400.748C394.628 733.25 390.548 737.33 390.548 743.45V754.925C390.548 761.045 394.628 765.125 400.748 765.125H405.848C410.438 765.125 413.498 768.185 413.498 772.775V840.35C413.498 844.94 410.438 848 405.848 848H342.098C337.508 848 334.448 844.94 334.448 840.35V772.775C334.448 768.185 337.508 765.125 342.098 765.125H347.198C353.318 765.125 357.398 761.045 357.398 754.925V743.45C357.398 737.33 353.318 733.25 347.198 733.25H342.098C337.508 733.25 334.448 730.19 334.448 725.6V705.2C334.448 700.61 337.508 697.55 342.098 697.55H380.348C384.938 697.55 387.998 700.61 387.998 705.2ZM660.828 765.125C665.418 765.125 668.478 768.185 668.478 772.775V840.35C668.478 844.94 665.418 848 660.828 848H647.313C625.893 848 611.613 833.72 611.613 812.3V781.7H609.063V812.3C609.063 833.72 595.038 848 573.108 848H572.853C551.433 848 537.153 833.72 537.153 812.3V682.25C537.153 660.83 551.433 646.55 572.853 646.55H660.828C665.418 646.55 668.478 649.61 668.478 654.2V687.35C668.478 691.94 665.418 695 660.828 695H581.778C575.658 695 571.578 699.08 571.578 705.2V754.925C571.578 761.045 575.658 765.125 581.778 765.125H600.903C607.023 765.125 611.103 761.045 611.103 754.925V748.55C611.103 742.43 607.023 738.35 600.903 738.35H592.233C587.643 738.35 584.583 735.29 584.583 730.7V723.05C584.583 718.46 587.643 715.4 592.233 715.4H660.828C665.418 715.4 668.478 718.46 668.478 723.05V730.7C668.478 735.29 665.418 738.35 660.828 738.35H655.728C649.608 738.35 645.528 742.43 645.528 748.55V754.925C645.528 761.045 649.608 765.125 655.728 765.125H660.828ZM755.278 812.3V781.7H752.728V812.3C752.728 833.72 738.448 848 717.028 848H706.828C685.408 848 671.128 833.72 671.128 812.3V705.2C671.128 700.61 674.188 697.55 678.778 697.55H719.578C724.168 697.55 727.228 700.61 727.228 705.2V725.6C727.228 730.19 724.168 733.25 719.578 733.25H714.478C708.358 733.25 704.278 737.33 704.278 743.45V754.925C704.278 761.045 708.358 765.125 714.478 765.125H742.528C748.648 765.125 752.728 761.045 752.728 754.925V743.45C752.728 737.33 748.648 733.25 742.528 733.25H737.428C732.838 733.25 729.778 730.19 729.778 725.6V705.2C729.778 700.61 732.838 697.55 737.428 697.55H801.178C805.768 697.55 808.828 700.61 808.828 705.2V725.6C808.828 730.19 805.768 733.25 801.178 733.25H796.078C789.958 733.25 785.878 737.33 785.878 743.45V754.925C785.878 761.045 789.958 765.125 796.078 765.125H801.178C805.768 765.125 808.828 768.185 808.828 772.775V840.35C808.828 844.94 805.768 848 801.178 848H790.978C769.558 848 755.278 833.72 755.278 812.3ZM859.778 646.55C864.368 646.55 867.428 649.61 867.428 654.2V687.35C867.428 691.94 864.368 695 859.778 695H841.928C837.338 695 834.278 691.94 834.278 687.35V654.2C834.278 649.61 837.338 646.55 841.928 646.55H859.778ZM818.978 733.25C814.388 733.25 811.328 730.19 811.328 725.6V705.2C811.328 700.61 814.388 697.55 818.978 697.55H882.728C887.318 697.55 890.378 700.61 890.378 705.2V725.6C890.378 730.19 887.318 733.25 882.728 733.25H877.628C871.508 733.25 867.428 737.33 867.428 743.45V754.925C867.428 761.045 871.508 765.125 877.628 765.125H882.728C887.318 765.125 890.378 768.185 890.378 772.775V840.35C890.378 844.94 887.318 848 882.728 848H818.978C814.388 848 811.328 844.94 811.328 840.35V772.775C811.328 768.185 814.388 765.125 818.978 765.125H824.078C830.198 765.125 834.278 761.045 834.278 754.925V743.45C834.278 737.33 830.198 733.25 824.078 733.25H818.978ZM949.108 754.925C949.108 761.045 953.188 765.125 959.308 765.125H963.133C967.723 765.125 970.783 768.185 970.783 772.775V840.35C970.783 844.94 967.723 848 963.133 848H900.658C896.068 848 893.008 844.94 893.008 840.35V772.775C893.008 768.185 896.068 765.125 900.658 765.125H904.483C910.603 765.125 914.683 761.045 914.683 754.925V705.2C914.683 699.08 910.603 695 904.483 695H900.658C896.068 695 893.008 691.94 893.008 687.35V654.2C893.008 649.61 896.068 646.55 900.658 646.55H913.408C934.828 646.55 949.108 660.83 949.108 682.25V754.925ZM1029.54 754.925C1029.54 761.045 1033.62 765.125 1039.74 765.125H1043.57C1048.16 765.125 1051.22 768.185 1051.22 772.775V840.35C1051.22 844.94 1048.16 848 1043.57 848H981.092C976.502 848 973.442 844.94 973.442 840.35V772.775C973.442 768.185 976.502 765.125 981.092 765.125H984.917C991.037 765.125 995.117 761.045 995.117 754.925V705.2C995.117 699.08 991.037 695 984.917 695H981.092C976.502 695 973.442 691.94 973.442 687.35V654.2C973.442 649.61 976.502 646.55 981.092 646.55H993.842C1015.26 646.55 1029.54 660.83 1029.54 682.25V754.925ZM1171.18 812.3C1171.18 833.72 1156.9 848 1135.48 848H1089.58C1068.16 848 1053.88 833.72 1053.88 812.3V733.25C1053.88 711.83 1068.16 697.55 1089.58 697.55H1135.48C1156.9 697.55 1171.18 711.83 1171.18 733.25V754.925C1171.18 759.515 1168.12 762.575 1163.53 762.575H1087.03V765.125H1163.53C1168.12 765.125 1171.18 768.185 1171.18 772.775V812.3ZM1087.03 743.45V753.65H1138.03V743.45C1138.03 737.33 1133.95 733.25 1127.83 733.25H1097.23C1091.11 733.25 1087.03 737.33 1087.03 743.45ZM1239.96 733.25C1233.84 733.25 1229.76 737.33 1229.76 743.45V754.925C1229.76 761.045 1233.84 765.125 1239.96 765.125H1266.73C1271.32 765.125 1274.38 768.185 1274.38 772.775V840.35C1274.38 844.94 1271.32 848 1266.73 848H1181.31C1176.72 848 1173.66 844.94 1173.66 840.35V772.775C1173.66 768.185 1176.72 765.125 1181.31 765.125H1186.41C1192.53 765.125 1196.61 761.045 1196.61 754.925V743.45C1196.61 737.33 1192.53 733.25 1186.41 733.25H1181.31C1176.72 733.25 1173.66 730.19 1173.66 725.6V705.2C1173.66 700.61 1176.72 697.55 1181.31 697.55H1219.56C1224.15 697.55 1227.21 700.61 1227.21 705.2V733.25H1229.76C1229.76 711.83 1244.04 697.55 1265.46 697.55H1266.73C1271.32 697.55 1274.38 700.61 1274.38 705.2V725.6C1274.38 730.19 1271.32 733.25 1266.73 733.25H1239.96ZM1330.55 705.2V733.25H1333.1C1333.1 711.83 1347.38 697.55 1368.8 697.55H1376.45C1397.11 697.55 1412.15 711.83 1412.15 731.21V733.25H1414.7C1414.7 711.83 1428.98 697.55 1450.4 697.55H1460.6C1482.02 697.55 1496.3 711.83 1496.3 733.25V754.925C1496.3 761.045 1500.38 765.125 1506.5 765.125H1511.6C1516.19 765.125 1519.25 768.185 1519.25 772.775V840.35C1519.25 844.94 1516.19 848 1511.6 848H1447.85C1443.26 848 1440.2 844.94 1440.2 840.35V772.775C1440.2 768.185 1443.26 765.125 1447.85 765.125H1452.95C1459.07 765.125 1463.15 761.045 1463.15 754.925V743.45C1463.15 737.33 1459.07 733.25 1452.95 733.25H1424.9C1418.78 733.25 1414.7 737.33 1414.7 743.45V754.925C1414.7 761.045 1418.78 765.125 1424.9 765.125H1430C1434.59 765.125 1437.65 768.185 1437.65 772.775V840.35C1437.65 844.94 1434.59 848 1430 848H1366.25C1361.66 848 1358.6 844.94 1358.6 840.35V772.775C1358.6 768.185 1361.66 765.125 1366.25 765.125H1371.35C1377.47 765.125 1381.55 761.045 1381.55 754.925V743.45C1381.55 737.33 1377.47 733.25 1371.35 733.25H1343.3C1337.18 733.25 1333.1 737.33 1333.1 743.45V754.925C1333.1 761.045 1337.18 765.125 1343.3 765.125H1348.4C1352.99 765.125 1356.05 768.185 1356.05 772.775V840.35C1356.05 844.94 1352.99 848 1348.4 848H1284.65C1280.06 848 1277 844.94 1277 840.35V772.775C1277 768.185 1280.06 765.125 1284.65 765.125H1289.75C1295.87 765.125 1299.95 761.045 1299.95 754.925V743.45C1299.95 737.33 1295.87 733.25 1289.75 733.25H1284.65C1280.06 733.25 1277 730.19 1277 725.6V705.2C1277 700.61 1280.06 697.55 1284.65 697.55H1322.9C1327.49 697.55 1330.55 700.61 1330.55 705.2ZM1557.49 848C1536.07 848 1521.79 833.72 1521.79 812.3V733.25C1521.79 711.83 1536.07 697.55 1557.49 697.55H1600.84C1622.26 697.55 1636.54 711.83 1636.54 733.25V812.3C1636.54 833.72 1622.26 848 1600.84 848H1557.49ZM1593.19 765.125C1599.31 765.125 1603.39 761.045 1603.39 754.925V743.45C1603.39 737.33 1599.31 733.25 1593.19 733.25H1565.14C1559.02 733.25 1554.94 737.33 1554.94 743.45V754.925C1554.94 761.045 1559.02 765.125 1565.14 765.125H1593.19Z" fill="#997A4F"/>
</svg>
