<svg width="1710" height="1005" viewBox="0 0 1710 1005" fill="none" xmlns="http://www.w3.org/2000/svg">
<rect width="1710" height="1005" fill="black"/>
<path d="M69.0306 312.712C29.8756 312.712 10.7756 296.668 10.5846 264.771H50.8856C51.4586 273.748 56.9976 277.95 69.6036 277.95C79.5356 277.95 84.3106 275.276 84.3106 269.737C84.3106 265.535 81.6366 263.625 75.7156 262.479L48.0206 256.749C23.1906 251.592 13.4496 236.885 13.4496 217.403C13.4496 189.899 34.0776 174.81 68.4576 174.81C101.31 174.81 122.129 188.944 123.466 217.785H85.0746C84.1196 210.909 77.4346 206.898 67.5026 206.898C59.2896 206.898 54.5146 209.19 54.5146 214.156C54.5146 217.212 56.0426 219.695 63.4916 221.223L88.3216 225.998C116.208 231.346 126.904 244.907 126.904 267.445C126.904 297.241 105.894 312.712 69.0306 312.712ZM233.864 207.28V309.656H194.327V297.241H193.945C186.687 308.51 177.71 311.566 166.059 311.566C144.285 311.566 132.634 300.106 132.634 276.995V207.28H174.272V265.917C174.272 273.175 177.71 276.613 182.867 276.613C188.979 276.613 192.226 272.602 192.226 265.917V207.28H233.864ZM242.687 345.946V207.28H282.224V219.695H282.606C289.673 209.572 297.313 205.37 310.301 205.37C334.94 205.37 351.175 220.268 351.175 258.468C351.175 296.286 335.131 311.566 311.829 311.566C300.56 311.566 291.201 307.746 284.707 299.342H284.325V345.946H242.687ZM295.403 278.905C304.571 278.905 308.964 271.838 308.964 258.468C308.964 245.289 304.762 238.222 295.403 238.222C288.718 238.222 283.752 242.615 283.752 250.828V266.108C283.752 274.13 288.718 278.905 295.403 278.905ZM408.396 311.566C372.87 311.566 354.916 296.859 354.916 258.468C354.916 220.077 373.252 205.37 408.969 205.37C450.034 205.37 463.213 225.616 460.157 266.872H394.644C395.599 278.714 399.61 283.489 409.16 283.489C416.036 283.489 421.193 280.624 422.148 273.366H459.393C456.528 299.724 440.293 311.566 408.396 311.566ZM395.599 244.525L395.408 245.289H422.912C422.148 237.076 417.373 233.256 409.733 233.256C402.093 233.256 397.7 236.694 395.599 244.525ZM466.702 309.656V207.28H502.801V219.695H503.183C509.868 209.572 516.553 207.28 527.631 207.28H532.788V245.671H518.845C512.351 245.671 508.34 248.345 508.34 253.502V309.656H466.702ZM589.137 311.566C553.611 311.566 535.657 296.859 535.657 258.468C535.657 220.077 553.993 205.37 589.71 205.37C630.775 205.37 643.954 225.616 640.898 266.872H575.385C576.34 278.714 580.351 283.489 589.901 283.489C596.777 283.489 601.934 280.624 602.889 273.366H640.134C637.269 299.724 621.034 311.566 589.137 311.566ZM576.34 244.525L576.149 245.289H603.653C602.889 237.076 598.114 233.256 590.474 233.256C582.834 233.256 578.441 236.694 576.34 244.525ZM647.443 309.656V168.316H689.081V309.656H647.443ZM697.804 309.656V168.316H739.442V309.656H697.804ZM768.984 202.123C752.749 202.123 745.873 195.438 745.873 182.832C745.873 170.035 752.749 163.35 768.984 163.35C785.219 163.35 792.095 170.035 792.095 182.832C792.095 195.629 785.219 202.123 768.984 202.123ZM748.165 309.656V207.28H789.803V309.656H748.165ZM798.527 345.946V207.28H838.064V219.695H838.446C845.513 209.572 853.153 205.37 866.141 205.37C890.78 205.37 907.015 220.268 907.015 258.468C907.015 296.286 890.971 311.566 867.669 311.566C856.4 311.566 847.041 307.746 840.547 299.342H840.165V345.946H798.527ZM851.243 278.905C860.411 278.905 864.804 271.838 864.804 258.468C864.804 245.289 860.602 238.222 851.243 238.222C844.558 238.222 839.592 242.615 839.592 250.828V266.108C839.592 274.13 844.558 278.905 851.243 278.905ZM960.505 309.656C931.855 309.656 920.395 297.623 920.395 269.737V238.986H907.025V207.28H920.395V182.832H962.033V207.28H979.796V238.986H962.033V266.108C962.033 274.894 964.898 277.95 973.111 277.95H978.268V309.656H960.505ZM1006.99 202.123C990.753 202.123 983.877 195.438 983.877 182.832C983.877 170.035 990.753 163.35 1006.99 163.35C1023.22 163.35 1030.1 170.035 1030.1 182.832C1030.1 195.629 1023.22 202.123 1006.99 202.123ZM986.169 309.656V207.28H1027.81V309.656H986.169ZM1086.95 311.566C1049.71 311.566 1034.05 295.713 1034.05 258.468C1034.05 221.223 1049.71 205.37 1086.95 205.37C1121.53 205.37 1136.81 219.504 1138.33 249.682H1097.65C1097.27 242.233 1094.4 238.222 1087.15 238.222C1078.74 238.222 1076.07 243.761 1076.07 258.468C1076.07 273.175 1078.74 279.096 1087.15 279.096C1093.83 279.096 1097.65 275.276 1097.84 265.535H1139.1C1137.57 298.005 1121.53 311.566 1086.95 311.566ZM1238.76 312.712C1194.07 312.712 1171.72 290.174 1171.72 243.761C1171.72 197.348 1194.07 174.81 1238.76 174.81C1279.63 174.81 1301.41 194.865 1303.13 235.739H1260.15C1259.39 221.987 1254.04 211.864 1239.14 211.864C1223.86 211.864 1216.41 221.987 1216.41 243.761C1216.41 266.299 1223.29 275.658 1239.14 275.658C1253.47 275.658 1259.77 267.445 1260.34 251.019H1303.13C1301.79 291.702 1280.02 312.712 1238.76 312.712ZM1410.83 207.28V309.656H1371.29V297.241H1370.91C1363.65 308.51 1354.67 311.566 1343.02 311.566C1321.25 311.566 1309.6 300.106 1309.6 276.995V207.28H1351.23V265.917C1351.23 273.175 1354.67 276.613 1359.83 276.613C1365.94 276.613 1369.19 272.602 1369.19 265.917V207.28H1410.83ZM1419.65 309.656V207.28H1455.75V219.695H1456.13C1462.82 209.572 1469.5 207.28 1480.58 207.28H1485.74V245.671H1471.79C1465.3 245.671 1461.29 248.345 1461.29 253.502V309.656H1419.65ZM1512.65 309.656L1487.63 207.28H1530.6L1542.64 270.883H1543.02L1555.05 207.28H1597.45L1572.24 309.656H1512.65ZM1648.03 311.566C1612.5 311.566 1594.55 296.859 1594.55 258.468C1594.55 220.077 1612.89 205.37 1648.6 205.37C1689.67 205.37 1702.85 225.616 1699.79 266.872H1634.28C1635.23 278.714 1639.24 283.489 1648.79 283.489C1655.67 283.489 1660.83 280.624 1661.78 273.366H1699.03C1696.16 299.724 1679.93 311.566 1648.03 311.566ZM1635.23 244.525L1635.04 245.289H1662.55C1661.78 237.076 1657.01 233.256 1649.37 233.256C1641.73 233.256 1637.33 236.694 1635.23 244.525ZM8.72687 481.656L14.4569 454.534H33.1749L49.7919 376.988H30.8829L36.6129 349.866H105.564L99.8339 376.988H80.9249L64.3079 454.534H83.4079L77.6779 481.656H8.72687ZM89.3677 481.656L110.951 380.617H139.219L136.736 392.077H137.118C144.567 382.909 154.69 378.707 166.341 378.707C188.115 378.707 200.339 390.931 194.8 417.098L181.048 481.656H151.443L164.24 421.682C166.723 409.649 160.611 404.492 150.488 404.492C139.41 404.492 134.062 410.222 132.152 419.963L118.973 481.656H89.3677ZM240.447 481.656C215.808 481.656 205.112 471.342 210.46 445.748L219.437 404.301H204.539L209.505 380.617H224.403L229.751 355.787H259.356L254.008 380.617H275.591L270.434 404.301H249.042L240.447 444.793C238.346 454.534 241.02 457.972 250.57 457.972H257.637L252.48 481.656H240.447ZM308.919 483.566C275.685 483.566 260.596 465.039 268.809 426.839C276.067 393.223 295.358 378.707 326.3 378.707C361.253 378.707 374.241 398.762 363.163 436.771H295.931C293.639 453.961 298.796 461.792 312.739 461.792C323.244 461.792 329.356 457.399 332.985 447.849H360.107C352.467 472.297 336.805 483.566 308.919 483.566ZM323.435 400.099C311.784 400.099 304.717 406.211 300.133 418.817H339.479C340.816 406.975 335.277 400.099 323.435 400.099ZM365.049 481.656L386.632 380.617H412.99L410.316 392.65H410.698C418.338 383.864 426.169 380.617 437.438 380.617H442.595L436.483 408.312H426.742C416.046 408.312 409.17 412.896 407.26 422.446L394.654 481.656H365.049ZM430.706 481.656L452.289 380.617H480.557L478.074 392.077H478.456C485.905 382.909 496.028 378.707 507.679 378.707C529.453 378.707 541.677 390.931 536.138 417.098L522.386 481.656H492.781L505.578 421.682C508.061 409.649 501.949 404.492 491.826 404.492C480.748 404.492 475.4 410.222 473.49 419.963L460.311 481.656H430.706ZM569.316 483.566C548.306 483.566 534.936 470.769 539.329 449.95C542.958 432.187 556.901 423.401 580.394 423.401H609.044L610.19 417.289C612.673 405.447 606.752 400.863 595.865 400.863C586.506 400.863 580.585 404.683 577.72 414.042H550.598C556.71 390.167 572.372 378.707 599.112 378.707C629.863 378.707 644.761 391.886 638.649 420.345L625.661 481.656H597.202L599.303 471.342H598.921C592.427 479.364 582.304 483.566 569.316 483.566ZM583.259 462.556C594.337 462.556 601.977 456.253 604.078 445.748L605.415 439.827H586.124C576.192 439.827 570.462 443.456 569.125 449.568C567.597 457.017 571.799 462.556 583.259 462.556ZM685.119 481.656C660.48 481.656 649.784 471.342 655.132 445.748L664.109 404.301H649.211L654.177 380.617H669.075L674.423 355.787H704.028L698.68 380.617H720.263L715.106 404.301H693.714L685.119 444.793C683.018 454.534 685.692 457.972 695.242 457.972H702.309L697.152 481.656H685.119ZM748.167 371.067C735.179 371.067 730.786 364.955 733.078 354.45C735.179 344.327 741.291 340.125 752.178 340.125C765.166 340.125 769.75 346.237 767.458 356.742C765.357 366.865 759.054 371.067 748.167 371.067ZM708.63 481.656L730.213 380.617H759.627L738.235 481.656H708.63ZM804.206 483.566C767.725 483.566 753.4 464.084 761.422 426.266C768.68 392.459 787.589 378.707 816.43 378.707C852.72 378.707 867.045 398.189 859.214 436.007C851.956 469.814 833.047 483.566 804.206 483.566ZM806.116 459.309C817.385 459.309 825.025 452.242 829.227 432.951C833.429 413.087 829.609 403.155 814.52 403.155C803.06 403.155 795.42 410.222 791.409 429.322C787.207 449.377 791.218 459.309 806.116 459.309ZM860.642 481.656L882.225 380.617H910.493L908.01 392.077H908.392C915.841 382.909 925.964 378.707 937.615 378.707C959.389 378.707 971.613 390.931 966.074 417.098L952.322 481.656H922.717L935.514 421.682C937.997 409.649 931.885 404.492 921.762 404.492C910.684 404.492 905.336 410.222 903.426 419.963L890.247 481.656H860.642ZM999.253 483.566C978.243 483.566 964.873 470.769 969.266 449.95C972.895 432.187 986.838 423.401 1010.33 423.401H1038.98L1040.13 417.289C1042.61 405.447 1036.69 400.863 1025.8 400.863C1016.44 400.863 1010.52 404.683 1007.66 414.042H980.535C986.647 390.167 1002.31 378.707 1029.05 378.707C1059.8 378.707 1074.7 391.886 1068.59 420.345L1055.6 481.656H1027.14L1029.24 471.342H1028.86C1022.36 479.364 1012.24 483.566 999.253 483.566ZM1013.2 462.556C1024.27 462.556 1031.91 456.253 1034.01 445.748L1035.35 439.827H1016.06C1006.13 439.827 1000.4 443.456 999.062 449.568C997.534 457.017 1001.74 462.556 1013.2 462.556ZM1105.26 481.656C1082.53 481.656 1072.22 471.342 1077.57 445.748L1099.91 340.316H1129.52L1107.55 443.456C1105.64 452.433 1107.36 455.871 1114.81 455.871H1117.1L1111.56 481.656H1105.26ZM1160.2 371.067C1147.21 371.067 1142.82 364.955 1145.11 354.45C1147.21 344.327 1153.32 340.125 1164.21 340.125C1177.2 340.125 1181.78 346.237 1179.49 356.742C1177.39 366.865 1171.08 371.067 1160.2 371.067ZM1120.66 481.656L1142.24 380.617H1171.66L1150.27 481.656H1120.66ZM1209.36 483.566C1180.14 483.566 1164.67 471.915 1167.91 449.186H1195.23C1194.27 458.354 1200.57 462.747 1212.03 462.747C1221.97 462.747 1227.31 459.691 1228.84 453.197C1229.8 447.849 1227.7 444.22 1219.87 442.31L1203.25 438.681C1183.96 434.479 1175.94 423.401 1179.37 407.166C1183.38 389.021 1198.47 378.898 1224.83 378.898C1252.14 378.898 1266.66 390.167 1264.37 410.986H1238.01C1238.01 403.346 1232.85 399.335 1222.73 399.335C1213.75 399.335 1208.79 402.2 1207.45 407.548C1206.5 412.514 1208.79 415.761 1216.43 417.48L1231.13 420.727C1252.72 425.12 1261.31 435.816 1257.49 453.961C1253.1 473.825 1236.86 483.566 1209.36 483.566ZM1295.64 483.566C1274.63 483.566 1261.26 470.769 1265.65 449.95C1269.28 432.187 1283.22 423.401 1306.72 423.401H1335.37L1336.51 417.289C1339 405.447 1333.07 400.863 1322.19 400.863C1312.83 400.863 1306.91 404.683 1304.04 414.042H1276.92C1283.03 390.167 1298.69 378.707 1325.43 378.707C1356.19 378.707 1371.08 391.886 1364.97 420.345L1351.98 481.656H1323.52L1325.63 471.342H1325.24C1318.75 479.364 1308.63 483.566 1295.64 483.566ZM1309.58 462.556C1320.66 462.556 1328.3 456.253 1330.4 445.748L1331.74 439.827H1312.45C1302.51 439.827 1296.78 443.456 1295.45 449.568C1293.92 457.017 1298.12 462.556 1309.58 462.556ZM1411.44 481.656C1386.8 481.656 1376.11 471.342 1381.45 445.748L1390.43 404.301H1375.53L1380.5 380.617H1395.4L1400.75 355.787H1430.35L1425 380.617H1446.59L1441.43 404.301H1420.04L1411.44 444.793C1409.34 454.534 1412.01 457.972 1421.56 457.972H1428.63L1423.47 481.656H1411.44ZM1474.49 371.067C1461.5 371.067 1457.11 364.955 1459.4 354.45C1461.5 344.327 1467.61 340.125 1478.5 340.125C1491.49 340.125 1496.07 346.237 1493.78 356.742C1491.68 366.865 1485.38 371.067 1474.49 371.067ZM1434.95 481.656L1456.54 380.617H1485.95L1464.56 481.656H1434.95ZM1530.53 483.566C1494.05 483.566 1479.72 464.084 1487.74 426.266C1495 392.459 1513.91 378.707 1542.75 378.707C1579.04 378.707 1593.37 398.189 1585.54 436.007C1578.28 469.814 1559.37 483.566 1530.53 483.566ZM1532.44 459.309C1543.71 459.309 1551.35 452.242 1555.55 432.951C1559.75 413.087 1555.93 403.155 1540.84 403.155C1529.38 403.155 1521.74 410.222 1517.73 429.322C1513.53 449.377 1517.54 459.309 1532.44 459.309ZM1586.96 481.656L1608.55 380.617H1636.82L1634.33 392.077H1634.71C1642.16 382.909 1652.29 378.707 1663.94 378.707C1685.71 378.707 1697.94 390.931 1692.4 417.098L1678.64 481.656H1649.04L1661.84 421.682C1664.32 409.649 1658.21 404.492 1648.08 404.492C1637.01 404.492 1631.66 410.222 1629.75 419.963L1616.57 481.656H1586.96ZM7.77336 653.656L47.6924 521.866H78.0614L117.789 653.656H96.9704L87.8024 622.714H37.1874L28.0194 653.656H7.77336ZM62.3994 536.191L42.1534 605.524H82.8364L62.5904 536.191H62.3994ZM128.664 653.656V553.954H146.427V568.279H146.809C151.966 558.347 158.842 553.954 170.493 553.954H175.459V571.908H168.392C154.067 571.908 147.382 578.211 147.382 591.772V653.656H128.664ZM226.637 655.566C197.032 655.566 180.606 637.421 180.606 603.805C180.606 570.189 197.032 552.044 226.637 552.044C253.759 552.044 267.511 566.942 268.657 588.716H250.13C248.793 575.537 240.962 568.852 226.637 568.852C208.683 568.852 200.661 580.121 200.661 603.805C200.661 627.489 208.683 638.758 226.637 638.758C240.962 638.758 249.175 632.264 250.512 618.512H269.039C268.084 640.859 253.759 655.566 226.637 655.566ZM284.42 653.656V512.316H302.947V567.897H303.329C309.25 557.201 319.182 552.044 333.889 552.044C356.045 552.044 367.314 563.504 367.314 585.851V653.656H348.596V590.817C348.596 576.301 341.529 569.425 326.822 569.425C311.351 569.425 302.947 577.065 302.947 590.817V653.656H284.42ZM396.363 540.202C388.15 540.202 383.948 536.382 383.948 528.36C383.948 520.147 388.15 516.327 396.363 516.327C404.767 516.327 408.969 520.147 408.969 528.36C408.969 536.382 404.767 540.202 396.363 540.202ZM387.195 653.656V553.954H405.722V653.656H387.195ZM466.857 653.656C444.128 653.656 435.151 644.87 435.151 622.905V570.38H418.916V553.954H435.151V528.551H453.869V553.954H478.699V570.38H453.869V622.905C453.869 633.601 457.88 637.23 468.576 637.23H477.362V653.656H466.857ZM529.165 655.566C499.751 655.566 483.707 637.421 483.707 603.805C483.707 570.189 500.324 552.044 530.311 552.044C559.534 552.044 575.96 569.043 571.949 606.67H502.807C503.571 629.208 511.975 639.522 529.738 639.522C543.49 639.522 551.512 633.792 553.804 622.141H571.758C569.275 643.151 553.422 655.566 529.165 655.566ZM503.571 591.581V592.345H554.186C553.804 576.492 545.591 567.515 529.929 567.515C514.84 567.515 506.245 575.728 503.571 591.581ZM629.901 655.566C600.296 655.566 583.87 637.421 583.87 603.805C583.87 570.189 600.296 552.044 629.901 552.044C657.023 552.044 670.775 566.942 671.921 588.716H653.394C652.057 575.537 644.226 568.852 629.901 568.852C611.947 568.852 603.925 580.121 603.925 603.805C603.925 627.489 611.947 638.758 629.901 638.758C644.226 638.758 652.439 632.264 653.776 618.512H672.303C671.348 640.859 657.023 655.566 629.901 655.566ZM725.378 653.656C702.649 653.656 693.672 644.87 693.672 622.905V570.38H677.437V553.954H693.672V528.551H712.39V553.954H737.22V570.38H712.39V622.905C712.39 633.601 716.401 637.23 727.097 637.23H735.883V653.656H725.378ZM832.486 553.954V653.656H814.341V639.713H813.959C807.274 651.173 796.769 655.566 783.017 655.566C760.479 655.566 749.592 644.106 749.592 621.759V553.954H768.31V616.793C768.31 631.309 775.377 637.994 789.893 637.994C805.364 637.994 813.768 630.545 813.768 616.793V553.954H832.486ZM852.375 653.656V553.954H870.138V568.279H870.52C875.677 558.347 882.553 553.954 894.204 553.954H899.17V571.908H892.103C877.778 571.908 871.093 578.211 871.093 591.772V653.656H852.375ZM949.775 655.566C920.361 655.566 904.317 637.421 904.317 603.805C904.317 570.189 920.934 552.044 950.921 552.044C980.144 552.044 996.57 569.043 992.559 606.67H923.417C924.181 629.208 932.585 639.522 950.348 639.522C964.1 639.522 972.122 633.792 974.414 622.141H992.368C989.885 643.151 974.032 655.566 949.775 655.566ZM924.181 591.581V592.345H974.796C974.414 576.492 966.201 567.515 950.539 567.515C935.45 567.515 926.855 575.728 924.181 591.581ZM1046.95 653.656V521.866H1095.27C1125.64 521.866 1141.49 534.09 1141.49 558.347C1141.49 578.593 1131.37 591.39 1111.12 595.21V595.592L1118.38 604.187L1144.93 653.656H1122.58L1093.93 598.266H1066.81V653.656H1046.95ZM1095.27 538.865H1066.81V581.267H1096.99C1113.41 581.267 1120.86 574.582 1120.86 559.875C1120.86 544.977 1113.41 538.865 1095.27 538.865ZM1196.55 655.566C1167.13 655.566 1151.09 637.421 1151.09 603.805C1151.09 570.189 1167.7 552.044 1197.69 552.044C1226.91 552.044 1243.34 569.043 1239.33 606.67H1170.19C1170.95 629.208 1179.36 639.522 1197.12 639.522C1210.87 639.522 1218.89 633.792 1221.18 622.141H1239.14C1236.66 643.151 1220.8 655.566 1196.55 655.566ZM1170.95 591.581V592.345H1221.57C1221.18 576.492 1212.97 567.515 1197.31 567.515C1182.22 567.515 1173.63 575.728 1170.95 591.581ZM1274.62 653.656L1243.87 553.954H1263.93L1288.38 637.421H1288.76L1313.21 553.954H1332.69L1301.94 653.656H1274.62ZM1353.23 540.202C1345.02 540.202 1340.81 536.382 1340.81 528.36C1340.81 520.147 1345.02 516.327 1353.23 516.327C1361.63 516.327 1365.83 520.147 1365.83 528.36C1365.83 536.382 1361.63 540.202 1353.23 540.202ZM1344.06 653.656V553.954H1362.59V653.656H1344.06ZM1424.1 655.566C1394.69 655.566 1378.65 637.421 1378.65 603.805C1378.65 570.189 1395.26 552.044 1425.25 552.044C1454.47 552.044 1470.9 569.043 1466.89 606.67H1397.75C1398.51 629.208 1406.91 639.522 1424.68 639.522C1438.43 639.522 1446.45 633.792 1448.74 622.141H1466.7C1464.21 643.151 1448.36 655.566 1424.1 655.566ZM1398.51 591.581V592.345H1449.13C1448.74 576.492 1440.53 567.515 1424.87 567.515C1409.78 567.515 1401.18 575.728 1398.51 591.581ZM1498.15 653.656L1472.75 553.954H1492.42L1511.33 634.938H1511.71L1532.15 553.954H1554.49L1575.12 634.938H1575.5L1594.41 553.954H1613.32L1587.92 653.656H1563.47L1543.23 573.818H1542.84L1522.79 653.656H1498.15ZM1657.68 655.566C1632.09 655.566 1618.15 644.488 1617.38 622.714H1635.34C1635.91 634.365 1644.31 639.904 1658.26 639.904C1672.2 639.904 1680.03 634.556 1680.03 625.197C1680.03 618.703 1675.83 614.31 1666.47 612.209L1644.7 607.434C1628.65 604.187 1620.82 595.401 1620.82 582.031C1620.82 563.313 1634.57 552.044 1658.26 552.044C1681.75 552.044 1695.69 562.931 1696.84 582.604H1679.65C1678.69 573.245 1671.44 567.515 1657.87 567.515C1645.65 567.515 1638.97 572.29 1638.97 580.312C1638.97 586.424 1642.79 590.053 1650.04 591.581L1671.44 596.165C1689.77 599.794 1698.56 608.389 1698.56 623.86C1698.56 643.915 1683.47 655.566 1657.68 655.566ZM10.657 825.656V811.522L63.755 762.053C75.215 751.357 81.518 740.852 81.518 728.819C81.518 712.775 71.204 703.225 54.778 703.225C36.442 703.225 24.982 713.921 24.218 734.74H11.039C11.994 705.899 28.42 691.001 54.778 691.001C79.99 691.001 95.079 705.135 95.079 728.246C95.079 743.717 88.203 757.087 71.777 771.603L24.409 813.623V814.005H97.944V825.656H10.657ZM158.694 828.521C130.999 828.521 114.573 812.668 114.191 783.445H127.179C127.561 804.455 138.639 816.297 159.076 816.297C179.704 816.297 191.546 804.837 191.546 783.636C191.546 762.817 180.086 751.166 161.368 751.166C149.908 751.166 141.313 755.368 135.201 764.154H121.64L126.415 693.866H199.568V705.517H137.875L134.055 750.975H134.628C141.313 743.526 152.391 739.515 164.042 739.515C189.063 739.515 205.298 755.941 205.298 782.872C205.298 811.14 186.962 828.521 158.694 828.521ZM266.655 828.521C240.106 828.521 222.534 812.477 222.534 786.692C222.534 775.232 225.972 763.199 234.949 750.402L274.868 693.866H290.721L249.847 749.638L250.229 749.829C257.296 745.436 264.745 743.717 272.194 743.717C295.687 743.717 312.113 759.761 312.113 785.164C312.113 811.522 293.968 828.521 266.655 828.521ZM267.228 816.106C286.137 816.106 298.361 804.455 298.361 785.164C298.361 765.873 286.328 754.222 267.228 754.222C248.128 754.222 236.095 766.064 236.095 785.164C236.095 804.646 248.51 816.106 267.228 816.106ZM378.771 828.521C346.683 828.521 330.066 805.792 330.066 759.761C330.066 713.539 346.683 691.001 378.771 691.001C411.05 691.001 427.667 713.539 427.667 759.761C427.667 805.983 411.05 828.521 378.771 828.521ZM345.155 781.344V781.726L409.522 726.336C404.174 710.865 394.051 703.225 378.771 703.225C355.278 703.225 343.627 721.561 343.627 759.761C343.627 767.783 344.2 775.041 345.155 781.344ZM378.771 816.297C402.837 816.297 414.106 798.343 414.106 759.761C414.106 751.357 413.533 744.099 412.387 737.605L347.829 792.995C353.177 808.848 363.3 816.297 378.771 816.297ZM466.204 805.601L458.182 797.579L486.45 769.502L458.564 741.616L467.159 733.021L495.045 760.907L523.122 732.639L531.144 740.661L503.067 768.929L530.953 796.815L522.358 805.41L494.472 777.524L466.204 805.601ZM592.088 825.656V706.854H591.706L556.562 732.448V716.404L588.65 693.866H605.076V825.656H592.088ZM630.079 798.916V783.827L687.57 693.866H703.423L643.067 786.883V787.265H698.075V745.818H710.872V825.656H698.075V798.916H630.079ZM732.48 798.916V783.827L789.971 693.866H805.824L745.468 786.883V787.265H800.476V745.818H813.273V825.656H800.476V798.916H732.48ZM886.114 828.521C854.026 828.521 837.409 805.792 837.409 759.761C837.409 713.539 854.026 691.001 886.114 691.001C918.393 691.001 935.01 713.539 935.01 759.761C935.01 805.983 918.393 828.521 886.114 828.521ZM852.498 781.344V781.726L916.865 726.336C911.517 710.865 901.394 703.225 886.114 703.225C862.621 703.225 850.97 721.561 850.97 759.761C850.97 767.783 851.543 775.041 852.498 781.344ZM886.114 816.297C910.18 816.297 921.449 798.343 921.449 759.761C921.449 751.357 920.876 744.099 919.73 737.605L855.172 792.995C860.52 808.848 870.643 816.297 886.114 816.297ZM945.654 850.104L1006.77 677.822H1019.95L958.833 850.104H945.654ZM1039.24 825.656V693.866H1081.07C1120.8 693.866 1138.37 712.966 1138.37 759.761C1138.37 806.365 1120.8 825.656 1081.07 825.656H1039.24ZM1081.45 705.517H1052.23V814.005H1081.45C1112.78 814.005 1124.62 799.489 1124.62 759.761C1124.62 720.797 1112.2 705.517 1081.45 705.517ZM1172.74 861.946L1185.53 826.038L1148.29 726.718H1161.85L1191.84 808.657H1192.22L1220.49 726.718H1233.47L1185.72 861.946H1172.74ZM1246.25 825.656V726.718H1258.28V739.897H1258.66C1265.92 729.201 1277 724.999 1289.99 724.999C1311.38 724.999 1322.84 736.459 1322.84 758.615V825.656H1310.61V761.671C1310.61 744.863 1302.02 736.841 1285.97 736.841C1268.98 736.841 1258.47 745.627 1258.47 761.671V825.656H1246.25ZM1372.05 827.375C1352.76 827.375 1339.96 816.87 1339.96 799.489C1339.96 781.726 1352.95 770.457 1374.34 770.457H1404.14V759.761C1404.14 743.335 1395.54 736.65 1380.26 736.65C1367.08 736.65 1356.96 741.998 1356.2 755.368H1344.16C1344.16 736.459 1358.49 724.999 1381.41 724.999C1403.56 724.999 1416.36 735.504 1416.36 756.705V825.656H1404.33V811.713H1403.95C1396.31 823.364 1384.27 827.375 1372.05 827.375ZM1374.34 816.106C1391.34 816.106 1404.14 806.174 1404.14 790.321V780.962H1376.06C1361.16 780.962 1352.57 787.265 1352.57 798.534C1352.57 809.421 1360.4 816.106 1374.34 816.106ZM1438.18 825.656V726.718H1450.4V739.897H1450.79C1457.09 729.965 1466.64 725.19 1479.05 725.19C1491.85 725.19 1501.02 731.111 1505.41 740.661H1505.79C1512.29 730.347 1522.98 725.19 1535.97 725.19C1554.31 725.19 1565.96 736.268 1565.96 755.75V825.656H1553.73V758.806C1553.73 744.29 1545.71 737.032 1532.34 737.032C1518.02 737.032 1508.28 744.863 1508.28 759.188V825.656H1496.05V758.615C1496.05 743.908 1487.84 737.032 1475.42 737.032C1460.53 737.032 1450.4 745.818 1450.4 760.525V825.656H1438.18ZM1594.46 709.146C1588.15 709.146 1584.71 706.09 1584.71 699.405C1584.71 692.911 1588.15 689.664 1594.46 689.664C1600.76 689.664 1604.01 692.911 1604.01 699.405C1604.01 706.09 1600.76 709.146 1594.46 709.146ZM1588.34 825.656V726.718H1600.57V825.656H1588.34ZM1662.56 827.375C1635.44 827.375 1618.82 808.275 1618.82 776.187C1618.82 743.908 1635.44 724.999 1662.56 724.999C1686.24 724.999 1700.95 738.942 1702.1 759.379H1690.06C1688.35 744.481 1678.6 736.65 1662.56 736.65C1642.7 736.65 1632.19 750.02 1632.19 776.187C1632.19 802.163 1642.7 815.724 1662.56 815.724C1678.8 815.724 1688.73 807.702 1690.45 792.804H1702.48C1701.33 813.05 1686.44 827.375 1662.56 827.375Z" fill="#EFEEED"/>
</svg>
