<svg width="1600" height="768" viewBox="0 0 1600 768" fill="none" xmlns="http://www.w3.org/2000/svg">
<rect width="1600" height="768" fill="#BEBEA7"/>
<path d="M178.5 174.2C159.5 174.2 145.6 159.5 145.6 138.7C145.6 117.3 160.8 101.9 181.1 101.9C186.6 101.9 190.7 103 202.7 103C201.8 106.7 201.6 107.6 202.2 110.2L205.3 123.1L201.8 123.9C196.2 111.3 190.9 106.3 180.2 106.3C164.9 106.3 156.2 116.8 156.2 137.4C156.2 157.7 165 169.5 180 169.5C184.6 169.5 189.6 168.3 194.1 166.3V147.1C194.1 145.5 193.9 144.9 192.2 144.7L185.3 143.6V140.1H209.9V143.6L205.2 144.7C203.3 145.1 203.3 145.5 203.3 147.1V161.9H208.8V164.5L201.8 167.5C192.5 171.4 186 174.2 178.5 174.2ZM238.53 174.2C226.23 174.1 217.93 165.8 217.93 150.7C217.93 136.4 226.43 124.1 241.13 124.2C251.73 124.3 259.13 130.9 257.93 146.5L226.13 146.2C226.13 158.7 231.53 166.7 241.73 166.9C247.43 167 251.93 164.3 256.53 159.7L259.13 161.7C254.13 169.4 247.63 174.3 238.53 174.2ZM239.03 129C232.53 128.9 227.33 132.7 226.33 142.5L249.33 141.6C249.23 133.2 246.13 129.1 239.03 129ZM288.963 174.2C276.263 174.2 266.563 164.6 266.563 149.7C266.563 135.2 276.963 124.2 290.363 124.2C303.263 124.2 312.863 133.8 312.863 148.7C312.863 163.2 302.663 174.2 288.963 174.2ZM289.663 169.3C296.763 169.3 303.063 165.4 303.063 149.7C303.063 133.7 297.163 129 289.563 129C282.363 129 276.463 132.9 276.463 148.7C276.463 164.7 282.063 169.3 289.663 169.3ZM341.074 157.5C337.774 157.5 334.874 156.9 332.474 155.8C329.474 158 328.774 160.3 328.774 161.9C328.774 164.6 330.774 166.1 336.174 166.4L354.574 167.5C360.874 167.9 366.474 170.9 366.474 177.7C366.474 186.9 356.274 197.4 337.474 197.4C324.874 197.4 319.474 191.7 319.474 185.4C319.474 181.1 321.674 178.2 328.774 172.9C324.774 171.5 321.674 168.7 321.674 164.7C321.674 161.1 324.174 157.7 329.274 153.9C325.574 151.1 323.374 146.7 323.374 141.2C323.374 131.4 330.774 124.5 341.774 124.5C345.974 124.5 351.174 125.3 354.974 125.3C359.374 125.3 360.374 124 362.174 118.1C366.574 118 368.774 120.1 368.774 123.2C368.774 127.2 365.274 129 360.574 128.9L354.074 128.7L353.974 129.1C357.274 131.7 359.074 135.8 359.074 140.8C359.074 150.6 351.974 157.5 341.074 157.5ZM341.474 153.2C347.874 153.2 350.574 148.7 350.574 141.2C350.574 133.7 347.874 128.8 341.274 128.8C334.874 128.8 331.974 133.5 331.974 140.8C331.974 148.1 334.874 153.2 341.474 153.2ZM326.974 183.5C326.974 188.6 331.874 191.8 341.274 191.8C353.674 191.8 358.574 186.6 358.574 181.2C358.574 176.2 354.874 175.1 350.274 174.8L333.574 173.8C329.274 177.2 326.974 180.2 326.974 183.5ZM372.885 173V169.5L377.585 168.4C379.385 168 379.785 167.8 379.785 166V135.2C379.785 133.7 379.285 133 377.885 132.6L372.585 131.1V128.7L385.885 123.8H386.985L387.985 131.5C395.485 125.8 399.085 124.2 401.985 124.2C405.285 124.2 408.185 125.8 408.185 129.6C408.185 133.2 405.485 135.6 402.585 135.9C400.185 133 398.485 131.6 396.285 131.6C394.185 131.6 391.685 132.7 388.085 135.4V166C388.085 167.8 388.485 168.1 390.285 168.4L396.085 169.5V173H372.885ZM422.459 173.6C417.459 173.6 412.859 170 412.859 163.7C412.859 157.3 417.759 150.3 437.359 147.8V138C437.359 131.5 430.959 129.5 427.759 129.5C423.559 129.5 421.159 133.3 423.259 141.2C419.359 143.6 414.159 143.6 414.159 138.4C414.159 130.5 427.259 124.4 434.059 124.4C439.959 124.4 445.759 128.9 445.759 134.5V165C445.759 166.3 446.859 167.3 449.359 167.3C451.359 167.3 452.959 166.6 454.259 166L455.759 168C451.759 172.5 448.159 173.5 445.059 173.5C440.559 173.5 437.859 171.4 437.459 167.5C432.059 171.3 426.459 173.6 422.459 173.6ZM420.859 161.7C420.859 164.8 423.459 167.2 426.859 167.2C429.359 167.2 433.259 165.9 437.359 164.2V151C424.959 153.9 420.859 157.7 420.859 161.7ZM457.944 196V192.5L462.644 191.5C464.444 191.1 464.844 190.8 464.844 189V135.2C464.844 133.7 464.344 133 462.944 132.6L457.644 131.1V128.7L470.944 123.8H472.044L472.944 131C478.344 126.7 483.844 124.2 489.044 124.2C500.644 124.2 507.444 133.5 507.444 145.1C507.444 161.1 496.144 174.2 482.144 174.2C479.544 174.2 476.344 173.7 473.144 172.4V189C473.144 190.8 473.444 191.2 475.244 191.5L481.144 192.5V196H457.944ZM484.144 131.2C480.644 131.2 477.044 132.3 473.144 134.8V164.3C477.144 167.8 481.444 168.3 484.944 168.3C494.044 168.3 498.844 161.3 498.844 149.9C498.844 136.9 492.944 131.2 484.144 131.2ZM514.584 173V169.5L519.284 168.4C521.084 168 521.484 167.8 521.484 166V107.9C521.484 106.3 520.984 105.8 519.584 105.3L514.284 103.4V100.9L528.784 96H529.784V131.3C537.584 126 541.684 124.2 545.384 124.2C551.984 124.2 559.584 129.2 559.584 135.8V166C559.584 167.8 559.784 167.9 561.584 168.4L565.884 169.5V173H544.484V169.5L549.184 168.4C550.984 168 551.284 167.8 551.284 166V139.8C551.284 134.8 546.184 131.6 540.284 131.6C537.584 131.6 533.984 132.7 529.784 134.9V166C529.784 167.8 530.084 168 531.884 168.4L536.584 169.5V173H514.584ZM593.218 174.2C580.918 174.1 572.618 165.8 572.618 150.7C572.618 136.4 581.118 124.1 595.818 124.2C606.418 124.3 613.818 130.9 612.618 146.5L580.818 146.2C580.818 158.7 586.218 166.7 596.418 166.9C602.118 167 606.618 164.3 611.218 159.7L613.818 161.7C608.818 169.4 602.318 174.3 593.218 174.2ZM593.718 129C587.218 128.9 582.018 132.7 581.018 142.5L604.018 141.6C603.918 133.2 600.818 129.1 593.718 129ZM620.151 173V169.5L624.851 168.4C626.651 168 627.051 167.8 627.051 166V135.2C627.051 133.7 626.551 133 625.151 132.6L619.851 131.1V128.7L633.151 123.8H634.251L635.251 131.5C642.751 125.8 646.351 124.2 649.251 124.2C652.551 124.2 655.451 125.8 655.451 129.6C655.451 133.2 652.751 135.6 649.851 135.9C647.451 133 645.751 131.6 643.551 131.6C641.451 131.6 638.951 132.7 635.351 135.4V166C635.351 167.8 635.751 168.1 637.551 168.4L643.351 169.5V173H620.151ZM675.013 174.2C670.913 174.2 667.813 172.9 661.113 173C661.613 170.6 661.613 169.6 661.413 166.6L660.613 157L663.713 156.5C668.313 166.5 671.513 169.5 676.713 169.5C681.413 169.5 685.113 167.2 685.113 162.4C685.113 158.2 682.213 155.9 679.013 154.1L669.413 148.6C665.213 146.2 662.013 143.4 662.013 137.9C662.013 129.3 669.413 124.2 678.713 124.2C682.413 124.2 685.513 125.3 690.513 125.3C690.013 128 689.913 128.8 690.313 132L691.113 138.5L687.913 139.1C684.113 130.3 680.813 128.7 676.513 128.7C672.013 128.7 669.213 131.1 669.213 134.8C669.213 138.2 671.713 140.2 674.513 141.8L684.313 147.2C688.913 149.8 692.713 152.3 692.713 158.8C692.713 167.8 684.613 174.2 675.013 174.2ZM140.4 293V289.4L146.8 287.6C148.7 287.1 149 286.7 149.3 285.2L160.8 230C161.1 228.4 161.2 227.9 159.3 227.6L153 226.6V223H174.1L185.4 279.7H185.7L220.7 223H240.3V226.6L233.9 227.6C232.2 227.9 231.8 228.2 231.4 230L219.5 286C219.1 287.8 219.2 288.2 221 288.5L227.2 289.5V293H202.3V289.5L208.2 288.5C209.8 288.2 210.3 287.7 210.7 286L222.6 229.8H222.3L183.3 293H179.3L166.8 229.8H166.5L154.9 285.3C154.6 286.9 154.8 287.2 156.4 287.7L162.1 289.4V293H140.4ZM243.508 293.8C239.608 293.8 236.308 291.4 236.308 285.4C236.308 272 253.608 244.5 267.208 244.5C270.008 244.5 272.708 245.6 275.608 248.8L278.408 244H283.708L269.308 284.7C268.808 286.2 269.508 287.5 271.108 287.5C272.708 287.5 274.708 286.2 278.808 283.1L280.608 285.1C273.608 292.3 270.708 293.7 267.608 293.7C263.108 293.7 261.408 290.7 262.308 287.7L266.208 275.4L265.808 275.3C256.908 288.5 249.208 293.8 243.508 293.8ZM247.308 287.1C251.908 287.1 262.208 279.1 272.008 256.9C270.808 251.1 269.208 248.8 266.608 248.8C257.808 248.8 244.708 275 244.708 283.8C244.708 286.2 245.708 287.1 247.308 287.1ZM306.15 277.1C302.75 277.1 299.95 276.2 297.85 274.6C295.45 275.9 294.25 277.3 294.25 279.2C294.25 280.9 295.25 282.1 298.05 283.2L313.25 289.3C319.65 291.9 323.95 294.2 323.95 299.8C323.95 309.6 311.85 317.4 297.95 317.4C287.05 317.4 280.25 312.4 280.25 305.4C280.25 299.2 285.25 294.4 295.85 290.7V290.3C289.65 288.2 287.45 285.4 287.45 281.7C287.45 277.6 290.15 274.2 295.35 271.6C294.25 269.8 293.75 267.7 293.75 265.2C293.75 256.6 300.15 244.2 313.45 244.2C317.35 244.2 319.45 245.3 323.65 245.3C328.45 245.3 329.35 243.8 330.35 237.8C334.95 237.2 337.15 239.2 337.15 242.4C337.15 246.6 333.55 249 328.65 248.8L322.95 248.6L322.85 248.9C324.45 250.9 325.35 253.3 325.35 256.2C325.35 264.6 319.25 277.1 306.15 277.1ZM306.85 272.9C314.45 272.9 317.85 260.8 317.85 255.3C317.85 250.7 315.55 248.5 312.25 248.5C304.75 248.5 301.25 260.2 301.25 266C301.25 270.7 303.55 272.9 306.85 272.9ZM301.25 312.2C310.15 312.2 315.75 308.5 315.75 302.9C315.75 299.2 313.25 297.3 307.95 295.2L301.35 292.6C292.75 295.2 288.25 299 288.25 303.8C288.25 308.7 292.85 312.2 301.25 312.2ZM367.871 293.7C363.371 293.7 360.771 290.7 361.771 287.7L372.671 255.7C373.371 253.6 372.871 252.1 370.971 252.1C368.371 252.1 364.971 255.1 350.471 271.9L344.071 293H336.271L348.971 253.5C349.471 251.8 348.671 250.7 347.171 250.7C345.571 250.7 343.571 252 339.471 255.1L337.671 253.1C344.671 245.9 347.571 244.5 350.671 244.5C355.171 244.5 357.071 247.5 356.271 250.6L352.171 265.3L352.571 265.4C364.671 249.7 371.471 244.6 375.671 244.6C378.971 244.6 383.771 247.5 381.871 252.4L369.571 284.7C368.971 286.2 369.771 287.5 371.371 287.5C372.971 287.5 374.971 286.2 379.071 283.1L380.871 285.1C373.871 292.3 370.971 293.7 367.871 293.7ZM408.708 234.6C405.008 234.6 402.608 232.5 402.608 228.9C402.608 224.9 405.508 222.4 409.308 222.4C412.908 222.4 415.108 224.6 415.108 228.3C415.108 232.2 412.608 234.6 408.708 234.6ZM397.108 293.7C392.608 293.7 389.708 290.7 390.708 287.7L401.708 253.5C402.208 252 401.508 250.7 399.908 250.7C398.308 250.7 396.308 252 392.208 255.1L390.408 253.1C397.408 245.9 400.308 244.5 403.408 244.5C407.908 244.5 410.708 247.7 409.708 250.7L398.808 284.7C398.308 286.2 399.008 287.5 400.608 287.5C402.208 287.5 404.208 286.2 408.308 283.1L410.108 285.1C403.108 292.3 400.208 293.7 397.108 293.7ZM401.307 317.4C395.907 317.4 393.007 315.3 393.007 311.5C393.007 307.7 396.007 305.2 400.507 305.2C400.907 309.9 402.407 311.8 405.707 311.8C412.107 311.8 416.707 304.8 420.007 289.8L428.707 250.2H421.107V246.4L429.707 245.4C433.807 226.8 444.507 216 457.007 216C464.107 216 468.707 219.5 468.707 224.1C468.707 227.9 465.507 230.5 460.907 230.2C460.407 224.8 457.307 221.6 452.807 221.6C446.207 221.6 440.507 228.6 437.307 243.6L436.907 245.3H453.307C454.507 244.4 455.707 244 457.007 244C461.007 244 464.107 247.5 463.107 250.7L452.207 284.7C451.707 286.2 452.407 287.5 454.007 287.5C455.607 287.5 457.607 286.2 461.707 283.1L463.507 285.1C456.507 292.3 453.607 293.7 450.507 293.7C446.007 293.7 443.107 290.7 444.107 287.7L455.407 252.6C455.907 251.1 455.007 250.2 453.807 250.2H435.907L427.807 288C423.807 306.6 413.807 317.4 401.307 317.4ZM480.325 294.1C473.825 294.1 470.225 288.8 470.225 281.2C470.225 266.7 482.625 244.2 498.425 244.2C504.025 244.2 507.825 247.2 507.825 251.6C507.825 255.4 504.925 258.3 499.525 258.1C499.625 251.6 498.525 248.9 495.125 248.9C485.525 248.9 478.225 270.1 478.225 279.1C478.225 283.7 480.025 286.5 484.025 286.5C488.525 286.5 493.325 283 499.625 275.9L501.925 277.6C495.125 287.8 487.325 294.1 480.325 294.1ZM519.488 294.1C512.988 294.1 509.388 288.8 509.388 280.9C509.388 265.8 522.388 244.2 538.488 244.2C543.888 244.2 546.988 246.6 546.988 251.1C546.988 259.1 537.188 265.5 518.788 269.8C517.788 273.3 517.288 276.6 517.288 279C517.288 283.6 519.088 286.5 523.188 286.5C527.688 286.5 532.288 283 538.788 275.9L541.088 277.6C534.088 287.8 526.488 294.1 519.488 294.1ZM534.988 248.9C528.388 248.9 522.988 257.4 519.988 265.9C532.788 262.2 538.888 257.9 538.888 252.6C538.888 250.2 537.488 248.9 534.988 248.9ZM581.055 293.7C576.555 293.7 573.955 290.7 574.955 287.7L585.855 255.7C586.555 253.6 586.055 252.1 584.155 252.1C581.555 252.1 578.155 255.1 563.655 271.9L557.255 293H549.455L562.155 253.5C562.655 251.8 561.855 250.7 560.355 250.7C558.755 250.7 556.755 252 552.655 255.1L550.855 253.1C557.855 245.9 560.755 244.5 563.855 244.5C568.355 244.5 570.255 247.5 569.455 250.6L565.355 265.3L565.755 265.4C577.855 249.7 584.655 244.6 588.855 244.6C592.155 244.6 596.955 247.5 595.055 252.4L582.755 284.7C582.155 286.2 582.955 287.5 584.555 287.5C586.155 287.5 588.155 286.2 592.255 283.1L594.055 285.1C587.055 292.3 584.155 293.7 581.055 293.7ZM607.091 293.8C602.391 293.8 599.591 290.8 600.491 287.5L611.091 250.3H605.491V246.5L612.491 245.6L614.791 237.5L621.391 236H622.391L619.691 245.4H630.491V250.3H618.291L608.591 284.7C608.191 286.2 608.591 287.4 610.091 287.4C612.191 287.4 614.291 285.1 621.191 277.6L623.391 279.5C615.691 290 612.291 293.8 607.091 293.8ZM636.023 293.7C631.523 293.7 629.223 290.8 629.923 287.7L644.423 227.9C644.823 226.4 644.523 225.8 643.123 225.3L637.823 223.4V220.9L653.223 216H654.323L637.723 284.6C637.323 286.2 637.923 287.5 639.523 287.5C641.123 287.5 643.123 286.2 647.223 283.1L649.023 285.1C642.023 292.3 639.123 293.7 636.023 293.7ZM634.861 317.4C626.161 317.4 622.861 314.3 622.861 310.3C622.861 306.4 626.061 304.2 630.561 304.2C631.561 310 633.861 312.3 639.061 312.3C646.461 312.3 658.561 307.7 668.161 296C665.061 256.2 663.161 251.3 660.561 251.3C659.061 251.3 657.661 253 655.061 257.5L652.761 256.1C656.461 247.2 659.361 244.5 663.861 244.5C670.561 244.5 672.761 249.8 673.861 288.3H674.261C683.261 273.5 688.461 261.7 688.461 256.2C688.461 253.5 687.161 252.4 681.661 250.9C682.761 246.4 685.461 244.1 688.961 244.1C692.661 244.1 695.161 246.7 695.161 251.1C695.161 258.6 688.361 273.3 679.561 287.4C664.761 310.9 648.061 317.4 634.861 317.4ZM141 413V409.4L145.9 407.4C147.4 406.8 147.9 406.2 148.6 404.5L170 349.9L167.9 344.3V343H178.4L202.5 405.9C203.1 407.6 203.3 408 205.2 408.4L209.7 409.4V413H184.1V409.4L189.8 408.4C191.7 408 191.8 407.5 191.1 405.8L184.5 388H160.8L154.5 404.4C153.8 406.1 154.2 406.9 155.9 407.5L161.3 409.4V413H141ZM172.5 357.3L162.5 383.4H182.7L172.9 357.3H172.5ZM213.505 413V409.5L218.005 408.4C219.705 408 220.105 407.7 220.105 405.9V375.3C220.105 373.8 219.705 373.1 218.305 372.6L213.205 370.9V368.5L227.605 363.6H228.705L229.705 370.9C237.305 365.6 241.705 363.9 245.405 363.9C250.705 363.9 255.605 367.2 257.205 371.6C265.105 365.7 269.605 363.9 273.305 363.9C279.705 363.9 285.705 368.9 285.705 374.8V405.9C285.705 407.7 285.905 408 287.705 408.4L292.105 409.5V413H269.905V409.5L273.805 408.4C275.605 407.9 275.905 407.7 275.905 405.9V379C275.905 374.5 272.405 371.8 267.405 371.8C264.805 371.8 261.705 372.7 257.705 375.2V405.9C257.705 407.7 258.005 407.9 259.705 408.4L263.805 409.5V413H242.005V409.5L245.905 408.4C247.705 407.9 248.005 407.7 248.005 405.9V379C248.005 374.5 244.505 371.8 239.505 371.8C236.905 371.8 233.805 372.7 229.805 374.6V405.9C229.805 407.7 230.105 407.9 231.905 408.4L235.905 409.5V413H213.505ZM319.392 414.2C306.792 414.1 298.492 405.5 298.492 390.6C298.492 376 307.292 363.8 322.192 363.9C333.492 364 340.692 371 339.492 386.4L307.992 386.2C308.092 398.6 313.592 406.1 323.292 406.2C328.792 406.3 333.392 403.8 337.992 399.1L340.692 401.1C335.592 409.3 328.992 414.3 319.392 414.2ZM320.092 368.8C313.892 368.7 309.092 372.6 308.092 382.3L329.792 381.3C329.692 373 326.692 368.9 320.092 368.8ZM364.711 414.2C358.611 414.2 352.411 409.9 352.411 403.5V370.3H344.911V367.2L361.111 356H362.211V365H377.911V370.3H362.211V400.1C362.211 404.9 365.311 406.8 370.111 406.8C372.311 406.8 375.011 406.4 378.011 404.9L379.411 407.6C374.011 412.2 369.011 414.2 364.711 414.2ZM383.818 413V409.5L388.318 408.4C390.018 408 390.418 407.7 390.418 405.9V348.2C390.418 346.6 390.018 346.1 388.618 345.5L383.518 343.5V341L399.118 336H400.118V371C407.718 365.8 412.018 363.9 415.918 363.9C422.518 363.9 430.118 368.9 430.118 375.5V405.9C430.118 407.7 430.318 407.9 432.118 408.4L436.218 409.5V413H413.918V409.5L418.318 408.4C420.118 408 420.418 407.7 420.418 405.9V379.5C420.418 374.8 415.618 371.8 410.118 371.8C407.518 371.8 404.218 372.8 400.118 374.9V405.9C400.118 407.7 400.418 408 402.218 408.4L406.618 409.5V413H383.818ZM441.029 437.2C435.129 437.2 431.729 434.1 431.729 430C431.729 426.1 434.929 423.7 439.429 423.9C440.629 429 442.029 430.7 444.429 430.7C448.629 430.7 452.129 425.8 455.329 419L458.329 413L441.929 372.1C441.229 370.4 441.029 370 439.129 369.5L435.629 368.5V365H458.429V368.5L453.929 369.5C452.429 369.8 452.229 370.6 452.929 372.2L463.729 400.5H464.129L474.729 373.5C475.429 371.6 475.229 371 473.729 370.3L469.629 368.5V365H487.029V368.5L483.029 370.3C481.229 371.1 480.929 371.7 480.229 373.3L459.929 420.2C455.029 431.6 449.229 437.2 441.029 437.2ZM504.901 414.1C500.801 414.1 497.501 412.9 490.701 413C491.201 410.2 491.201 409.3 491.001 406.3L490.201 396.6L493.301 396.1C498.301 406 501.701 409.3 506.801 409.3C511.201 409.3 514.701 407 514.701 402.5C514.701 398.6 512.001 396.4 508.801 394.5L499.201 389C494.701 386.5 491.401 383.5 491.401 377.9C491.401 369.2 498.901 363.9 508.601 363.9C512.401 363.9 515.401 365 520.901 365C520.401 367.9 520.301 368.7 520.701 371.7L521.501 378.5L518.301 379.1C513.901 370.2 510.701 368.5 506.401 368.5C502.101 368.5 499.501 370.9 499.501 374.4C499.501 377.6 501.801 379.6 504.601 381.2L514.501 386.6C519.401 389.3 523.101 392 523.101 398.4C523.101 407.6 515.001 414.1 504.901 414.1ZM548.207 414.2C542.107 414.2 535.907 409.9 535.907 403.5V370.3H528.407V367.2L544.607 356H545.707V365H561.407V370.3H545.707V400.1C545.707 404.9 548.807 406.8 553.607 406.8C555.807 406.8 558.507 406.4 561.507 404.9L562.907 407.6C557.507 412.2 552.507 414.2 548.207 414.2ZM578.814 354.9C574.714 354.9 571.814 352.4 571.814 348.2C571.814 344.3 574.714 341.8 578.814 341.8C582.814 341.8 585.414 344.2 585.414 348.2C585.414 352.4 582.914 354.9 578.814 354.9ZM567.314 413V409.5L571.814 408.4C573.514 408 573.914 407.7 573.914 405.9V375.8C573.914 374.2 573.514 373.7 572.114 373L567.014 370.9V368.5L582.614 363.5H583.614V405.9C583.614 407.7 583.914 408 585.714 408.4L590.114 409.5V413H567.314ZM595.732 413V409.5L600.232 408.4C601.932 408 602.332 407.7 602.332 405.9V375.3C602.332 373.8 601.932 373.1 600.532 372.6L595.432 370.9V368.5L609.832 363.6H610.932L611.932 371.2C619.632 365.9 623.932 363.9 627.832 363.9C634.432 363.9 642.032 368.9 642.032 375.5V405.9C642.032 407.7 642.232 407.9 644.032 408.4L648.132 409.5V413H625.832V409.5L630.232 408.4C632.032 408 632.332 407.7 632.332 405.9V379.5C632.332 374.8 627.532 371.8 622.032 371.8C619.432 371.8 616.132 372.8 612.032 374.9V405.9C612.032 407.7 612.332 408 614.132 408.4L618.532 409.5V413H595.732ZM675.349 414.2C662.749 414.1 654.449 405.5 654.449 390.6C654.449 376 663.249 363.8 678.149 363.9C689.449 364 696.649 371 695.449 386.4L663.949 386.2C664.049 398.6 669.549 406.1 679.249 406.2C684.749 406.3 689.349 403.8 693.949 399.1L696.649 401.1C691.549 409.3 684.949 414.3 675.349 414.2ZM676.049 368.8C669.849 368.7 665.049 372.6 664.049 382.3L685.749 381.3C685.649 373 682.649 368.9 676.049 368.8ZM139.7 533V529.4L145.9 528.3C147.6 528.1 148 527.5 148.4 525.8L160.3 470.1C160.6 468.5 160.6 468 158.7 467.6L152.7 466.6V463H179.4V466.6L173.1 467.7C171.5 467.9 171 468.2 170.6 470.1L165.3 494.8H202.7L208 470.2C208.4 468.2 208.1 467.8 206.4 467.5L200.5 466.6V463H227.1V466.6L220.8 467.7C219.1 468 218.7 468.3 218.3 470.1L206.5 525.7C206.1 527.7 206.3 528.1 208 528.4L214.1 529.4V533H187.4V529.4L193.6 528.3C195.3 528.1 195.8 527.5 196.2 525.8L201.8 499.5H164.3L158.8 525.8C158.4 527.7 158.6 528.1 160.3 528.4L166.2 529.4V533H139.7ZM245.534 474.9C241.534 474.9 239.034 472.6 239.034 468.8C239.034 464.5 242.134 461.9 246.234 461.9C250.034 461.9 252.434 464.2 252.434 468.1C252.434 472.3 249.734 474.9 245.534 474.9ZM233.634 533.7C228.834 533.7 225.834 530.5 226.834 527.4L237.634 493.6C238.134 492.1 237.534 490.8 235.934 490.8C234.434 490.8 232.434 492.1 228.434 495.1L226.634 493.1C233.734 485.7 236.834 484.1 240.234 484.1C245.134 484.1 248.234 487.5 247.034 491L236.234 524.3C235.834 525.7 236.434 527 237.934 527C239.534 527 241.534 525.7 245.534 522.7L247.334 524.7C240.234 532.1 237.134 533.7 233.634 533.7ZM264.821 534.1C257.621 534.1 253.821 528.5 253.821 520.3C253.821 504.8 266.921 483.9 283.521 483.9C289.421 483.9 292.821 486.4 292.821 491.2C292.821 499.2 283.021 505.5 264.321 509.7C263.521 512.9 263.021 515.9 263.021 518.2C263.021 522.9 264.921 525.9 269.121 525.9C273.521 525.9 278.121 522.5 284.721 515.4L287.021 517.1C279.721 528 272.221 534.1 264.821 534.1ZM279.921 488.7C273.521 488.7 268.321 497.3 265.521 505.7C277.821 502.1 283.721 497.8 283.721 492.4C283.721 490 282.321 488.7 279.921 488.7ZM294.853 533L307.553 493.6C308.053 491.9 307.353 490.8 305.853 490.8C304.253 490.8 302.353 492.1 298.353 495.1L296.453 493.1C303.553 485.7 306.753 484.1 310.153 484.1C314.953 484.1 317.053 487.3 316.153 490.5L313.853 499.2L314.253 499.3C323.353 487.3 327.453 484.2 331.253 484.2C334.253 484.2 336.653 486.1 336.653 489.3C336.653 492.8 334.053 495.3 331.053 496.3C329.453 494 328.153 493 326.853 493C324.253 493 320.353 496.4 311.653 507.2L304.053 533H294.853ZM344.523 534.1C336.523 534.1 332.723 528.3 332.723 520.6C332.723 506.3 345.523 483.9 361.423 483.9C369.423 483.9 373.223 489.5 373.223 497.3C373.223 511.3 360.723 534.1 344.523 534.1ZM347.823 528.3C357.323 528.3 363.823 507.2 363.823 497.9C363.823 493.2 362.223 489.6 358.223 489.6C348.623 489.6 342.323 510.6 342.323 519.9C342.323 524.6 343.823 528.3 347.823 528.3ZM396.887 516.9C393.387 516.9 390.387 516 388.087 514.4C385.887 515.7 384.687 517.1 384.687 518.9C384.687 520.6 385.687 521.7 388.587 522.8L404.287 528.7C410.887 531.2 415.187 533.8 415.187 539.5C415.187 549.5 402.887 557.4 388.387 557.4C377.187 557.4 370.287 552.3 370.287 545.4C370.287 539.4 375.187 534.7 385.387 531.2V530.8C379.387 528.8 376.887 526 376.887 522.1C376.887 517.7 380.087 514.1 385.387 511.6C384.087 509.7 383.487 507.3 383.487 504.6C383.487 495.5 390.487 483.9 403.787 483.9C407.787 483.9 409.987 485 413.987 485C418.587 485 419.887 483.4 421.087 477C425.887 476.5 428.187 478.6 428.187 481.9C428.187 486.4 424.287 488.8 419.287 488.6L414.087 488.4L413.987 488.7C415.787 490.8 416.787 493.4 416.787 496.4C416.787 505.2 409.987 516.9 396.887 516.9ZM397.487 512.6C404.887 512.6 408.187 500.2 408.187 494.8C408.187 490.4 405.987 488.3 402.887 488.3C395.587 488.3 392.187 500.4 392.187 506C392.187 510.5 394.287 512.6 397.487 512.6ZM391.987 552C400.687 552 406.187 548.5 406.187 543.2C406.187 539.7 403.887 537.9 398.687 535.9L390.887 533C383.187 535.6 378.987 539.1 378.987 543.8C378.987 548.7 383.787 552 391.987 552ZM432.61 533.7C427.81 533.7 425.31 530.6 426.11 527.4L440.41 468.2C440.81 466.7 440.51 466.2 439.21 465.6L434.11 463.5V461L450.91 456H452.01L435.31 524.2C434.91 525.7 435.41 527 437.01 527C438.51 527 440.51 525.7 444.51 522.7L446.31 524.7C439.21 532.1 436.11 533.7 432.61 533.7ZM447.629 557.4C442.529 557.4 439.629 555.1 439.629 551.2C439.629 547.1 442.829 544.5 447.629 544.6C448.529 549.5 449.829 551.1 452.029 551.1C455.429 551.1 459.829 547.4 466.529 537.7C461.729 496 460.129 491.3 457.629 491.3C456.129 491.3 454.729 492.9 452.129 497.4L449.829 496C453.629 486.9 456.629 484.1 461.529 484.1C468.329 484.1 470.829 489.1 473.029 527.5H473.429C482.029 513.1 487.029 501.5 487.029 496.2C487.029 493.4 485.629 492.4 480.229 490.9C481.329 486.2 484.129 483.8 487.829 483.8C491.629 483.8 494.329 486.3 494.329 490.9C494.329 498.3 487.629 512.6 474.429 533.6C463.429 551.1 455.929 557.4 447.629 557.4ZM512.306 532C511.006 532 509.706 531.9 508.306 531.7L504.106 549C503.706 550.8 503.806 551.2 505.606 551.5L511.406 552.5L511.106 556H487.706L487.906 552.5L492.706 551.5C494.506 551.1 494.906 550.8 495.406 549L508.606 494.6C505.106 496.7 501.406 499.4 497.906 502.5L495.806 499.9C499.906 495.9 504.706 492.3 509.906 489.5L512.806 477.3L521.006 475.6H522.006L519.606 485.5C522.406 484.6 525.206 484.2 528.006 484.2C537.806 484.2 542.506 490.2 542.506 498.9C542.506 512.8 531.406 532 512.306 532ZM523.106 489.5C521.606 489.5 520.006 489.8 518.406 490.2L509.406 527.4C510.506 527.5 511.606 527.6 512.706 527.6C527.806 527.6 532.406 507.9 532.406 499.9C532.406 494 529.906 489.5 523.106 489.5ZM576.806 533.7C572.006 533.7 569.206 530.5 570.206 527.4L580.706 495.7C581.406 493.6 580.906 492.2 579.006 492.2C576.506 492.2 573.306 495.1 559.806 510.6L554.306 533H545.506L561.406 468.2C561.706 467 561.606 466.2 560.206 465.6L555.106 463.5V461L572.006 456H573.206L561.206 504.1L561.606 504.2C573.306 489.2 580.006 484.2 584.406 484.2C588.206 484.2 593.106 487.5 591.206 492.6L579.406 524.3C578.906 525.7 579.606 527 581.106 527C582.706 527 584.706 525.7 588.706 522.7L590.506 524.7C583.406 532.1 580.306 533.7 576.806 533.7ZM618.385 474.9C614.385 474.9 611.885 472.6 611.885 468.8C611.885 464.5 614.985 461.9 619.085 461.9C622.885 461.9 625.285 464.2 625.285 468.1C625.285 472.3 622.585 474.9 618.385 474.9ZM606.485 533.7C601.685 533.7 598.685 530.5 599.685 527.4L610.485 493.6C610.985 492.1 610.385 490.8 608.785 490.8C607.285 490.8 605.285 492.1 601.285 495.1L599.485 493.1C606.585 485.7 609.685 484.1 613.085 484.1C617.985 484.1 621.085 487.5 619.885 491L609.085 524.3C608.685 525.7 609.285 527 610.785 527C612.385 527 614.385 525.7 618.385 522.7L620.185 524.7C613.085 532.1 609.985 533.7 606.485 533.7ZM637.373 534.1C630.273 534.1 626.573 528.6 626.573 520.7C626.573 505.7 639.173 483.9 655.373 483.9C661.373 483.9 665.273 487 665.273 491.5C665.273 495.5 662.073 498.5 656.373 498.2C656.573 491.4 655.473 488.7 652.173 488.7C642.873 488.7 635.873 509.5 635.873 518.3C635.873 522.9 637.673 525.8 641.673 525.8C646.073 525.8 650.873 522.4 657.073 515.4L659.473 517.1C652.673 527.5 645.073 534.1 637.373 534.1ZM673.723 534C668.323 534 663.523 531.8 663.523 526.7C663.523 522.5 667.123 519.7 672.423 520C672.123 527.6 674.523 529.4 677.323 529.4C681.323 529.4 684.523 525.8 684.523 521.7C684.523 519.2 683.423 517.1 680.823 514.3L675.423 508.4C671.723 504.4 670.923 501.6 670.923 499.2C670.923 491.4 678.923 484.1 688.523 484.1C694.023 484.1 697.923 486.3 697.923 490.7C697.923 494.7 694.523 497.1 690.023 496.7C690.123 490.3 687.623 488.5 685.323 488.4C682.523 488.4 679.123 491.3 679.123 495.5C679.123 497.8 680.123 499.6 682.123 501.7L687.623 507.4C691.723 511.6 693.123 514.4 693.123 517.7C693.123 526.3 683.723 534 673.723 534ZM167.1 654.1C161.6 654.1 158 652.8 146.5 652.8C147.4 648.3 147.4 647.5 147 644.8L144.5 629.6L148 628.8C155.6 644.7 161.1 648.8 168.3 648.8C175.1 648.8 180.1 645.6 180.1 638.9C180.1 633.9 177.6 630.8 170.7 626.5L158.6 619C149.9 613.6 147 608 147 601.1C147 589.8 156.8 581.9 170 581.9C176.5 581.9 178.1 583 189.1 583C188 587.3 188.1 588.1 188.4 590.8L190.2 602.1L186.7 602.8C180.3 590 175.8 586.9 169.1 586.9C163.1 586.9 158.6 590.3 158.6 596.2C158.6 600.5 160.7 603.8 168.8 608.6L179.2 614.9C189 620.8 192.4 626.1 192.4 633.7C192.4 646 181.2 654.1 167.1 654.1ZM217.936 654.3C211.036 654.3 205.036 649.7 205.036 643.3V610H197.836V606.8L216.436 594.4H217.436V604.4H232.236V610H217.436V639.7C217.436 644.1 220.036 645.9 224.536 645.9C226.836 645.9 229.336 645.3 232.036 644L233.736 646.9C228.036 652.1 222.836 654.3 217.936 654.3ZM260.95 654.2C247.15 654.2 237.25 644.6 237.35 629.2C237.45 614 248.45 603.3 262.75 603.3C276.65 603.3 286.55 612.8 286.35 628.2C286.35 643.5 275.45 654.2 260.95 654.2ZM261.65 648.9C267.75 648.9 272.55 644.7 272.65 629.3C272.75 613.4 268.25 608.5 261.95 608.5C255.85 608.5 251.35 612.6 251.15 628.2C251.15 644.3 255.35 648.9 261.65 648.9ZM314.702 654.2C302.602 654.2 293.502 646.4 293.502 630.9C293.502 615.5 303.702 603.4 319.402 603.4C329.102 603.4 335.202 607.9 335.202 613.6C335.202 618.4 330.902 621.4 324.302 620.9C323.202 611.9 321.002 608.8 316.402 608.8C310.502 608.8 306.002 613.9 306.002 625.3C306.002 637.7 310.902 644.5 319.702 644.5C324.402 644.5 328.602 642.6 333.702 637.6L336.402 639.7C330.902 649.1 324.702 654.2 314.702 654.2ZM340.547 653V649.5L344.547 648.4C346.247 647.9 346.647 647.6 346.647 645.8V588.9C346.647 587.3 346.247 586.8 344.847 586L340.347 583.7V581.2L358.047 576H359.047V624.5L363.747 623.6C365.247 623.3 365.747 623.2 366.647 622.3L376.947 613.2C378.447 612 378.447 610.7 376.947 610L372.547 607.9V604.4H394.347V607.9L389.147 610.2C387.147 611 386.347 611.8 384.647 613.3L374.847 622C378.747 629.1 382.647 636.2 386.847 642.3C390.047 646.9 391.447 647.8 396.247 649.5V653L387.347 653.3C380.147 653.5 377.047 652.4 373.947 645.5L366.347 630.1C365.947 629 365.447 628.8 364.147 628.8H359.047V645.8C359.047 647.6 359.347 647.9 361.147 648.4L365.047 649.5V653H340.547ZM406.229 654.6L403.729 653.7L404.629 646.5V588.9C404.629 587.3 404.229 586.8 402.829 586L398.329 583.7V581.2L416.029 576H417.029V610.2C422.029 605.9 427.329 603.3 432.629 603.3C443.229 603.3 450.729 611.9 450.729 624.5C450.729 642.4 438.029 654 424.129 654C420.329 654 415.529 653.2 411.229 651.1L406.229 654.6ZM425.829 611.8C423.029 611.8 420.029 612.8 417.029 614.6V644.1C420.129 647.2 423.629 648.1 426.529 648.1C433.729 648.1 437.829 641.9 437.829 629.6C437.829 617.6 433.329 611.8 425.829 611.8ZM456.758 653V649.5L460.758 648.4C462.458 647.9 462.858 647.6 462.858 645.8V615.6C462.858 614 462.458 613.4 461.058 612.7L456.558 610.6V608.1L473.158 603.1H474.258L475.258 611C481.158 605.3 484.758 603.3 488.158 603.3C491.958 603.3 495.258 605.6 495.258 610C495.258 614.5 491.858 617.5 487.558 618C485.058 614.2 483.458 612.6 481.358 612.6C479.658 612.6 477.858 613.5 475.258 615.3V645.8C475.258 647.6 475.658 648 477.458 648.4L482.758 649.5V653H456.758ZM522.083 654.2C508.283 654.2 498.383 644.6 498.483 629.2C498.583 614 509.583 603.3 523.883 603.3C537.783 603.3 547.683 612.8 547.483 628.2C547.483 643.5 536.583 654.2 522.083 654.2ZM522.783 648.9C528.883 648.9 533.683 644.7 533.783 629.3C533.883 613.4 529.383 608.5 523.083 608.5C516.983 608.5 512.483 612.6 512.283 628.2C512.283 644.3 516.483 648.9 522.783 648.9ZM553.34 653V649.5L557.34 648.4C559.04 647.9 559.44 647.6 559.44 645.8V588.9C559.44 587.3 559.04 586.8 557.64 586L553.14 583.7V581.2L570.84 576H571.84V624.5L576.54 623.6C578.04 623.3 578.54 623.2 579.44 622.3L589.74 613.2C591.24 612 591.24 610.7 589.74 610L585.34 607.9V604.4H607.14V607.9L601.94 610.2C599.94 611 599.14 611.8 597.44 613.3L587.64 622C591.54 629.1 595.44 636.2 599.64 642.3C602.84 646.9 604.24 647.8 609.04 649.5V653L600.14 653.3C592.94 653.5 589.84 652.4 586.74 645.5L579.14 630.1C578.74 629 578.24 628.8 576.94 628.8H571.84V645.8C571.84 647.6 572.14 647.9 573.94 648.4L577.84 649.5V653H553.34ZM632.385 654.2C619.285 654.1 610.885 645 610.885 630.3C610.885 615.3 620.385 603.2 635.485 603.3C648.185 603.4 655.085 611.1 653.885 626.2L622.985 626C623.285 638.3 628.785 644.8 637.585 644.9C642.885 645 647.485 642.8 652.285 637.9L655.085 640C649.685 649.2 643.085 654.3 632.385 654.2ZM633.385 608.4C627.885 608.3 623.785 612.2 623.085 621.8L641.885 620.7C641.785 612.5 639.185 608.5 633.385 608.4ZM660.273 653V649.5L664.273 648.4C665.973 647.9 666.373 647.6 666.373 645.8V615.6C666.373 614 665.973 613.4 664.573 612.7L660.073 610.6V608.1L676.673 603.1H677.773L678.773 611C684.673 605.3 688.273 603.3 691.673 603.3C695.473 603.3 698.773 605.6 698.773 610C698.773 614.5 695.373 617.5 691.073 618C688.573 614.2 686.973 612.6 684.873 612.6C683.173 612.6 681.373 613.5 678.773 615.3V645.8C678.773 647.6 679.173 648 680.973 648.4L686.273 649.5V653H660.273Z" fill="black"/>
<path d="M897.241 173V169.3L902.041 167.4C903.841 166.7 904.541 166 905.941 163.8L946.141 102H953.341L959.641 165.6C959.741 167.5 960.041 167.9 961.641 168.3L965.841 169.3V173H937.741V169.3L943.041 168.2C945.341 167.6 945.841 167.1 945.641 164.9L944.541 148.4H922.641L912.541 164.1C911.241 166.1 911.341 167 912.941 167.5L918.141 169.3V173H897.241ZM942.041 118.1L925.641 143.7H944.241L942.441 118.1H942.041ZM983.601 174.1C975.301 174.1 971.301 168.1 971.301 159.6C971.301 143.8 984.301 123.2 1001.3 123.2C1008.3 123.2 1012.3 126.6 1012.3 131.2C1012.3 135.6 1008.5 138.8 1002.1 138.4C1002.5 131 1001.6 128.3 998.401 128.3C989.701 128.3 983.201 148.3 983.201 156.7C983.201 161.3 985.001 164.3 989.001 164.3C993.301 164.3 998.001 161.1 1004.1 154.3L1006.6 156.1C999.801 166.9 992.601 174.1 983.601 174.1ZM1011.9 173L1027.6 108.8C1027.9 107.6 1027.7 106.9 1026.4 106.2L1021.9 103.8V101.3L1041.3 96H1042.5L1029.8 147.7C1044.3 144 1049.7 139.9 1049.7 136.3C1049.7 134.3 1047.9 132.8 1042.3 131.2C1043.6 125.8 1047.4 123.2 1051.9 123.2C1056.2 123.2 1059.9 125.9 1059.9 131.1C1059.9 138.3 1052.8 144.1 1042.9 147.5L1049.6 163C1050.4 164.8 1050.9 165.2 1051.6 165.2C1053 165.2 1053.9 163.8 1056.1 157.5L1058.9 158.1C1056.6 170.3 1052.5 174 1046.7 174C1042.9 174 1040.5 172.4 1039.6 169.4L1033.7 153.3C1033.3 152.2 1032.8 151.8 1031.8 151.8H1028.8L1023.6 173H1011.9ZM1098.19 173.7C1092.69 173.7 1089.39 170.2 1090.59 166.7L1101.09 135.7C1101.79 133.7 1101.19 132.4 1099.49 132.4C1097.19 132.4 1094.39 135 1082.59 148.4L1075.29 173H1063.29L1075.99 133.7C1076.39 132.1 1075.89 131.1 1074.49 131.1C1072.89 131.1 1071.09 132.3 1067.29 135.2L1065.39 133.1C1072.59 125.3 1076.29 123.4 1080.39 123.4C1085.89 123.4 1088.19 126.9 1087.29 130.4L1084.29 141.6L1084.69 141.7C1094.99 128.2 1101.49 123.4 1106.39 123.4C1110.99 123.4 1116.39 127.5 1114.29 133L1102.69 163.4C1102.09 164.8 1102.69 166 1104.19 166C1105.69 166 1107.49 164.8 1111.39 161.9L1113.19 163.9C1105.99 171.7 1102.39 173.7 1098.19 173.7ZM1133.16 174.1C1123.46 174.1 1119.06 167.4 1119.06 158.7C1119.06 143.6 1132.06 123.2 1148.56 123.2C1158.36 123.2 1162.86 129.6 1162.86 138.3C1162.86 152.4 1150.76 174.1 1133.16 174.1ZM1135.66 168.3C1144.66 168.3 1151.16 144.5 1151.16 136C1151.16 131.8 1149.76 128.8 1146.36 128.8C1137.16 128.8 1130.86 152.4 1130.86 161C1130.86 165.2 1132.26 168.3 1135.66 168.3ZM1184.61 174.1C1177.01 174.1 1172.71 169.4 1172.81 162.6C1172.81 152.2 1183.41 141.7 1191.91 133.9L1191.81 133.5H1180.11C1176.41 133.5 1175.01 134.8 1175.01 137C1175.01 138.6 1175.61 140.7 1176.81 143C1172.91 146.2 1167.01 145.6 1167.41 140.3C1167.91 133.4 1178.11 124.4 1185.61 124.4H1201.61V128C1195.21 136.6 1185.41 148.4 1185.11 156.8C1184.91 161.1 1187.01 163.2 1190.91 163.2C1194.51 163.2 1198.61 161 1202.51 157.7C1202.51 157.3 1202.51 156.9 1202.51 156.5C1202.91 136 1206.61 123.2 1217.71 123.2C1223.31 123.2 1226.71 126.5 1226.41 132.5C1226.11 139.8 1220.61 147.8 1209.31 158.4C1210.91 161.2 1213.61 162.7 1217.51 162.7C1228.71 162.7 1239.61 148.7 1239.61 138.3C1239.61 134.4 1237.71 133.2 1231.51 132.3C1232.21 126.1 1235.41 123.2 1239.71 123.2C1244.21 123.2 1246.11 126.4 1246.11 131.6C1246.11 145.5 1233.81 174.1 1215.11 174.1C1208.01 174.1 1204.41 170.1 1203.11 163.9C1197.91 170 1191.71 174.1 1184.61 174.1ZM1207.91 150.9C1207.91 152 1207.91 153 1208.01 153.9C1214.41 147.5 1218.31 140.8 1218.51 137.1C1218.61 134.9 1217.21 133.7 1215.01 133.7C1210.61 133.7 1208.31 138.4 1207.91 150.9ZM1255.38 173.7C1249.88 173.7 1246.98 170.3 1247.88 166.7L1261.98 108.8C1262.38 107.4 1262.08 106.9 1260.78 106.2L1256.28 103.8V101.3L1275.68 96H1276.88L1259.88 163.4C1259.48 164.8 1259.88 166 1261.38 166C1262.88 166 1264.68 164.8 1268.58 161.9L1270.38 163.9C1263.18 171.7 1259.58 173.7 1255.38 173.7ZM1288.01 174.1C1279.41 174.1 1275.11 167.9 1275.11 159C1275.11 142.8 1288.61 123.2 1306.01 123.2C1313.01 123.2 1317.01 126.1 1317.01 131.3C1317.01 139.3 1307.51 145.3 1288.01 149.6C1287.41 152.3 1287.11 154.7 1287.11 156.6C1287.11 161.5 1289.11 164.6 1293.41 164.6C1297.71 164.6 1302.41 161.5 1309.01 154.4L1311.51 156.2C1303.61 168.4 1296.21 174.1 1288.01 174.1ZM1302.41 128.3C1296.31 128.3 1291.61 137 1289.11 145.4C1300.31 141.8 1305.91 137.7 1305.91 132.1C1305.91 129.6 1304.61 128.3 1302.41 128.3ZM1325.08 173.8C1320.28 173.8 1316.48 170.8 1316.48 163.9C1316.48 149.3 1333.08 123.3 1347.98 123.3C1350.68 123.3 1353.18 124.3 1355.08 125.9L1358.98 108.8C1359.38 107.4 1359.08 106.9 1357.78 106.2L1353.28 103.8V101.3L1372.88 96H1374.08L1356.58 163.4C1356.28 164.9 1356.68 166 1358.08 166C1359.58 166 1361.48 164.8 1365.28 161.9L1367.18 163.9C1359.88 171.7 1356.28 173.7 1352.18 173.7C1346.68 173.7 1344.28 170.3 1345.18 166.7L1348.28 154.4L1347.88 154.3C1339.08 168.4 1331.88 173.8 1325.08 173.8ZM1331.18 165.1C1335.58 165.1 1344.28 156.4 1353.68 135.1C1352.48 130.4 1350.88 128.3 1348.58 128.3C1340.28 128.3 1328.88 153.8 1328.88 162C1328.88 164.3 1329.78 165.1 1331.18 165.1ZM1385.18 197.4C1373.28 197.4 1366.28 192.1 1366.28 185.5C1366.28 179.8 1370.98 175.4 1380.48 172.3V171.9C1374.68 170.1 1371.78 167.2 1371.78 162.9C1371.78 157.8 1375.78 154 1381.58 151.4C1379.78 149.3 1378.78 146.5 1378.78 143.3C1378.78 133.4 1387.18 123.4 1400.38 123.4C1404.68 123.4 1407.08 124.4 1410.48 124.4C1414.68 124.4 1416.88 122.6 1418.58 115.4C1423.68 115.1 1426.28 117.4 1426.28 121C1426.28 126 1421.78 128.3 1416.58 128.2L1412.38 128L1412.28 128.4C1414.38 130.6 1415.58 133.5 1415.58 136.8C1415.58 146.5 1407.38 156.6 1394.38 156.6C1390.58 156.6 1387.18 155.7 1384.58 154.1C1382.48 155.4 1381.58 156.8 1381.58 158.3C1381.58 159.9 1382.58 161 1385.68 162L1402.28 167.6C1409.28 169.9 1413.68 172.9 1413.68 178.8C1413.68 189.2 1400.88 197.4 1385.18 197.4ZM1394.58 152.1C1401.58 152.1 1404.78 139.1 1404.78 133.9C1404.78 129.8 1402.68 127.9 1400.08 127.9C1393.18 127.9 1389.98 140.7 1389.98 146.1C1389.98 150.2 1391.78 152.1 1394.58 152.1ZM1389.38 191.6C1397.78 191.6 1403.08 188.5 1403.08 183.7C1403.08 180.7 1400.98 179.1 1396.08 177.3L1385.88 173.9C1379.88 176.2 1376.38 179.4 1376.38 183.7C1376.38 188.8 1381.58 191.6 1389.38 191.6ZM1433.13 174.1C1424.53 174.1 1420.23 167.9 1420.23 159C1420.23 142.8 1433.73 123.2 1451.13 123.2C1458.13 123.2 1462.13 126.1 1462.13 131.3C1462.13 139.3 1452.63 145.3 1433.13 149.6C1432.53 152.3 1432.23 154.7 1432.23 156.6C1432.23 161.5 1434.23 164.6 1438.53 164.6C1442.83 164.6 1447.53 161.5 1454.13 154.4L1456.63 156.2C1448.73 168.4 1441.33 174.1 1433.13 174.1ZM1447.53 128.3C1441.43 128.3 1436.73 137 1434.23 145.4C1445.43 141.8 1451.03 137.7 1451.03 132.1C1451.03 129.6 1449.73 128.3 1447.53 128.3ZM938.823 294.3C919.923 294.3 906.023 280.9 906.023 259.7C906.023 237.3 921.623 221.8 943.223 221.8C949.323 221.8 953.723 223 966.923 223C965.823 227.5 965.623 228.4 966.123 231.5L968.623 246.6L964.923 247.4C958.723 233.3 952.923 227.1 943.523 227.1C930.823 227.1 922.323 238.2 922.323 255.5C922.323 272.7 930.623 283.4 945.023 283.4C953.323 283.4 961.223 280.5 968.223 269.9L971.323 271.6C962.923 288.8 951.323 294.3 938.823 294.3ZM1000.8 294.1C986.405 294.1 976.405 284.7 976.605 269C976.805 253.3 988.005 242.8 1002.8 242.8C1017.4 242.8 1027.4 252.2 1027.2 268C1027 283.6 1015.8 294.1 1000.8 294.1ZM1001.6 288.6C1007 288.6 1011.1 284.3 1011.2 269.1C1011.4 253.2 1007.6 248.2 1002 248.2C996.605 248.2 992.905 252.5 992.605 267.9C992.505 284.1 996.005 288.6 1001.6 288.6ZM1032.63 293V289.5L1036.13 288.4C1037.93 287.9 1038.23 287.5 1038.23 285.7V255.8C1038.23 254.2 1037.93 253.7 1036.53 252.7L1032.53 250.3V247.8L1050.93 242.7H1052.03L1052.93 250.6C1059.83 245.5 1064.83 242.6 1069.63 242.6C1076.13 242.6 1083.53 247.6 1083.53 254.2V285.7C1083.53 287.5 1083.83 287.8 1085.53 288.4L1088.83 289.5V293H1063.33V289.5L1066.73 288.4C1068.43 287.8 1068.73 287.5 1068.73 285.7V258.5C1068.73 255 1065.03 252.5 1061.13 252.5C1059.03 252.5 1056.63 253.2 1053.03 254.9V285.7C1053.03 287.5 1053.33 287.9 1055.03 288.4L1058.53 289.5V293H1032.63ZM1112.59 294.2C1102.59 294.2 1093.89 286.4 1093.89 272C1093.89 253.6 1106.89 242.9 1121.29 242.9C1122.99 242.9 1124.99 243.1 1127.09 243.6V229.4C1127.09 227.9 1126.79 227.4 1125.39 226.4L1121.39 223.8V221.4L1140.89 216H1141.89V282C1141.89 283.6 1142.19 284.3 1143.59 285.1L1146.49 286.6V289.1L1129.19 294.5H1128.19L1127.29 287.1C1122.29 291.4 1117.19 294.2 1112.59 294.2ZM1109.29 267.3C1109.29 278.8 1112.89 284.9 1120.19 284.9C1122.69 284.9 1124.99 284 1127.09 282.8V252.7C1124.99 250.2 1122.49 248.7 1119.69 248.7C1113.59 248.7 1109.29 254 1109.29 267.3ZM1164.29 236C1159.09 236 1155.49 232.8 1155.49 227.7C1155.49 222.7 1159.09 219.5 1164.29 219.5C1169.39 219.5 1172.79 222.5 1172.79 227.7C1172.79 232.8 1169.49 236 1164.29 236ZM1151.19 293V289.5L1154.69 288.4C1156.49 287.9 1156.79 287.5 1156.79 285.7V256C1156.79 254.4 1156.49 253.9 1155.09 252.9L1151.09 250.3V247.8L1170.49 242.5H1171.59V285.7C1171.59 287.5 1171.89 287.9 1173.59 288.4L1177.09 289.5V293H1151.19ZM1200.36 294.3C1192.86 294.3 1186.86 289.5 1186.86 283.1V249.8H1179.96V246.5L1200.56 233H1201.56V243.9H1215.66V249.8H1201.56V279.4C1201.56 283.4 1203.76 285.1 1207.96 285.1C1210.36 285.1 1212.56 284.4 1215.16 283.2L1217.16 286.3C1211.06 292 1205.76 294.3 1200.36 294.3ZM1233.33 236C1228.13 236 1224.53 232.8 1224.53 227.7C1224.53 222.7 1228.13 219.5 1233.33 219.5C1238.43 219.5 1241.83 222.5 1241.83 227.7C1241.83 232.8 1238.53 236 1233.33 236ZM1220.23 293V289.5L1223.73 288.4C1225.53 287.9 1225.83 287.5 1225.83 285.7V256C1225.83 254.4 1225.53 253.9 1224.13 252.9L1220.13 250.3V247.8L1239.53 242.5H1240.63V285.7C1240.63 287.5 1240.93 287.9 1242.63 288.4L1246.13 289.5V293H1220.23ZM1275.71 294.1C1261.31 294.1 1251.31 284.7 1251.51 269C1251.71 253.3 1262.91 242.8 1277.71 242.8C1292.31 242.8 1302.31 252.2 1302.11 268C1301.91 283.6 1290.71 294.1 1275.71 294.1ZM1276.51 288.6C1281.91 288.6 1286.01 284.3 1286.11 269.1C1286.31 253.2 1282.51 248.2 1276.91 248.2C1271.51 248.2 1267.81 252.5 1267.51 267.9C1267.41 284.1 1270.91 288.6 1276.51 288.6ZM1307.54 293V289.5L1311.04 288.4C1312.84 287.9 1313.14 287.5 1313.14 285.7V255.8C1313.14 254.2 1312.84 253.7 1311.44 252.7L1307.44 250.3V247.8L1325.84 242.7H1326.94L1327.84 250.6C1334.74 245.5 1339.74 242.6 1344.54 242.6C1351.04 242.6 1358.44 247.6 1358.44 254.2V285.7C1358.44 287.5 1358.74 287.8 1360.44 288.4L1363.74 289.5V293H1338.24V289.5L1341.64 288.4C1343.34 287.8 1343.64 287.5 1343.64 285.7V258.5C1343.64 255 1339.94 252.5 1336.04 252.5C1333.94 252.5 1331.54 253.2 1327.94 254.9V285.7C1327.94 287.5 1328.24 287.9 1329.94 288.4L1333.44 289.5V293H1307.54ZM1390.89 294.2C1377.39 294.2 1368.89 284.6 1368.89 270C1368.89 254.7 1378.89 242.8 1394.29 242.8C1408.19 242.8 1414.79 251.2 1413.59 266L1383.09 265.9C1383.69 278 1389.09 283.8 1397.19 283.8C1402.19 283.8 1406.99 282 1411.79 276.9L1414.69 279.1C1409.19 289.1 1402.39 294.2 1390.89 294.2ZM1392.19 248.1C1387.29 248 1383.69 251.9 1383.19 261.4L1399.69 260.3C1399.59 252.1 1397.19 248.1 1392.19 248.1ZM1419.35 293V289.5L1422.85 288.4C1424.65 287.9 1424.95 287.5 1424.95 285.7V255.8C1424.95 254.2 1424.65 253.7 1423.25 252.7L1419.25 250.3V247.8L1437.65 242.7H1438.75L1439.65 250.5C1444.75 245 1448.45 242.9 1452.05 242.9C1456.15 242.9 1459.55 245.5 1459.55 250.3C1459.55 255.3 1455.85 258.6 1450.75 259.1C1448.25 254.9 1446.65 253.2 1444.55 253.2C1443.15 253.2 1441.65 253.9 1439.75 255.3V285.7C1439.75 287.5 1440.05 287.9 1441.85 288.3L1446.95 289.5V293H1419.35ZM958.057 437.6C943.557 437.6 926.457 421.4 918.357 421.4C914.957 421.4 913.657 424.4 916.457 432C909.457 434.8 905.057 431.5 905.057 426.9C905.057 421.9 909.957 417.4 918.157 415.1L934.657 410.4V410C919.657 408.1 910.557 398.7 910.557 383.3C910.557 360.9 928.357 341.8 953.257 341.8C971.757 341.8 983.657 352.4 983.657 370.8C983.657 387.4 974.357 403.9 952.557 409.8L930.357 415.9V416.3C943.757 419.1 959.257 428.9 965.657 428.9C968.957 428.9 970.357 425.9 966.857 415.8C974.557 413 979.357 416.6 979.357 421.8C979.357 429.9 967.857 437.6 958.057 437.6ZM941.157 406C960.157 406 967.057 379.3 967.057 364.8C967.057 352.9 961.957 347 952.957 347C934.157 347 927.257 375.3 927.257 388.6C927.257 400 932.057 406 941.157 406ZM1022.43 414.1C1016.23 414.1 1013.83 410.4 1014.73 406.6L1017.13 397.5L1016.73 397.4C1007.63 409.5 1001.33 414 996.133 414C990.733 414 985.033 409.3 987.233 403.6L998.433 374.2C999.033 372.8 998.533 371.7 997.133 371.7C995.633 371.7 993.933 372.9 990.233 375.7L988.333 373.6C995.733 365.5 999.733 363.2 1004.43 363.2C1010.53 363.2 1014.23 367 1012.93 370.8L1002.63 401.1C1001.93 403.2 1002.63 404.3 1004.13 404.3C1006.43 404.3 1008.73 401.9 1018.83 390.3L1026.53 363.9H1041.03L1028.33 403.1C1027.93 404.6 1028.33 405.6 1029.73 405.6C1031.13 405.6 1032.93 404.4 1036.63 401.6L1038.43 403.7C1031.13 411.9 1027.13 414.1 1022.43 414.1ZM1051.66 413.8C1046.06 413.8 1042.26 410.3 1042.26 403.1C1042.26 387.9 1059.06 363.1 1074.66 363.1C1078.46 363.1 1081.56 364.6 1084.36 367.4L1086.96 362.8H1097.56L1084.26 402.6C1083.86 404 1084.16 405.1 1085.56 405.1C1087.06 405.1 1088.76 403.9 1092.46 401.1L1094.36 403.2C1087.06 411.4 1082.96 413.6 1078.26 413.6C1072.16 413.6 1069.46 409.9 1070.56 406L1073.76 395.6L1073.36 395.5C1065.46 408.3 1058.66 413.8 1051.66 413.8ZM1059.06 404C1063.76 404 1072.06 393.7 1080.96 374.4C1079.76 370.5 1078.06 368.3 1075.76 368.3C1067.96 368.3 1056.96 392.9 1056.96 401.1C1056.96 403.2 1057.76 404 1059.06 404ZM1135.03 413.7C1128.93 413.7 1125.23 409.9 1126.53 406.1L1136.83 375.8C1137.53 373.7 1136.83 372.6 1135.33 372.6C1133.03 372.6 1130.63 375 1120.33 386.5L1112.63 413H1098.23L1110.83 373.8C1111.23 372.3 1110.83 371.3 1109.53 371.3C1108.03 371.3 1106.33 372.5 1102.63 375.3L1100.73 373.2C1108.03 365 1112.13 362.8 1116.83 362.8C1122.93 362.8 1125.43 366.5 1124.53 370.3L1122.03 379.5L1122.43 379.6C1131.73 367.4 1138.03 362.7 1143.33 362.7C1148.73 362.7 1154.43 367.6 1152.23 373.3L1141.03 402.7C1140.43 404.1 1140.93 405.2 1142.33 405.2C1143.83 405.2 1145.53 404 1149.23 401.2L1151.13 403.3C1143.73 411.4 1139.73 413.7 1135.03 413.7ZM1166.45 414.2C1159.35 414.2 1155.25 410.1 1156.85 404.7L1167.15 369.6H1161.25V365L1168.75 364.1L1171.35 355.3L1184.85 352.5H1185.85L1182.65 363.9H1192.15V369.6H1180.95L1171.55 402.4C1171.05 404 1171.65 405.1 1173.15 405.1C1175.05 405.1 1176.95 403.4 1182.45 397.8L1184.85 400C1176.75 410.9 1172.75 414.2 1166.45 414.2ZM1214.03 356C1209.23 356 1206.23 353.1 1206.23 348.4C1206.23 343.1 1210.13 339.9 1215.13 339.9C1219.83 339.9 1222.73 342.7 1222.73 347.4C1222.73 352.7 1219.23 356 1214.03 356ZM1201.23 413.7C1195.13 413.7 1191.63 409.9 1192.83 406.1L1203.03 373.8C1203.43 372.4 1203.13 371.3 1201.73 371.3C1200.23 371.3 1198.53 372.5 1194.83 375.3L1192.93 373.2C1200.23 365 1204.33 362.8 1209.03 362.8C1215.13 362.8 1219.43 366.7 1217.43 372.3L1207.23 402.7C1206.83 404.1 1207.13 405.2 1208.53 405.2C1210.03 405.2 1211.73 404 1215.43 401.2L1217.33 403.3C1210.03 411.4 1205.93 413.7 1201.23 413.7ZM1208.17 437.3C1200.67 437.3 1197.67 434 1197.67 429.8C1197.67 424.8 1201.97 421.9 1208.27 422.5C1208.17 428 1209.67 431.3 1213.27 431.3C1217.97 431.3 1221.47 426.1 1223.97 414.5L1233.57 369.6H1225.87V364.9L1234.87 364C1239.17 348.1 1253.87 336 1268.07 336C1275.77 336 1281.77 339.6 1281.77 345.9C1281.77 351 1276.97 355 1269.67 353.6C1268.17 345.1 1264.77 342.6 1261.27 342.6C1256.57 342.6 1252.07 347.2 1249.57 358.8L1248.57 363.9H1263.07C1264.77 362.9 1266.47 362.5 1268.27 362.5C1274.67 362.5 1278.47 366.7 1276.77 371.8L1266.37 402.7C1265.97 404.1 1266.27 405.2 1267.67 405.2C1269.17 405.2 1270.87 404 1274.57 401.2L1276.47 403.3C1269.17 411.4 1265.07 413.7 1260.37 413.7C1254.27 413.7 1250.77 409.9 1251.97 406.1L1262.57 372.4C1263.07 371 1262.37 369.6 1260.67 369.6H1247.27L1239.17 407.5C1235.57 424.3 1222.97 437.3 1208.17 437.3ZM1289.55 413.8C1283.95 413.8 1280.15 410.3 1280.15 403.1C1280.15 387.9 1296.95 363.1 1312.55 363.1C1316.35 363.1 1319.45 364.6 1322.25 367.4L1324.85 362.8H1335.45L1322.15 402.6C1321.75 404 1322.05 405.1 1323.45 405.1C1324.95 405.1 1326.65 403.9 1330.35 401.1L1332.25 403.2C1324.95 411.4 1320.85 413.6 1316.15 413.6C1310.05 413.6 1307.35 409.9 1308.45 406L1311.65 395.6L1311.25 395.5C1303.35 408.3 1296.55 413.8 1289.55 413.8ZM1296.95 404C1301.65 404 1309.95 393.7 1318.85 374.4C1317.65 370.5 1315.95 368.3 1313.65 368.3C1305.85 368.3 1294.85 392.9 1294.85 401.1C1294.85 403.2 1295.65 404 1296.95 404ZM1351.04 414C1340.44 414 1335.54 408 1337.34 401L1350.14 349.4C1350.44 348 1350.14 347.5 1348.84 346.6L1344.84 344V341.5L1366.64 336H1367.84L1357.04 377.5L1357.44 377.6C1366.44 366.3 1371.94 362.5 1377.74 362.5C1383.34 362.5 1386.64 366.1 1386.64 373.3C1386.64 388.5 1372.24 414 1351.04 414ZM1354.44 407.9C1363.84 407.9 1371.54 381.8 1371.54 375.1C1371.54 373.2 1370.84 372.3 1369.74 372.3C1367.14 372.3 1361.84 377.3 1354.94 386.1L1350.94 401.3C1349.94 405.2 1351.44 407.9 1354.44 407.9ZM1397.67 413.7C1391.57 413.7 1388.47 410 1389.37 406.1L1403.27 349.4C1403.67 348 1403.37 347.5 1402.07 346.6L1398.07 344V341.6L1419.67 336H1420.87L1403.67 402.7C1403.27 404.1 1403.67 405.2 1405.07 405.2C1406.47 405.2 1408.27 404 1411.97 401.2L1413.77 403.3C1406.47 411.4 1402.37 413.7 1397.67 413.7ZM1432.38 414.1C1422.58 414.1 1417.98 407.3 1417.98 398C1417.98 381.2 1431.78 362.6 1449.88 362.6C1457.68 362.6 1462.28 365.8 1462.28 371.4C1462.28 379.5 1452.88 385.3 1432.88 389.6C1432.48 391.7 1432.28 393.6 1432.28 395.2C1432.28 400.3 1434.28 403.5 1438.78 403.5C1442.98 403.5 1447.68 400.7 1454.38 393.5L1456.98 395.5C1448.58 408.7 1441.18 414.1 1432.38 414.1ZM1446.18 368C1440.38 368 1436.08 376.8 1433.88 385C1444.08 381.6 1449.48 377.5 1449.48 371.9C1449.48 369.2 1448.18 368 1446.18 368ZM968.297 533.5C957.597 533.9 953.297 531.3 949.897 524.9C947.297 520.1 945.197 513.5 941.797 504.6C940.697 501.8 939.997 501.2 937.397 501.2H932.097V525.2C932.097 527.1 932.697 527.6 934.297 528L940.297 529.5V533H904.697V529.5L909.697 528.1C911.397 527.6 911.897 527 911.897 525.3V470.8C911.897 468.9 911.297 468.3 909.697 467.9L904.697 466.6V463H944.597C960.397 463 968.497 469.5 968.497 479.3C968.497 487.2 963.297 492.2 955.097 494.6C962.297 508.6 969.797 520.2 973.097 524.2C974.897 526.5 976.197 527.5 979.397 528.7L981.297 529.4V533L968.297 533.5ZM936.697 468.8H932.097V495.8H937.497C944.497 495.8 948.597 491.3 948.597 482.1C948.597 473.3 944.797 468.8 936.697 468.8ZM1003.49 534.2C989.392 534.2 980.792 524 980.792 509.7C980.792 493.8 991.592 482.1 1007.29 482.1C1022.79 482.1 1029.09 491.4 1027.89 505.7H998.092C998.792 517.6 1004.29 522.3 1011.39 522.3C1016.09 522.3 1020.89 520.9 1025.89 515.5L1028.89 517.8C1023.09 529 1016.29 534.2 1003.49 534.2ZM1005.19 487.6C1001.19 487.6 998.392 491.6 997.992 500.9L1011.29 499.8C1011.19 491.6 1009.29 487.6 1005.19 487.6ZM1032.43 533V529.5L1035.33 528.4C1037.03 527.8 1037.33 527.3 1037.33 525.5V470.2C1037.33 468.7 1037.03 468.2 1035.73 467L1032.33 464V461.6L1054.23 456H1055.33V525.5C1055.33 527.3 1055.63 527.8 1057.33 528.4L1060.23 529.5V533H1032.43ZM1089.49 534.1C1074.19 534.1 1063.99 524.7 1064.29 508.6C1064.59 492.4 1076.29 482.1 1091.79 482.1C1107.09 482.1 1117.39 491.4 1116.99 507.6C1116.79 523.8 1105.09 534.1 1089.49 534.1ZM1090.29 528.3C1094.89 528.3 1097.79 523.8 1097.99 508.8C1098.29 492.9 1095.59 487.8 1090.99 487.8C1086.39 487.8 1083.79 492.3 1083.39 507.5C1083.19 523.8 1085.69 528.3 1090.29 528.3ZM1145.19 534.2C1132.29 534.2 1122.59 526 1122.59 510.1C1122.59 492.8 1134.29 482.1 1150.79 482.1C1161.29 482.1 1168.29 486.2 1168.29 493C1168.29 499 1162.79 502.6 1154.29 502C1152.99 491.3 1151.09 488.1 1147.39 488.1C1142.89 488.1 1140.39 493.1 1140.39 502.7C1140.39 515.2 1145.29 521.6 1153.19 521.6C1157.29 521.6 1161.09 520 1165.89 514.8L1168.99 517.1C1162.99 528.9 1156.29 534.2 1145.19 534.2ZM1186.86 534.4C1180.06 534.4 1173.56 530.2 1173.56 522.3C1173.56 516.1 1176.96 509.3 1201.16 505.6V496.3C1201.16 492.4 1197.96 489.2 1193.66 489.2C1187.86 489.2 1188.46 494.4 1190.56 500.9C1184.26 505.5 1174.76 503.7 1174.76 497.6C1174.76 488.6 1195.36 482 1204.06 482C1211.96 482 1219.16 487 1219.16 493.6V523.1C1219.16 525.5 1219.96 526 1221.46 526C1222.46 526 1223.26 525.8 1224.26 525.4L1225.46 528.1C1221.66 531.5 1217.66 533.7 1212.16 533.7C1206.56 533.7 1202.96 531.4 1201.66 527.3C1194.86 532.7 1190.46 534.4 1186.86 534.4ZM1190.26 517.3C1190.26 521.8 1193.76 524.6 1196.86 524.6C1197.96 524.6 1199.46 524.3 1201.16 523.6V510C1192.46 511.7 1190.26 513.9 1190.26 517.3ZM1246.66 534.4C1238.26 534.4 1232.46 529.2 1232.46 522.8V489.5H1225.96V486.1L1249.26 471.1H1250.26V483.2H1263.26V489.5H1250.26V518.9C1250.26 522.5 1251.86 524 1255.66 524C1258.16 524 1260.16 523.2 1262.46 522.2L1264.76 525.4C1258.36 531.8 1252.76 534.4 1246.66 534.4ZM1281.29 476.7C1275.29 476.7 1271.29 473 1271.29 467.3C1271.29 461.7 1275.29 458 1281.29 458C1287.09 458 1290.89 461.4 1290.89 467.3C1290.89 473.1 1287.19 476.7 1281.29 476.7ZM1267.19 533V529.5L1270.09 528.4C1271.79 527.8 1272.09 527.3 1272.09 525.5V496.1C1272.09 494.5 1271.89 494 1270.49 492.8L1267.09 489.9V487.4L1288.99 481.9H1290.09V525.5C1290.09 527.3 1290.39 527.8 1292.09 528.4L1294.99 529.5V533H1267.19ZM1324.74 534.1C1309.44 534.1 1299.24 524.7 1299.54 508.6C1299.84 492.4 1311.54 482.1 1327.04 482.1C1342.34 482.1 1352.64 491.4 1352.24 507.6C1352.04 523.8 1340.34 534.1 1324.74 534.1ZM1325.54 528.3C1330.14 528.3 1333.04 523.8 1333.24 508.8C1333.54 492.9 1330.84 487.8 1326.24 487.8C1321.64 487.8 1319.04 492.3 1318.64 507.5C1318.44 523.8 1320.94 528.3 1325.54 528.3ZM1356.84 533V529.5L1359.74 528.4C1361.44 527.8 1361.74 527.3 1361.74 525.5V496.1C1361.74 494.5 1361.54 494 1360.14 492.8L1356.74 489.9V487.4L1377.74 482.1H1378.74L1379.64 490.3C1386.04 485.2 1391.54 481.8 1396.84 481.8C1403.24 481.8 1410.64 486.8 1410.64 493.4V525.5C1410.64 527.3 1410.94 527.7 1412.64 528.4L1415.44 529.5V533H1387.84V529.5L1390.64 528.4C1392.34 527.7 1392.64 527.3 1392.64 525.5V497.9C1392.64 495.1 1389.64 493 1386.64 493C1384.84 493 1383.04 493.5 1379.74 494.9V525.5C1379.74 527.3 1380.04 527.8 1381.74 528.4L1384.64 529.5V533H1356.84ZM1436.67 533.8C1432.37 533.8 1428.17 533 1420.77 533C1421.57 527.9 1421.57 527.5 1421.27 524.4L1420.07 514.4L1423.57 513.5C1430.77 522.9 1435.27 527.9 1439.97 527.9C1442.67 527.9 1444.67 526.1 1444.67 523.4C1444.67 520.8 1443.07 519.1 1439.77 517.2L1430.37 511.7C1423.87 508 1420.27 504.4 1420.27 497.8C1420.27 488.3 1428.37 482.4 1440.37 482.4C1445.17 482.4 1446.97 483.2 1455.47 483.2C1454.97 487.2 1454.97 487.8 1455.27 490.1L1456.37 498.4L1452.97 499.4C1445.47 489.9 1442.47 487.5 1438.37 487.5C1435.27 487.5 1433.47 489.4 1433.47 491.9C1433.47 494.2 1435.07 495.7 1437.97 497.3L1447.87 502.7C1454.97 506.6 1457.77 510.2 1457.77 516.1C1457.77 526.5 1449.97 533.8 1436.67 533.8ZM901.471 653V649.5L906.971 648C908.471 647.6 908.971 647.2 909.371 645.5L920.871 590.8C921.171 589.4 921.071 588.4 919.371 587.9L914.671 586.6V583H970.671C968.871 588.6 968.771 588.9 968.971 591.1L969.971 605.5L966.671 606.6L957.371 592.9C954.571 588.8 954.071 588.8 949.771 588.8H940.671L935.271 614.6H942.971C946.871 614.6 947.571 614.1 950.171 610.8L953.871 606.1L957.271 606.8C954.371 617 953.871 618 952.371 628.5L949.171 628.8L947.571 624.2C946.471 621.1 945.671 620.4 941.271 620.4H934.071L928.371 647.4H937.771C941.371 647.4 942.171 647.3 947.071 643.2L964.071 628.7L967.071 630.4L960.271 645.5C959.271 647.7 958.771 649.1 958.871 653H901.471ZM979.915 653.7C973.015 653.7 969.415 649.6 970.515 645.3L984.115 590.1C984.415 588.8 984.115 588.3 982.915 587.3L979.515 584.3V581.9L1004.21 576H1005.51L988.015 641.7C987.615 643 987.815 644 989.115 644C990.515 644 992.115 642.9 995.615 640.2L997.515 642.4C990.015 651 985.415 653.7 979.915 653.7ZM1010.28 653.8C1004.08 653.8 999.779 650.1 999.779 641.8C999.779 625.8 1015.38 601.8 1031.38 601.8C1034.88 601.8 1037.88 603.1 1039.98 604.9L1043.08 590.1C1043.38 588.8 1043.08 588.3 1041.88 587.3L1038.48 584.3V581.9L1063.18 576H1064.48L1047.08 641.7C1046.78 643 1046.88 644 1048.18 644C1049.58 644 1051.18 642.9 1054.68 640.2L1056.58 642.4C1049.08 651 1044.48 653.7 1038.98 653.7C1032.08 653.7 1029.28 649.6 1030.38 645.3L1033.28 633.8L1032.88 633.7C1024.78 648.4 1018.28 653.8 1010.28 653.8ZM1019.38 642.5C1023.58 642.5 1029.88 632.9 1038.98 612.7C1037.58 609.2 1035.78 607.7 1033.98 607.7C1026.68 607.7 1017.48 632.4 1017.48 639.7C1017.48 641.7 1018.18 642.5 1019.38 642.5ZM1076.67 654.1C1065.37 654.1 1060.17 646.6 1060.17 636.5C1060.17 618.9 1074.37 601.8 1093.47 601.8C1102.47 601.8 1107.87 605.4 1107.87 611.6C1107.87 619.7 1098.57 625.2 1077.97 629.5C1077.77 630.9 1077.67 632.2 1077.67 633.3C1077.67 638.7 1079.77 642 1084.47 642C1088.47 642 1093.27 639.6 1100.07 632.3L1102.77 634.4C1093.67 649.1 1086.47 654.1 1076.67 654.1ZM1089.67 607.6C1084.37 607.6 1080.57 616.6 1078.77 624.5C1087.77 621.3 1092.77 617.3 1092.77 611.5C1092.77 608.7 1091.47 607.6 1089.67 607.6ZM1106.8 653L1119.4 613.9C1119.8 612.6 1119.6 611.6 1118.3 611.6C1116.9 611.6 1115.3 612.7 1111.8 615.4L1109.9 613.2C1117.4 604.6 1122 601.9 1127.5 601.9C1134.4 601.9 1137.2 606 1136.2 610.2L1135.1 614.7L1135.5 614.8C1142.5 604.4 1146.5 602 1150.6 602C1154.9 602 1158 604.8 1158 609.4C1158 614.3 1154.7 617.4 1149.6 618.7C1147.6 615 1146.4 613.7 1144.6 613.7C1142.3 613.7 1139.5 616 1133.1 623.3L1124.5 653H1106.8ZM1144.14 677.3C1135.54 677.3 1132.54 673.3 1132.54 669C1132.54 663.4 1137.44 660.3 1144.64 661.1C1144.34 667 1145.84 671.1 1149.54 671.1C1153.44 671.1 1156.54 666.8 1158.44 656.8L1167.54 609.3H1159.54V604.2L1168.74 603.2C1172.94 587.9 1186.94 576 1201.94 576C1207.74 576 1215.24 577.7 1224.14 581.2L1207.94 641.7C1207.54 643 1207.74 644 1209.04 644C1210.44 644 1212.04 642.9 1215.54 640.2L1217.44 642.4C1209.94 651 1205.34 653.7 1199.84 653.7C1192.94 653.7 1189.34 649.6 1190.44 645.3L1204.34 589.3C1200.84 585.2 1197.34 582.9 1194.44 582.9C1191.24 582.9 1189.14 585.8 1188.04 591.7L1185.84 603.2H1194.74V609.3H1184.64L1177.34 647.3C1174.24 663.3 1160.04 677.3 1144.14 677.3ZM1239.91 654.1C1226.71 654.1 1221.11 645.6 1221.11 635C1221.11 618.2 1234.51 601.8 1252.21 601.8C1265.51 601.8 1271.51 609.7 1271.51 620.3C1271.51 634.7 1260.31 654.1 1239.91 654.1ZM1240.61 648.2C1248.81 648.2 1255.21 619.2 1255.21 612.2C1255.21 609.1 1254.11 607.3 1252.01 607.3C1243.71 607.3 1237.41 636 1237.41 643.2C1237.41 646.3 1238.51 648.2 1240.61 648.2ZM1297.2 654.1C1288.2 654.1 1283.1 648.4 1283.1 641.1C1283.1 630.8 1294 621.6 1302.8 615L1302.7 614.6H1289.9C1285.7 614.6 1284.3 616.2 1284.3 618.3C1284.3 620 1285.3 622.6 1286.9 625.1C1282.3 629.4 1274.6 628.6 1275 621.7C1275.4 614.3 1287.3 603.2 1296.1 603.2H1314.6V607.4C1308 617.7 1300.8 626.9 1300.8 633.8C1300.8 637.4 1302.7 639.2 1306.6 639.2C1309 639.2 1311.9 638.5 1315.2 637.2C1314.9 634.9 1314.8 632.6 1314.8 630.2C1314.8 617.7 1318.4 601.8 1332.1 601.8C1339.6 601.8 1342.8 606.5 1342.8 612.8C1342.8 620.8 1337.7 629.2 1326.3 636.7C1328.2 637.6 1330.6 638 1333.5 638C1346.7 638 1357.3 626.4 1357.3 618.7C1357.3 615 1354.8 613.6 1346.8 612.6C1347.6 605.4 1351.2 601.9 1356.5 601.9C1362.2 601.9 1364.4 605.8 1364.4 611.9C1364.4 627.3 1352.1 654.1 1331.5 654.1C1323.1 654.1 1318.7 649.8 1316.6 643.6C1311.2 650.2 1304.5 654.1 1297.2 654.1ZM1321 626.9C1321 629.6 1321.5 631.7 1322.6 633.4C1329 628.6 1331.5 623.7 1331.5 620.4C1331.5 618.4 1330.2 616.9 1327.7 616.9C1323.5 616.9 1321 621.1 1321 626.9ZM1382.33 654.1C1371.03 654.1 1365.83 646.6 1365.83 636.5C1365.83 618.9 1380.03 601.8 1399.13 601.8C1408.13 601.8 1413.53 605.4 1413.53 611.6C1413.53 619.7 1404.23 625.2 1383.63 629.5C1383.43 630.9 1383.33 632.2 1383.33 633.3C1383.33 638.7 1385.43 642 1390.13 642C1394.13 642 1398.93 639.6 1405.73 632.3L1408.43 634.4C1399.33 649.1 1392.13 654.1 1382.33 654.1ZM1395.33 607.6C1390.03 607.6 1386.23 616.6 1384.43 624.5C1393.43 621.3 1398.43 617.3 1398.43 611.5C1398.43 608.7 1397.13 607.6 1395.33 607.6ZM1412.46 653L1425.06 613.9C1425.46 612.6 1425.26 611.6 1423.96 611.6C1422.56 611.6 1420.96 612.7 1417.46 615.4L1415.56 613.2C1423.06 604.6 1427.66 601.9 1433.16 601.9C1440.06 601.9 1442.86 606 1441.86 610.2L1440.76 614.7L1441.16 614.8C1448.16 604.4 1452.16 602 1456.26 602C1460.56 602 1463.66 604.8 1463.66 609.4C1463.66 614.3 1460.36 617.4 1455.26 618.7C1453.26 615 1452.06 613.7 1450.26 613.7C1447.96 613.7 1445.16 616 1438.76 623.3L1430.16 653H1412.46Z" fill="black"/>
<line x1="800.5" y1="100" x2="800.5" y2="668" stroke="black"/>
</svg>
