<svg width="1800" height="540" viewBox="0 0 1800 540" fill="none" xmlns="http://www.w3.org/2000/svg">
<rect width="1800" height="540" fill="#DFE1E0"/>
<path d="M836.6 122.64V138.16H839.288V123.152C839.288 118.256 840.792 116.752 845.688 116.752H847.704V114.32H844.92C839.192 114.32 836.6 116.912 836.6 122.64ZM847.371 116.752H866.891V114.32H847.371V116.752ZM866.559 116.752H886.079V114.32H866.559V116.752ZM885.746 116.752H905.266V114.32H885.746V116.752ZM904.934 116.752H924.454V114.32H904.934V116.752ZM924.121 116.752H943.641V114.32H924.121V116.752ZM951.725 123.152V138.16H954.413V122.64C954.413 116.912 951.821 114.32 946.093 114.32H943.309V116.752H945.325C950.221 116.752 951.725 118.256 951.725 123.152ZM836.6 170.16H839.288V125.36H836.6V170.16ZM874.271 158H878.367V151.6L884.991 135.92H880.575L877.727 142.96L876.831 146.896H875.871L874.975 142.96L872.127 135.92H867.647L874.271 151.6V158ZM895.506 158.32C900.658 158.32 903.346 155.44 903.346 149.584C903.346 143.76 900.658 140.88 895.506 140.88C890.354 140.88 887.666 143.76 887.666 149.584C887.666 155.44 890.354 158.32 895.506 158.32ZM891.858 149.584C891.858 145.872 892.978 144.336 895.506 144.336C898.034 144.336 899.154 145.872 899.154 149.584C899.154 153.296 898.034 154.864 895.506 154.864C892.978 154.864 891.858 153.328 891.858 149.584ZM921.83 141.2H917.798V151.536C917.798 153.616 916.678 154.704 914.534 154.704C912.486 154.704 911.526 153.712 911.526 151.536V141.2H907.494V152.656C907.494 156.432 909.286 158.32 912.966 158.32C914.502 158.32 915.718 158 916.518 157.232L917.478 156.272H918.374L918.822 158H921.83V141.2ZM951.725 170.16H954.413V125.36H951.725V170.16ZM844.92 180.752H847.704V178.32H845.688C840.792 178.32 839.288 176.816 839.288 171.92V157.36H836.6V172.432C836.6 178.16 839.192 180.752 844.92 180.752ZM847.371 180.752H866.891V178.32H847.371V180.752ZM866.559 180.752H886.079V178.32H866.559V180.752ZM894.162 202.16H896.85V180.752H905.266V178.32H885.746V180.752H894.162V202.16ZM904.934 180.752H924.454V178.32H904.934V180.752ZM924.121 180.752H943.641V178.32H924.121V180.752ZM943.309 180.752H946.093C951.821 180.752 954.413 178.16 954.413 172.432V157.36H951.725V171.92C951.725 176.816 950.221 178.32 945.325 178.32H943.309V180.752ZM740.662 218.64V234.16H743.35V219.152C743.35 214.256 744.854 212.752 749.75 212.752H751.766V210.32H748.982C743.254 210.32 740.662 212.912 740.662 218.64ZM751.434 212.752H770.954V210.32H751.434V212.752ZM770.621 212.752H790.141V210.32H770.621V212.752ZM789.809 212.752H809.329V210.32H789.809V212.752ZM808.996 212.752H828.516V210.32H808.996V212.752ZM828.184 212.752H847.704V210.32H828.184V212.752ZM847.371 212.752H866.891V210.32H847.371V212.752ZM866.559 212.752H886.079V210.32H866.559V212.752ZM885.746 212.752H905.266V210.32H896.85V189.36H894.162V210.32H885.746V212.752ZM904.934 212.752H924.454V210.32H904.934V212.752ZM924.121 212.752H943.641V210.32H924.121V212.752ZM943.309 212.752H962.829V210.32H943.309V212.752ZM962.496 212.752H982.016V210.32H962.496V212.752ZM981.684 212.752H1001.2V210.32H981.684V212.752ZM1000.87 212.752H1020.39V210.32H1000.87V212.752ZM1020.06 212.752H1039.58V210.32H1020.06V212.752ZM1047.66 219.152V234.16H1050.35V218.64C1050.35 212.912 1047.76 210.32 1042.03 210.32H1039.25V212.752H1041.26C1046.16 212.752 1047.66 214.256 1047.66 219.152ZM740.662 266.16H743.35V221.36H740.662V266.16ZM816.708 254H820.804V247.6L827.428 231.92H823.012L820.164 238.96L819.268 242.896H818.308L817.412 238.96L814.564 231.92H810.084L816.708 247.6V254ZM837.944 254.32C843.096 254.32 845.784 251.44 845.784 245.584C845.784 239.76 843.096 236.88 837.944 236.88C832.792 236.88 830.104 239.76 830.104 245.584C830.104 251.44 832.792 254.32 837.944 254.32ZM834.296 245.584C834.296 241.872 835.416 240.336 837.944 240.336C840.472 240.336 841.592 241.872 841.592 245.584C841.592 249.296 840.472 250.864 837.944 250.864C835.416 250.864 834.296 249.328 834.296 245.584ZM864.267 237.2H860.235V247.536C860.235 249.616 859.115 250.704 856.971 250.704C854.923 250.704 853.963 249.712 853.963 247.536V237.2H849.931V248.656C849.931 252.432 851.723 254.32 855.403 254.32C856.939 254.32 858.155 254 858.955 253.232L859.915 252.272H860.811L861.259 254H864.267V237.2ZM868.543 254H882.687V250.576H877.311V243.536C877.311 241.552 878.431 240.528 880.607 240.528H884.799V236.88H882.047C880.511 236.88 879.295 237.2 878.495 237.968L877.567 238.928H876.639L876.223 237.2H869.119V240.624H873.279V250.576H868.543V254ZM914.694 254.32C919.59 254.32 922.246 252.432 922.246 248.816C922.246 246.128 920.742 244.656 917.286 243.984L913.382 243.216C912.262 242.992 911.686 242.48 911.686 241.616C911.686 240.464 912.742 239.792 914.662 239.792C916.582 239.792 917.83 240.464 918.022 241.936H921.83C921.638 238.256 918.662 236.88 914.79 236.88C910.342 236.88 907.846 238.704 907.846 242.064C907.846 244.464 909.19 246 912.134 246.576L916.198 247.376C917.542 247.664 918.214 248.272 918.214 249.264C918.214 250.608 916.998 251.312 914.822 251.312C912.678 251.312 911.366 250.608 911.27 248.912H907.302C907.43 252.88 910.342 254.32 914.694 254.32ZM934.073 254.32C938.361 254.32 941.017 252.304 941.401 248.88H937.657C937.369 250.448 936.057 251.184 934.201 251.184C931.609 251.184 930.361 249.712 930.201 246.256H941.465C942.073 239.792 939.513 236.88 934.169 236.88C928.985 236.88 926.201 239.76 926.201 245.584C926.201 251.44 928.953 254.32 934.073 254.32ZM930.329 243.632C930.713 241.104 931.929 239.92 934.169 239.92C936.537 239.92 937.657 241.232 937.721 243.632H930.329ZM945.293 254H959.437V250.576H954.061V243.536C954.061 241.552 955.181 240.528 957.357 240.528H961.549V236.88H958.797C957.261 236.88 956.045 237.2 955.245 237.968L954.317 238.928H953.389L952.973 237.2H945.869V240.624H950.029V250.576H945.293V254ZM968.736 254H975.776L980.544 237.2H976.384L972.832 250.416H971.776L968.224 237.2H963.968L968.736 254ZM991.636 254.32C995.924 254.32 998.58 252.304 998.964 248.88H995.22C994.932 250.448 993.62 251.184 991.764 251.184C989.172 251.184 987.924 249.712 987.764 246.256H999.028C999.636 239.792 997.076 236.88 991.732 236.88C986.548 236.88 983.764 239.76 983.764 245.584C983.764 251.44 986.516 254.32 991.636 254.32ZM987.892 243.632C988.276 241.104 989.492 239.92 991.732 239.92C994.1 239.92 995.22 241.232 995.284 243.632H987.892ZM1002.86 254H1017V250.576H1011.62V243.536C1011.62 241.552 1012.74 240.528 1014.92 240.528H1019.11V236.88H1016.36C1014.82 236.88 1013.61 237.2 1012.81 237.968L1011.88 238.928H1010.95L1010.54 237.2H1003.43V240.624H1007.59V250.576H1002.86V254ZM1047.66 266.16H1050.35V221.36H1047.66V266.16ZM748.982 276.752H751.766V274.32H749.75C744.854 274.32 743.35 272.816 743.35 267.92V253.36H740.662V268.432C740.662 274.16 743.254 276.752 748.982 276.752ZM751.434 276.752H770.954V274.32H751.434V276.752ZM770.621 276.752H790.141V274.32H770.621V276.752ZM789.809 276.752H809.329V274.32H789.809V276.752ZM808.996 276.752H828.516V274.32H808.996V276.752ZM828.184 276.752H847.704V274.32H828.184V276.752ZM847.371 276.752H866.891V274.32H847.371V276.752ZM866.559 276.752H886.079V274.32H866.559V276.752ZM894.162 298.16H896.85V276.752H905.266V274.32H885.746V276.752H894.162V298.16ZM904.934 276.752H924.454V274.32H904.934V276.752ZM924.121 276.752H943.641V274.32H924.121V276.752ZM943.309 276.752H962.829V274.32H943.309V276.752ZM962.496 276.752H982.016V274.32H962.496V276.752ZM981.684 276.752H1001.2V274.32H981.684V276.752ZM1000.87 276.752H1020.39V274.32H1000.87V276.752ZM1020.06 276.752H1039.58V274.32H1020.06V276.752ZM1039.25 276.752H1042.03C1047.76 276.752 1050.35 274.16 1050.35 268.432V253.36H1047.66V267.92C1047.66 272.816 1046.16 274.32 1041.26 274.32H1039.25V276.752ZM625.537 314.64V330.16H628.225V315.152C628.225 310.256 629.729 308.752 634.625 308.752H636.641V306.32H633.857C628.129 306.32 625.537 308.912 625.537 314.64ZM636.309 308.752H655.829V306.32H636.309V308.752ZM655.496 308.752H675.016V306.32H655.496V308.752ZM674.684 308.752H694.204V306.32H674.684V308.752ZM693.871 308.752H713.391V306.32H693.871V308.752ZM713.059 308.752H732.579V306.32H713.059V308.752ZM732.246 308.752H751.766V306.32H732.246V308.752ZM751.434 308.752H770.954V306.32H751.434V308.752ZM779.037 330.16H781.725V308.752H790.141V306.32H770.621V308.752H779.037V330.16ZM789.809 308.752H809.329V306.32H789.809V308.752ZM808.996 308.752H828.516V306.32H808.996V308.752ZM828.184 308.752H847.704V306.32H828.184V308.752ZM847.371 308.752H866.891V306.32H847.371V308.752ZM866.559 308.752H886.079V306.32H866.559V308.752ZM885.746 308.752H905.266V306.32H896.85V285.36H894.162V306.32H885.746V308.752ZM904.934 308.752H924.454V306.32H904.934V308.752ZM924.121 308.752H943.641V306.32H924.121V308.752ZM943.309 308.752H962.829V306.32H943.309V308.752ZM962.496 308.752H982.016V306.32H962.496V308.752ZM981.684 308.752H1001.2V306.32H981.684V308.752ZM1000.87 308.752H1020.39V306.32H1000.87V308.752ZM1028.47 330.16H1031.16V308.752H1039.58V306.32H1020.06V308.752H1028.47V330.16ZM1039.25 308.752H1058.77V306.32H1039.25V308.752ZM1058.43 308.752H1077.95V306.32H1058.43V308.752ZM1077.62 308.752H1097.14V306.32H1077.62V308.752ZM1096.81 308.752H1116.33V306.32H1096.81V308.752ZM1116 308.752H1135.52V306.32H1116V308.752ZM1135.18 308.752H1154.7V306.32H1135.18V308.752ZM1154.37 308.752H1173.89V306.32H1154.37V308.752ZM1181.97 315.152V330.16H1184.66V314.64C1184.66 308.912 1182.07 306.32 1176.34 306.32H1173.56V308.752H1175.57C1180.47 308.752 1181.97 310.256 1181.97 315.152ZM452.85 346.64V362.16H455.538V347.152C455.538 342.256 457.042 340.752 461.938 340.752H463.954V338.32H461.17C455.442 338.32 452.85 340.912 452.85 346.64ZM463.621 340.752H483.141V338.32H463.621V340.752ZM482.809 340.752H502.329V338.32H482.809V340.752ZM501.996 340.752H521.516V338.32H501.996V340.752ZM521.184 340.752H540.704V338.32H521.184V340.752ZM540.371 340.752H559.891V338.32H540.371V340.752ZM559.559 340.752H579.079V338.32H559.559V340.752ZM578.746 340.752H598.266V338.32H578.746V340.752ZM597.934 340.752H617.454V338.32H597.934V340.752ZM617.121 340.752H636.641V338.32H628.225V317.36H625.537V338.32H617.121V340.752ZM636.309 340.752H655.829V338.32H636.309V340.752ZM663.912 347.152V362.16H666.6V346.64C666.6 340.912 664.008 338.32 658.28 338.32H655.496V340.752H657.512C662.408 340.752 663.912 342.256 663.912 347.152ZM683.1 346.64V362.16H685.788V347.152C685.788 342.256 687.292 340.752 692.188 340.752H694.204V338.32H691.42C685.692 338.32 683.1 340.912 683.1 346.64ZM693.871 340.752H713.391V338.32H693.871V340.752ZM713.059 340.752H732.579V338.32H713.059V340.752ZM732.246 340.752H751.766V338.32H732.246V340.752ZM751.434 340.752H770.954V338.32H751.434V340.752ZM770.621 340.752H790.141V338.32H781.725V317.36H779.037V338.32H770.621V340.752ZM789.809 340.752H809.329V338.32H789.809V340.752ZM808.996 340.752H828.516V338.32H808.996V340.752ZM828.184 340.752H847.704V338.32H828.184V340.752ZM847.371 340.752H866.891V338.32H847.371V340.752ZM866.559 340.752H886.079V338.32H866.559V340.752ZM894.162 347.152V362.16H896.85V346.64C896.85 340.912 894.258 338.32 888.53 338.32H885.746V340.752H887.762C892.658 340.752 894.162 342.256 894.162 347.152ZM913.35 346.64V362.16H916.038V347.152C916.038 342.256 917.542 340.752 922.438 340.752H924.454V338.32H921.67C915.942 338.32 913.35 340.912 913.35 346.64ZM924.121 340.752H943.641V338.32H924.121V340.752ZM943.309 340.752H962.829V338.32H943.309V340.752ZM962.496 340.752H982.016V338.32H962.496V340.752ZM981.684 340.752H1001.2V338.32H981.684V340.752ZM1000.87 340.752H1020.39V338.32H1000.87V340.752ZM1020.06 340.752H1039.58V338.32H1031.16V317.36H1028.47V338.32H1020.06V340.752ZM1039.25 340.752H1058.77V338.32H1039.25V340.752ZM1058.43 340.752H1077.95V338.32H1058.43V340.752ZM1077.62 340.752H1097.14V338.32H1077.62V340.752ZM1096.81 340.752H1116.33V338.32H1096.81V340.752ZM1124.41 347.152V362.16H1127.1V346.64C1127.1 340.912 1124.51 338.32 1118.78 338.32H1116V340.752H1118.01C1122.91 340.752 1124.41 342.256 1124.41 347.152ZM1143.6 346.64V362.16H1146.29V347.152C1146.29 342.256 1147.79 340.752 1152.69 340.752H1154.7V338.32H1151.92C1146.19 338.32 1143.6 340.912 1143.6 346.64ZM1154.37 340.752H1173.89V338.32H1154.37V340.752ZM1173.56 340.752H1193.08V338.32H1184.66V317.36H1181.97V338.32H1173.56V340.752ZM1192.75 340.752H1212.27V338.32H1192.75V340.752ZM1211.93 340.752H1231.45V338.32H1211.93V340.752ZM1231.12 340.752H1250.64V338.32H1231.12V340.752ZM1250.31 340.752H1269.83V338.32H1250.31V340.752ZM1269.5 340.752H1289.02V338.32H1269.5V340.752ZM1288.68 340.752H1308.2V338.32H1288.68V340.752ZM1307.87 340.752H1327.39V338.32H1307.87V340.752ZM1327.06 340.752H1346.58V338.32H1327.06V340.752ZM1354.66 347.152V362.16H1357.35V346.64C1357.35 340.912 1354.76 338.32 1349.03 338.32H1346.25V340.752H1348.26C1353.16 340.752 1354.66 342.256 1354.66 347.152ZM452.85 394.16H455.538V349.36H452.85V394.16ZM530.912 382.512C535.84 382.512 539.072 380.272 539.072 375.568C539.072 372.08 537.28 370.352 533.6 369.232L529.568 367.984C528.128 367.536 527.392 366.8 527.392 365.552C527.392 363.888 528.704 362.992 530.784 362.992C532.96 362.992 534.4 363.952 534.624 365.68H538.56C538.368 361.712 535.456 359.408 530.88 359.408C526.336 359.408 523.264 361.712 523.264 365.904C523.264 368.976 524.864 370.736 528.224 371.792L532.32 373.072C534.048 373.584 534.816 374.48 534.816 375.856C534.816 377.84 533.344 378.832 530.976 378.832C528.384 378.832 526.944 377.68 526.848 375.504H522.752C522.88 380.048 525.728 382.512 530.912 382.512ZM550.323 382.32C554.611 382.32 557.267 380.304 557.651 376.88H553.907C553.619 378.448 552.307 379.184 550.451 379.184C547.859 379.184 546.611 377.712 546.451 374.256H557.715C558.323 367.792 555.763 364.88 550.419 364.88C545.235 364.88 542.451 367.76 542.451 373.584C542.451 379.44 545.203 382.32 550.323 382.32ZM546.579 371.632C546.963 369.104 548.179 367.92 550.419 367.92C552.787 367.92 553.907 369.232 553.971 371.632H546.579ZM561.543 382H575.687V378.576H570.311V371.536C570.311 369.552 571.431 368.528 573.607 368.528H577.799V364.88H575.047C573.511 364.88 572.295 365.2 571.495 365.968L570.567 366.928H569.639L569.223 365.2H562.119V368.624H566.279V378.576H561.543V382ZM584.986 382H592.026L596.794 365.2H592.634L589.082 378.416H588.026L584.474 365.2H580.218L584.986 382ZM607.886 382.32C612.174 382.32 614.83 380.304 615.214 376.88H611.47C611.182 378.448 609.87 379.184 608.014 379.184C605.422 379.184 604.174 377.712 604.014 374.256H615.278C615.886 367.792 613.326 364.88 607.982 364.88C602.798 364.88 600.014 367.76 600.014 373.584C600.014 379.44 602.766 382.32 607.886 382.32ZM604.142 371.632C604.526 369.104 605.742 367.92 607.982 367.92C610.35 367.92 611.47 369.232 611.534 371.632H604.142ZM619.105 382H633.249V378.576H627.873V371.536C627.873 369.552 628.993 368.528 631.169 368.528H635.361V364.88H632.609C631.073 364.88 629.857 365.2 629.057 365.968L628.129 366.928H627.201L626.785 365.2H619.681V368.624H623.841V378.576H619.105V382ZM663.912 394.16H666.6V372.752H675.016V370.32H666.6V349.36H663.912V394.16ZM683.1 394.16H685.788V349.36H683.1V370.32H674.684V372.752H683.1V394.16ZM761.162 382.512C766.09 382.512 769.322 380.272 769.322 375.568C769.322 372.08 767.53 370.352 763.85 369.232L759.818 367.984C758.378 367.536 757.642 366.8 757.642 365.552C757.642 363.888 758.954 362.992 761.034 362.992C763.21 362.992 764.65 363.952 764.874 365.68H768.81C768.618 361.712 765.706 359.408 761.13 359.408C756.586 359.408 753.514 361.712 753.514 365.904C753.514 368.976 755.114 370.736 758.474 371.792L762.57 373.072C764.298 373.584 765.066 374.48 765.066 375.856C765.066 377.84 763.594 378.832 761.226 378.832C758.634 378.832 757.194 377.68 757.098 375.504H753.002C753.13 380.048 755.978 382.512 761.162 382.512ZM780.573 382.32C784.861 382.32 787.517 380.304 787.901 376.88H784.157C783.869 378.448 782.557 379.184 780.701 379.184C778.109 379.184 776.861 377.712 776.701 374.256H787.965C788.573 367.792 786.013 364.88 780.669 364.88C775.485 364.88 772.701 367.76 772.701 373.584C772.701 379.44 775.453 382.32 780.573 382.32ZM776.829 371.632C777.213 369.104 778.429 367.92 780.669 367.92C783.037 367.92 784.157 369.232 784.221 371.632H776.829ZM791.793 382H805.937V378.576H800.561V371.536C800.561 369.552 801.681 368.528 803.857 368.528H808.049V364.88H805.297C803.761 364.88 802.545 365.2 801.745 365.968L800.817 366.928H799.889L799.473 365.2H792.369V368.624H796.529V378.576H791.793V382ZM815.236 382H822.276L827.044 365.2H822.884L819.332 378.416H818.276L814.724 365.2H810.468L815.236 382ZM838.136 382.32C842.424 382.32 845.08 380.304 845.464 376.88H841.72C841.432 378.448 840.12 379.184 838.264 379.184C835.672 379.184 834.424 377.712 834.264 374.256H845.528C846.136 367.792 843.576 364.88 838.232 364.88C833.048 364.88 830.264 367.76 830.264 373.584C830.264 379.44 833.016 382.32 838.136 382.32ZM834.392 371.632C834.776 369.104 835.992 367.92 838.232 367.92C840.6 367.92 841.72 369.232 841.784 371.632H834.392ZM849.355 382H863.499V378.576H858.123V371.536C858.123 369.552 859.243 368.528 861.419 368.528H865.611V364.88H862.859C861.323 364.88 860.107 365.2 859.307 365.968L858.379 366.928H857.451L857.035 365.2H849.931V368.624H854.091V378.576H849.355V382ZM894.162 394.16H896.85V372.752H905.266V370.32H896.85V349.36H894.162V394.16ZM913.35 394.16H916.038V349.36H913.35V370.32H904.934V372.752H913.35V394.16ZM991.412 382.512C996.34 382.512 999.572 380.272 999.572 375.568C999.572 372.08 997.78 370.352 994.1 369.232L990.068 367.984C988.628 367.536 987.892 366.8 987.892 365.552C987.892 363.888 989.204 362.992 991.284 362.992C993.46 362.992 994.9 363.952 995.124 365.68H999.06C998.868 361.712 995.956 359.408 991.38 359.408C986.836 359.408 983.764 361.712 983.764 365.904C983.764 368.976 985.364 370.736 988.724 371.792L992.82 373.072C994.548 373.584 995.316 374.48 995.316 375.856C995.316 377.84 993.844 378.832 991.476 378.832C988.884 378.832 987.444 377.68 987.348 375.504H983.252C983.38 380.048 986.228 382.512 991.412 382.512ZM1010.82 382.32C1015.11 382.32 1017.77 380.304 1018.15 376.88H1014.41C1014.12 378.448 1012.81 379.184 1010.95 379.184C1008.36 379.184 1007.11 377.712 1006.95 374.256H1018.22C1018.82 367.792 1016.26 364.88 1010.92 364.88C1005.74 364.88 1002.95 367.76 1002.95 373.584C1002.95 379.44 1005.7 382.32 1010.82 382.32ZM1007.08 371.632C1007.46 369.104 1008.68 367.92 1010.92 367.92C1013.29 367.92 1014.41 369.232 1014.47 371.632H1007.08ZM1022.04 382H1036.19V378.576H1030.81V371.536C1030.81 369.552 1031.93 368.528 1034.11 368.528H1038.3V364.88H1035.55C1034.01 364.88 1032.79 365.2 1031.99 365.968L1031.07 366.928H1030.14L1029.72 365.2H1022.62V368.624H1026.78V378.576H1022.04V382ZM1045.49 382H1052.53L1057.29 365.2H1053.13L1049.58 378.416H1048.53L1044.97 365.2H1040.72L1045.49 382ZM1068.39 382.32C1072.67 382.32 1075.33 380.304 1075.71 376.88H1071.97C1071.68 378.448 1070.37 379.184 1068.51 379.184C1065.92 379.184 1064.67 377.712 1064.51 374.256H1075.78C1076.39 367.792 1073.83 364.88 1068.48 364.88C1063.3 364.88 1060.51 367.76 1060.51 373.584C1060.51 379.44 1063.27 382.32 1068.39 382.32ZM1064.64 371.632C1065.03 369.104 1066.24 367.92 1068.48 367.92C1070.85 367.92 1071.97 369.232 1072.03 371.632H1064.64ZM1079.61 382H1093.75V378.576H1088.37V371.536C1088.37 369.552 1089.49 368.528 1091.67 368.528H1095.86V364.88H1093.11C1091.57 364.88 1090.36 365.2 1089.56 365.968L1088.63 366.928H1087.7L1087.29 365.2H1080.18V368.624H1084.34V378.576H1079.61V382ZM1124.41 394.16H1127.1V372.752H1135.52V370.32H1127.1V349.36H1124.41V394.16ZM1143.6 394.16H1146.29V349.36H1143.6V370.32H1135.18V372.752H1143.6V394.16ZM1221.66 382.512C1226.59 382.512 1229.82 380.272 1229.82 375.568C1229.82 372.08 1228.03 370.352 1224.35 369.232L1220.32 367.984C1218.88 367.536 1218.14 366.8 1218.14 365.552C1218.14 363.888 1219.45 362.992 1221.53 362.992C1223.71 362.992 1225.15 363.952 1225.37 365.68H1229.31C1229.12 361.712 1226.21 359.408 1221.63 359.408C1217.09 359.408 1214.01 361.712 1214.01 365.904C1214.01 368.976 1215.61 370.736 1218.97 371.792L1223.07 373.072C1224.8 373.584 1225.57 374.48 1225.57 375.856C1225.57 377.84 1224.09 378.832 1221.73 378.832C1219.13 378.832 1217.69 377.68 1217.6 375.504H1213.5C1213.63 380.048 1216.48 382.512 1221.66 382.512ZM1241.07 382.32C1245.36 382.32 1248.02 380.304 1248.4 376.88H1244.66C1244.37 378.448 1243.06 379.184 1241.2 379.184C1238.61 379.184 1237.36 377.712 1237.2 374.256H1248.47C1249.07 367.792 1246.51 364.88 1241.17 364.88C1235.99 364.88 1233.2 367.76 1233.2 373.584C1233.2 379.44 1235.95 382.32 1241.07 382.32ZM1237.33 371.632C1237.71 369.104 1238.93 367.92 1241.17 367.92C1243.54 367.92 1244.66 369.232 1244.72 371.632H1237.33ZM1252.29 382H1266.44V378.576H1261.06V371.536C1261.06 369.552 1262.18 368.528 1264.36 368.528H1268.55V364.88H1265.8C1264.26 364.88 1263.04 365.2 1262.24 365.968L1261.32 366.928H1260.39L1259.97 365.2H1252.87V368.624H1257.03V378.576H1252.29V382ZM1275.74 382H1282.78L1287.54 365.2H1283.38L1279.83 378.416H1278.78L1275.22 365.2H1270.97L1275.74 382ZM1298.64 382.32C1302.92 382.32 1305.58 380.304 1305.96 376.88H1302.22C1301.93 378.448 1300.62 379.184 1298.76 379.184C1296.17 379.184 1294.92 377.712 1294.76 374.256H1306.03C1306.64 367.792 1304.08 364.88 1298.73 364.88C1293.55 364.88 1290.76 367.76 1290.76 373.584C1290.76 379.44 1293.52 382.32 1298.64 382.32ZM1294.89 371.632C1295.28 369.104 1296.49 367.92 1298.73 367.92C1301.1 367.92 1302.22 369.232 1302.28 371.632H1294.89ZM1309.86 382H1324V378.576H1318.62V371.536C1318.62 369.552 1319.74 368.528 1321.92 368.528H1326.11V364.88H1323.36C1321.82 364.88 1320.61 365.2 1319.81 365.968L1318.88 366.928H1317.95L1317.54 365.2H1310.43V368.624H1314.59V378.576H1309.86V382ZM1354.66 394.16H1357.35V349.36H1354.66V394.16ZM461.17 404.752H463.954V402.32H461.938C457.042 402.32 455.538 400.816 455.538 395.92V381.36H452.85V396.432C452.85 402.16 455.442 404.752 461.17 404.752ZM463.621 404.752H483.141V402.32H463.621V404.752ZM482.809 404.752H502.329V402.32H482.809V404.752ZM501.996 404.752H521.516V402.32H501.996V404.752ZM521.184 404.752H540.704V402.32H521.184V404.752ZM540.371 404.752H559.891V402.32H540.371V404.752ZM559.559 404.752H579.079V402.32H559.559V404.752ZM578.746 404.752H598.266V402.32H578.746V404.752ZM597.934 404.752H617.454V402.32H597.934V404.752ZM617.121 404.752H636.641V402.32H617.121V404.752ZM636.309 404.752H655.829V402.32H636.309V404.752ZM655.496 404.752H658.28C664.008 404.752 666.6 402.16 666.6 396.432V381.36H663.912V395.92C663.912 400.816 662.408 402.32 657.512 402.32H655.496V404.752ZM691.42 404.752H694.204V402.32H692.188C687.292 402.32 685.788 400.816 685.788 395.92V381.36H683.1V396.432C683.1 402.16 685.692 404.752 691.42 404.752ZM693.871 404.752H713.391V402.32H693.871V404.752ZM713.059 404.752H732.579V402.32H713.059V404.752ZM732.246 404.752H751.766V402.32H732.246V404.752ZM751.434 404.752H770.954V402.32H751.434V404.752ZM770.621 404.752H790.141V402.32H770.621V404.752ZM789.809 404.752H809.329V402.32H789.809V404.752ZM808.996 404.752H828.516V402.32H808.996V404.752ZM828.184 404.752H847.704V402.32H828.184V404.752ZM847.371 404.752H866.891V402.32H847.371V404.752ZM866.559 404.752H886.079V402.32H866.559V404.752ZM885.746 404.752H888.53C894.258 404.752 896.85 402.16 896.85 396.432V381.36H894.162V395.92C894.162 400.816 892.658 402.32 887.762 402.32H885.746V404.752ZM921.67 404.752H924.454V402.32H922.438C917.542 402.32 916.038 400.816 916.038 395.92V381.36H913.35V396.432C913.35 402.16 915.942 404.752 921.67 404.752ZM924.121 404.752H943.641V402.32H924.121V404.752ZM943.309 404.752H962.829V402.32H943.309V404.752ZM962.496 404.752H982.016V402.32H962.496V404.752ZM981.684 404.752H1001.2V402.32H981.684V404.752ZM1000.87 404.752H1020.39V402.32H1000.87V404.752ZM1020.06 404.752H1039.58V402.32H1020.06V404.752ZM1039.25 404.752H1058.77V402.32H1039.25V404.752ZM1058.43 404.752H1077.95V402.32H1058.43V404.752ZM1077.62 404.752H1097.14V402.32H1077.62V404.752ZM1096.81 404.752H1116.33V402.32H1096.81V404.752ZM1116 404.752H1118.78C1124.51 404.752 1127.1 402.16 1127.1 396.432V381.36H1124.41V395.92C1124.41 400.816 1122.91 402.32 1118.01 402.32H1116V404.752ZM1151.92 404.752H1154.7V402.32H1152.69C1147.79 402.32 1146.29 400.816 1146.29 395.92V381.36H1143.6V396.432C1143.6 402.16 1146.19 404.752 1151.92 404.752ZM1154.37 404.752H1173.89V402.32H1154.37V404.752ZM1173.56 404.752H1193.08V402.32H1173.56V404.752ZM1192.75 404.752H1212.27V402.32H1192.75V404.752ZM1211.93 404.752H1231.45V402.32H1211.93V404.752ZM1231.12 404.752H1250.64V402.32H1231.12V404.752ZM1250.31 404.752H1269.83V402.32H1250.31V404.752ZM1269.5 404.752H1289.02V402.32H1269.5V404.752ZM1288.68 404.752H1308.2V402.32H1288.68V404.752ZM1307.87 404.752H1327.39V402.32H1307.87V404.752ZM1327.06 404.752H1346.58V402.32H1327.06V404.752ZM1346.25 404.752H1349.03C1354.76 404.752 1357.35 402.16 1357.35 396.432V381.36H1354.66V395.92C1354.66 400.816 1353.16 402.32 1348.26 402.32H1346.25V404.752Z" fill="#24211D"/>
<path d="M771.421 254H777.405V250.544L775.581 241.68L776.701 241.456L779.773 251.44H780.989L784.029 241.456L785.149 241.68L783.357 250.544V254H789.341V231.92H782.877L781.341 234.448L781.021 238.064H779.869L779.549 234.448L777.981 231.92H771.421V254ZM483.609 382H489.593V378.544L487.769 369.68L488.889 369.456L491.961 379.44H493.177L496.217 369.456L497.337 369.68L495.545 378.544V382H501.529V359.92H495.065L493.529 362.448L493.209 366.064H492.057L491.737 362.448L490.169 359.92H483.609V382ZM944.109 382H950.093V378.544L948.269 369.68L949.389 369.456L952.461 379.44H953.677L956.717 369.456L957.837 369.68L956.045 378.544V382H962.029V359.92H955.565L954.029 362.448L953.709 366.064H952.557L952.237 362.448L950.669 359.92H944.109V382Z" fill="#5B50DF"/>
<path d="M714.755 382H721.795V376.432H722.659C728.931 376.432 731.811 374.224 731.811 368.176C731.811 362.128 728.931 359.92 722.659 359.92H714.755V382ZM721.795 370.224V366.128H722.691C724.131 366.128 724.675 366.608 724.675 368.144C724.675 369.68 724.131 370.224 722.691 370.224H721.795Z" fill="#D88D47"/>
<path d="M1173.72 382H1180.89L1182.61 374.576H1183.73L1185.24 382H1192.92L1189.37 370.352L1192.76 359.92H1185.59L1184.02 366.768H1182.9L1181.56 359.92H1173.88L1177.27 370.992L1173.72 382Z" fill="#51B82C"/>
</svg>
