<svg width="1800" height="800" viewBox="0 0 1800 800" fill="none" xmlns="http://www.w3.org/2000/svg">
<rect width="1800" height="800" fill="#DFE1E0"/>
<path d="M731.128 134H733.816L737.304 114.352H743.992V111.92H728.312V114.352H734.616L731.128 134ZM745.003 134H749.419L753.739 119.6H754.507L754.283 134H758.475L761.771 125.488C762.379 123.952 762.635 122.832 762.635 121.392V117.36H760.299V121.584C760.299 122.736 760.171 123.28 759.723 124.56L757.131 131.76H756.395L756.555 117.36H752.395L747.979 131.76H747.211L747.787 117.36H745.451L745.003 134ZM772.287 134.32C772.895 134.32 773.631 134.16 774.463 133.712L780.639 130.448L779.551 128.4L773.055 131.792L772.447 131.184L774.911 120.496C775.391 118.416 774.335 117.04 772.543 117.04C771.935 117.04 771.199 117.2 770.367 117.648L764.191 120.912L765.279 122.96L771.775 119.568L772.383 120.176L769.919 130.864C769.439 132.944 770.495 134.32 772.287 134.32ZM772.991 111.888C772.735 113.296 773.343 113.968 774.943 113.968C776.351 113.968 776.991 113.488 777.215 112.272C777.471 110.864 776.863 110.192 775.263 110.192C773.855 110.192 773.215 110.672 772.991 111.888ZM789.714 134.32C790.322 134.32 791.058 134.16 791.89 133.712L798.546 130.192L797.426 128.144L790.514 131.76L789.906 131.152L791.794 119.664H799.634V117.36H792.178L792.978 112.432H790.418L789.618 117.36H784.402V119.664H789.234L787.346 131.088C787.026 132.944 787.922 134.32 789.714 134.32ZM808.902 134.32C809.51 134.32 810.246 134.16 811.078 133.712L817.734 130.192L816.614 128.144L809.702 131.76L809.094 131.152L810.982 119.664H818.822V117.36H811.366L812.166 112.432H809.606L808.806 117.36H803.59V119.664H808.422L806.534 131.088C806.214 132.944 807.11 134.32 808.902 134.32ZM828.505 134.32C830.265 134.32 831.865 133.872 833.625 132.816L836.473 131.12L835.225 129.104L832.665 130.64C831.097 131.568 830.041 131.92 828.825 131.92C826.105 131.92 825.017 130.16 825.497 126.576L832.473 125.712C835.353 125.36 836.857 124.4 837.145 122.16C837.561 119.152 835.289 117.04 831.513 117.04C826.969 117.04 823.865 120.08 822.905 125.488C821.913 131.12 823.929 134.32 828.505 134.32ZM825.977 124.304C826.873 120.976 828.601 119.44 831.353 119.44C833.529 119.44 834.745 120.368 834.585 121.84C834.457 122.896 833.721 123.312 832.281 123.504L825.977 124.304ZM840.589 134H854.029V131.696H848.109L849.229 125.232C849.421 124.112 849.837 123.664 851.117 123.024L858.605 119.184L857.421 117.04L852.845 119.568C852.109 119.984 851.405 120.496 850.765 121.232L849.997 120.976C850.445 118.448 849.549 117.04 847.757 117.04C847.149 117.04 846.413 117.2 845.581 117.648L841.293 119.92L842.349 122L846.989 119.568L847.597 120.144L845.549 131.696H840.589V134ZM636.662 194.64V210.16H639.35V195.152C639.35 190.256 640.854 188.752 645.75 188.752H647.766V186.32H644.982C639.254 186.32 636.662 188.912 636.662 194.64ZM647.434 188.752H666.954V186.32H647.434V188.752ZM666.621 188.752H686.141V186.32H666.621V188.752ZM685.809 188.752H705.329V186.32H685.809V188.752ZM704.996 188.752H724.516V186.32H704.996V188.752ZM724.184 188.752H743.704V186.32H724.184V188.752ZM743.371 188.752H762.891V186.32H743.371V188.752ZM762.559 188.752H782.079V186.32H762.559V188.752ZM781.746 188.752H801.266V186.32H781.746V188.752ZM800.934 188.752H820.454V186.32H800.934V188.752ZM820.121 188.752H839.641V186.32H820.121V188.752ZM839.309 188.752H858.829V186.32H839.309V188.752ZM858.496 188.752H878.016V186.32H858.496V188.752ZM877.684 188.752H897.204V186.32H877.684V188.752ZM896.871 188.752H916.391V186.32H896.871V188.752ZM916.059 188.752H935.579V186.32H916.059V188.752ZM943.662 195.152V210.16H946.35V194.64C946.35 188.912 943.758 186.32 938.03 186.32H935.246V188.752H937.262C942.158 188.752 943.662 190.256 943.662 195.152ZM636.662 242.16H639.35V197.36H636.662V242.16ZM717.54 230H722.02V226.576H718.148C715.588 226.576 714.692 225.52 714.692 222.896V216.624H722.5V213.2H714.692V208.432H710.66V213.2H706.82V216.624H710.66V222.928C710.66 227.76 712.836 230 717.54 230ZM726.616 230H732.024L733.56 218.992H734.328L735.864 230H741.272L743.256 213.2H739.928L738.68 226.128H737.816L735.992 213.2H731.928L730.072 226.128H729.208L727.96 213.2H724.632L726.616 230ZM745.579 230H761.259V226.576H755.787V213.2H746.187V216.624H751.755V226.576H745.579V230ZM750.795 208.048C750.795 209.68 751.595 210.448 753.675 210.448C755.755 210.448 756.555 209.68 756.555 208.048C756.555 206.384 755.755 205.616 753.675 205.616C751.595 205.616 750.795 206.384 750.795 208.048ZM775.103 230H779.583V226.576H775.711C773.151 226.576 772.255 225.52 772.255 222.896V216.624H780.063V213.2H772.255V208.432H768.223V213.2H764.383V216.624H768.223V222.928C768.223 227.76 770.399 230 775.103 230ZM794.29 230H798.77V226.576H794.898C792.338 226.576 791.442 225.52 791.442 222.896V216.624H799.25V213.2H791.442V208.432H787.41V213.2H783.57V216.624H787.41V222.928C787.41 227.76 789.586 230 794.29 230ZM810.886 230.32C815.174 230.32 817.83 228.304 818.214 224.88H814.47C814.182 226.448 812.87 227.184 811.014 227.184C808.422 227.184 807.174 225.712 807.014 222.256H818.278C818.886 215.792 816.326 212.88 810.982 212.88C805.798 212.88 803.014 215.76 803.014 221.584C803.014 227.44 805.766 230.32 810.886 230.32ZM807.142 219.632C807.526 217.104 808.742 215.92 810.982 215.92C813.35 215.92 814.47 217.232 814.534 219.632H807.142ZM822.105 230H836.249V226.576H830.873V219.536C830.873 217.552 831.993 216.528 834.169 216.528H838.361V212.88H835.609C834.073 212.88 832.857 213.2 832.057 213.968L831.129 214.928H830.201L829.785 213.2H822.681V216.624H826.841V226.576H822.105V230ZM849.069 230.288C851.277 230.288 852.205 229.392 852.205 227.376C852.205 225.392 851.277 224.464 849.069 224.464C846.861 224.464 845.933 225.392 845.933 227.376C845.933 229.392 846.861 230.288 849.069 230.288ZM868.416 230.32C873.184 230.32 875.648 227.952 875.84 223.76H871.872C871.68 225.936 870.528 226.864 868.416 226.864C865.824 226.864 864.704 225.328 864.704 221.584C864.704 217.872 865.824 216.336 868.416 216.336C870.496 216.336 871.616 217.264 871.808 219.312H875.744C875.552 215.248 873.152 212.88 868.416 212.88C863.264 212.88 860.512 215.76 860.512 221.584C860.512 227.44 863.264 230.32 868.416 230.32ZM887.444 230.32C892.596 230.32 895.284 227.44 895.284 221.584C895.284 215.76 892.596 212.88 887.444 212.88C882.292 212.88 879.604 215.76 879.604 221.584C879.604 227.44 882.292 230.32 887.444 230.32ZM883.796 221.584C883.796 217.872 884.916 216.336 887.444 216.336C889.972 216.336 891.092 217.872 891.092 221.584C891.092 225.296 889.972 226.864 887.444 226.864C884.916 226.864 883.796 225.328 883.796 221.584ZM898.407 230H901.799V218.128C901.799 217.104 902.471 216.368 903.559 216.368C904.711 216.368 905.031 217.168 905.031 218.128V230H908.263V218.128C908.263 217.104 908.935 216.368 910.023 216.368C911.175 216.368 911.495 217.168 911.495 218.128V230H914.887V216.56C914.887 214.224 913.703 213.008 911.655 213.008C910.631 213.008 909.831 213.296 909.287 213.872L908.551 214.608H907.783C907.271 213.52 906.439 213.008 905.159 213.008C904.199 213.008 903.399 213.296 902.855 213.872L902.119 214.608H901.351L900.999 213.2H898.407V230ZM943.662 242.16H946.35V197.36H943.662V242.16ZM644.982 252.752H647.766V250.32H645.75C640.854 250.32 639.35 248.816 639.35 243.92V229.36H636.662V244.432C636.662 250.16 639.254 252.752 644.982 252.752ZM647.434 252.752H666.954V250.32H647.434V252.752ZM666.621 252.752H686.141V250.32H666.621V252.752ZM685.809 252.752H705.329V250.32H685.809V252.752ZM704.996 252.752H724.516V250.32H704.996V252.752ZM724.184 252.752H743.704V250.32H724.184V252.752ZM743.371 252.752H762.891V250.32H743.371V252.752ZM762.559 252.752H782.079V250.32H762.559V252.752ZM790.162 274.16H792.85V252.752H801.266V250.32H781.746V252.752H790.162V274.16ZM800.934 252.752H820.454V250.32H800.934V252.752ZM820.121 252.752H839.641V250.32H820.121V252.752ZM839.309 252.752H858.829V250.32H839.309V252.752ZM858.496 252.752H878.016V250.32H858.496V252.752ZM877.684 252.752H897.204V250.32H877.684V252.752ZM896.871 252.752H916.391V250.32H896.871V252.752ZM916.059 252.752H935.579V250.32H916.059V252.752ZM935.246 252.752H938.03C943.758 252.752 946.35 250.16 946.35 244.432V229.36H943.662V243.92C943.662 248.816 942.158 250.32 937.262 250.32H935.246V252.752ZM617.475 290.64V306.16H620.163V291.152C620.163 286.256 621.667 284.752 626.563 284.752H628.579V282.32H625.795C620.067 282.32 617.475 284.912 617.475 290.64ZM628.246 284.752H647.766V282.32H628.246V284.752ZM647.434 284.752H666.954V282.32H647.434V284.752ZM666.621 284.752H686.141V282.32H666.621V284.752ZM685.809 284.752H705.329V282.32H685.809V284.752ZM704.996 284.752H724.516V282.32H704.996V284.752ZM724.184 284.752H743.704V282.32H724.184V284.752ZM743.371 284.752H762.891V282.32H743.371V284.752ZM762.559 284.752H782.079V282.32H762.559V284.752ZM781.746 284.752H801.266V282.32H792.85V261.36H790.162V282.32H781.746V284.752ZM800.934 284.752H820.454V282.32H800.934V284.752ZM820.121 284.752H839.641V282.32H820.121V284.752ZM839.309 284.752H858.829V282.32H839.309V284.752ZM858.496 284.752H878.016V282.32H858.496V284.752ZM877.684 284.752H897.204V282.32H877.684V284.752ZM896.871 284.752H916.391V282.32H896.871V284.752ZM916.059 284.752H935.579V282.32H916.059V284.752ZM935.246 284.752H954.766V282.32H935.246V284.752ZM962.85 291.152V306.16H965.538V290.64C965.538 284.912 962.946 282.32 957.218 282.32H954.434V284.752H956.45C961.346 284.752 962.85 286.256 962.85 291.152ZM617.475 338.16H620.163V293.36H617.475V338.16ZM693.521 326H697.617V307.632H703.601V303.92H687.537V307.632H693.521V326ZM707.428 326H712.836L714.372 314.992H715.14L716.676 326H722.084L724.068 309.2H720.74L719.492 322.128H718.628L716.804 309.2H712.74L710.884 322.128H710.02L708.772 309.2H705.444L707.428 326ZM726.392 326H742.072V322.576H736.6V309.2H727V312.624H732.568V322.576H726.392V326ZM731.608 304.048C731.608 305.68 732.408 306.448 734.488 306.448C736.568 306.448 737.368 305.68 737.368 304.048C737.368 302.384 736.568 301.616 734.488 301.616C732.408 301.616 731.608 302.384 731.608 304.048ZM755.915 326H760.395V322.576H756.523C753.963 322.576 753.067 321.52 753.067 318.896V312.624H760.875V309.2H753.067V304.432H749.035V309.2H745.195V312.624H749.035V318.928C749.035 323.76 751.211 326 755.915 326ZM775.103 326H779.583V322.576H775.711C773.151 322.576 772.255 321.52 772.255 318.896V312.624H780.063V309.2H772.255V304.432H768.223V309.2H764.383V312.624H768.223V318.928C768.223 323.76 770.399 326 775.103 326ZM791.698 326.32C795.986 326.32 798.642 324.304 799.026 320.88H795.282C794.994 322.448 793.682 323.184 791.826 323.184C789.234 323.184 787.986 321.712 787.826 318.256H799.09C799.698 311.792 797.138 308.88 791.794 308.88C786.61 308.88 783.826 311.76 783.826 317.584C783.826 323.44 786.578 326.32 791.698 326.32ZM787.954 315.632C788.338 313.104 789.554 311.92 791.794 311.92C794.162 311.92 795.282 313.232 795.346 315.632H787.954ZM802.918 326H817.062V322.576H811.686V315.536C811.686 313.552 812.806 312.528 814.982 312.528H819.174V308.88H816.422C814.886 308.88 813.67 309.2 812.87 309.968L811.942 310.928H811.014L810.598 309.2H803.494V312.624H807.654V322.576H802.918V326ZM825.049 332.08H828.921L832.473 321.328H827.385L825.049 332.08ZM860.896 326H875.616V322.288H870.304V307.632H875.616V303.92H860.896V307.632H866.208V322.288H860.896V326ZM880.308 326H884.34V315.664C884.34 313.584 885.46 312.496 887.604 312.496C889.652 312.496 890.612 313.488 890.612 315.664V326H894.644V314.544C894.644 310.768 892.852 308.88 889.172 308.88C887.636 308.88 886.42 309.2 885.62 309.968L884.66 310.928H883.764L883.316 309.2H880.308V326ZM906.791 326.32C911.559 326.32 914.023 323.952 914.215 319.76H910.247C910.055 321.936 908.903 322.864 906.791 322.864C904.199 322.864 903.079 321.328 903.079 317.584C903.079 313.872 904.199 312.336 906.791 312.336C908.871 312.336 909.991 313.264 910.183 315.312H914.119C913.927 311.248 911.527 308.88 906.791 308.88C901.639 308.88 898.887 311.76 898.887 317.584C898.887 323.44 901.639 326.32 906.791 326.32ZM925.819 326.288C928.027 326.288 928.955 325.392 928.955 323.376C928.955 321.392 928.027 320.464 925.819 320.464C923.611 320.464 922.683 321.392 922.683 323.376C922.683 325.392 923.611 326.288 925.819 326.288ZM962.85 338.16H965.538V293.36H962.85V338.16ZM625.795 348.752H628.579V346.32H626.563C621.667 346.32 620.163 344.816 620.163 339.92V325.36H617.475V340.432C617.475 346.16 620.067 348.752 625.795 348.752ZM628.246 348.752H647.766V346.32H628.246V348.752ZM647.434 348.752H666.954V346.32H647.434V348.752ZM666.621 348.752H686.141V346.32H666.621V348.752ZM685.809 348.752H705.329V346.32H685.809V348.752ZM704.996 348.752H724.516V346.32H704.996V348.752ZM724.184 348.752H743.704V346.32H724.184V348.752ZM743.371 348.752H762.891V346.32H743.371V348.752ZM762.559 348.752H782.079V346.32H762.559V348.752ZM790.162 370.16H792.85V348.752H801.266V346.32H781.746V348.752H790.162V370.16ZM800.934 348.752H820.454V346.32H800.934V348.752ZM820.121 348.752H839.641V346.32H820.121V348.752ZM839.309 348.752H858.829V346.32H839.309V348.752ZM858.496 348.752H878.016V346.32H858.496V348.752ZM877.684 348.752H897.204V346.32H877.684V348.752ZM896.871 348.752H916.391V346.32H896.871V348.752ZM916.059 348.752H935.579V346.32H916.059V348.752ZM935.246 348.752H954.766V346.32H935.246V348.752ZM954.434 348.752H957.218C962.946 348.752 965.538 346.16 965.538 340.432V325.36H962.85V339.92C962.85 344.816 961.346 346.32 956.45 346.32H954.434V348.752ZM617.475 386.64V402.16H620.163V387.152C620.163 382.256 621.667 380.752 626.563 380.752H628.579V378.32H625.795C620.067 378.32 617.475 380.912 617.475 386.64ZM628.246 380.752H647.766V378.32H628.246V380.752ZM647.434 380.752H666.954V378.32H647.434V380.752ZM666.621 380.752H686.141V378.32H666.621V380.752ZM685.809 380.752H705.329V378.32H685.809V380.752ZM704.996 380.752H724.516V378.32H704.996V380.752ZM724.184 380.752H743.704V378.32H724.184V380.752ZM743.371 380.752H762.891V378.32H743.371V380.752ZM762.559 380.752H782.079V378.32H762.559V380.752ZM781.746 380.752H801.266V378.32H792.85V357.36H790.162V378.32H781.746V380.752ZM800.934 380.752H820.454V378.32H800.934V380.752ZM820.121 380.752H839.641V378.32H820.121V380.752ZM839.309 380.752H858.829V378.32H839.309V380.752ZM858.496 380.752H878.016V378.32H858.496V380.752ZM877.684 380.752H897.204V378.32H877.684V380.752ZM896.871 380.752H916.391V378.32H896.871V380.752ZM916.059 380.752H935.579V378.32H916.059V380.752ZM935.246 380.752H954.766V378.32H935.246V380.752ZM962.85 387.152V402.16H965.538V386.64C965.538 380.912 962.946 378.32 957.218 378.32H954.434V380.752H956.45C961.346 380.752 962.85 382.256 962.85 387.152ZM617.475 434.16H620.163V389.36H617.475V434.16ZM693.521 422H697.617V403.632H703.601V399.92H687.537V403.632H693.521V422ZM707.428 422H712.836L714.372 410.992H715.14L716.676 422H722.084L724.068 405.2H720.74L719.492 418.128H718.628L716.804 405.2H712.74L710.884 418.128H710.02L708.772 405.2H705.444L707.428 422ZM726.392 422H742.072V418.576H736.6V405.2H727V408.624H732.568V418.576H726.392V422ZM731.608 400.048C731.608 401.68 732.408 402.448 734.488 402.448C736.568 402.448 737.368 401.68 737.368 400.048C737.368 398.384 736.568 397.616 734.488 397.616C732.408 397.616 731.608 398.384 731.608 400.048ZM755.915 422H760.395V418.576H756.523C753.963 418.576 753.067 417.52 753.067 414.896V408.624H760.875V405.2H753.067V400.432H749.035V405.2H745.195V408.624H749.035V414.928C749.035 419.76 751.211 422 755.915 422ZM775.103 422H779.583V418.576H775.711C773.151 418.576 772.255 417.52 772.255 414.896V408.624H780.063V405.2H772.255V400.432H768.223V405.2H764.383V408.624H768.223V414.928C768.223 419.76 770.399 422 775.103 422ZM791.698 422.32C795.986 422.32 798.642 420.304 799.026 416.88H795.282C794.994 418.448 793.682 419.184 791.826 419.184C789.234 419.184 787.986 417.712 787.826 414.256H799.09C799.698 407.792 797.138 404.88 791.794 404.88C786.61 404.88 783.826 407.76 783.826 413.584C783.826 419.44 786.578 422.32 791.698 422.32ZM787.954 411.632C788.338 409.104 789.554 407.92 791.794 407.92C794.162 407.92 795.282 409.232 795.346 411.632H787.954ZM802.918 422H817.062V418.576H811.686V411.536C811.686 409.552 812.806 408.528 814.982 408.528H819.174V404.88H816.422C814.886 404.88 813.67 405.2 812.87 405.968L811.942 406.928H811.014L810.598 405.2H803.494V408.624H807.654V418.576H802.918V422ZM825.049 428.08H828.921L832.473 417.328H827.385L825.049 428.08ZM860.896 422H875.616V418.288H870.304V403.632H875.616V399.92H860.896V403.632H866.208V418.288H860.896V422ZM880.308 422H884.34V411.664C884.34 409.584 885.46 408.496 887.604 408.496C889.652 408.496 890.612 409.488 890.612 411.664V422H894.644V410.544C894.644 406.768 892.852 404.88 889.172 404.88C887.636 404.88 886.42 405.2 885.62 405.968L884.66 406.928H883.764L883.316 405.2H880.308V422ZM906.791 422.32C911.559 422.32 914.023 419.952 914.215 415.76H910.247C910.055 417.936 908.903 418.864 906.791 418.864C904.199 418.864 903.079 417.328 903.079 413.584C903.079 409.872 904.199 408.336 906.791 408.336C908.871 408.336 909.991 409.264 910.183 411.312H914.119C913.927 407.248 911.527 404.88 906.791 404.88C901.639 404.88 898.887 407.76 898.887 413.584C898.887 419.44 901.639 422.32 906.791 422.32ZM925.819 422.288C928.027 422.288 928.955 421.392 928.955 419.376C928.955 417.392 928.027 416.464 925.819 416.464C923.611 416.464 922.683 417.392 922.683 419.376C922.683 421.392 923.611 422.288 925.819 422.288ZM962.85 434.16H965.538V389.36H962.85V434.16ZM625.795 444.752H628.579V442.32H626.563C621.667 442.32 620.163 440.816 620.163 435.92V421.36H617.475V436.432C617.475 442.16 620.067 444.752 625.795 444.752ZM628.246 444.752H647.766V442.32H628.246V444.752ZM647.434 444.752H666.954V442.32H647.434V444.752ZM666.621 444.752H686.141V442.32H666.621V444.752ZM685.809 444.752H705.329V442.32H685.809V444.752ZM704.996 444.752H724.516V442.32H704.996V444.752ZM724.184 444.752H743.704V442.32H724.184V444.752ZM743.371 444.752H762.891V442.32H743.371V444.752ZM762.559 444.752H782.079V442.32H762.559V444.752ZM790.162 466.16H792.85V444.752H801.266V442.32H781.746V444.752H790.162V466.16ZM800.934 444.752H820.454V442.32H800.934V444.752ZM820.121 444.752H839.641V442.32H820.121V444.752ZM839.309 444.752H858.829V442.32H839.309V444.752ZM858.496 444.752H878.016V442.32H858.496V444.752ZM877.684 444.752H897.204V442.32H877.684V444.752ZM896.871 444.752H916.391V442.32H896.871V444.752ZM916.059 444.752H935.579V442.32H916.059V444.752ZM935.246 444.752H954.766V442.32H935.246V444.752ZM954.434 444.752H957.218C962.946 444.752 965.538 442.16 965.538 436.432V421.36H962.85V435.92C962.85 440.816 961.346 442.32 956.45 442.32H954.434V444.752ZM636.662 482.64V498.16H639.35V483.152C639.35 478.256 640.854 476.752 645.75 476.752H647.766V474.32H644.982C639.254 474.32 636.662 476.912 636.662 482.64ZM647.434 476.752H666.954V474.32H647.434V476.752ZM666.621 476.752H686.141V474.32H666.621V476.752ZM685.809 476.752H705.329V474.32H685.809V476.752ZM704.996 476.752H724.516V474.32H704.996V476.752ZM724.184 476.752H743.704V474.32H724.184V476.752ZM743.371 476.752H762.891V474.32H743.371V476.752ZM762.559 476.752H782.079V474.32H762.559V476.752ZM781.746 476.752H801.266V474.32H792.85V453.36H790.162V474.32H781.746V476.752ZM800.934 476.752H820.454V474.32H800.934V476.752ZM820.121 476.752H839.641V474.32H820.121V476.752ZM839.309 476.752H858.829V474.32H839.309V476.752ZM858.496 476.752H878.016V474.32H858.496V476.752ZM877.684 476.752H897.204V474.32H877.684V476.752ZM896.871 476.752H916.391V474.32H896.871V476.752ZM916.059 476.752H935.579V474.32H916.059V476.752ZM943.662 483.152V498.16H946.35V482.64C946.35 476.912 943.758 474.32 938.03 474.32H935.246V476.752H937.262C942.158 476.752 943.662 478.256 943.662 483.152ZM636.662 530.16H639.35V485.36H636.662V530.16ZM707.556 518H711.684V511.024H715.108C720.452 511.024 723.172 508.848 723.172 503.472C723.172 498.096 720.452 495.92 715.108 495.92H707.556V518ZM711.684 507.344V499.6H715.172C717.7 499.6 718.916 500.624 718.916 503.504C718.916 506.352 717.732 507.344 715.172 507.344H711.684ZM726.168 518H740.312V514.576H734.936V507.536C734.936 505.552 736.056 504.528 738.232 504.528H742.424V500.88H739.672C738.136 500.88 736.92 501.2 736.12 501.968L735.192 502.928H734.264L733.848 501.2H726.744V504.624H730.904V514.576H726.168V518ZM753.131 518.32C758.283 518.32 760.971 515.44 760.971 509.584C760.971 503.76 758.283 500.88 753.131 500.88C747.979 500.88 745.291 503.76 745.291 509.584C745.291 515.44 747.979 518.32 753.131 518.32ZM749.483 509.584C749.483 505.872 750.603 504.336 753.131 504.336C755.659 504.336 756.779 505.872 756.779 509.584C756.779 513.296 755.659 514.864 753.131 514.864C750.603 514.864 749.483 513.328 749.483 509.584ZM765.183 524.08H769.215V519.056L768.863 516.496L769.759 516.272L770.719 517.232C771.487 517.968 772.415 518.32 773.791 518.32C777.791 518.32 780.191 515.44 780.191 509.584C780.191 503.76 777.791 500.88 773.695 500.88C772.287 500.88 771.295 501.2 770.495 501.968L769.535 502.928H768.639L768.191 501.2H765.183V524.08ZM769.183 511.664V507.536C769.183 505.456 770.303 504.368 772.351 504.368C774.847 504.368 775.967 506 775.967 509.584C775.967 513.2 774.847 514.832 772.351 514.832C770.303 514.832 769.183 513.744 769.183 511.664ZM783.73 518H797.874V514.576H792.498V507.536C792.498 505.552 793.618 504.528 795.794 504.528H799.986V500.88H797.234C795.698 500.88 794.482 501.2 793.682 501.968L792.754 502.928H791.826L791.41 501.2H784.306V504.624H788.466V514.576H783.73V518ZM803.142 518H818.822V514.576H813.35V501.2H803.75V504.624H809.318V514.576H803.142V518ZM808.358 496.048C808.358 497.68 809.158 498.448 811.238 498.448C813.318 498.448 814.118 497.68 814.118 496.048C814.118 494.384 813.318 493.616 811.238 493.616C809.158 493.616 808.358 494.384 808.358 496.048ZM830.073 518.32C834.361 518.32 837.017 516.304 837.401 512.88H833.657C833.369 514.448 832.057 515.184 830.201 515.184C827.609 515.184 826.361 513.712 826.201 510.256H837.465C838.073 503.792 835.513 500.88 830.169 500.88C824.985 500.88 822.201 503.76 822.201 509.584C822.201 515.44 824.953 518.32 830.073 518.32ZM826.329 507.632C826.713 505.104 827.929 503.92 830.169 503.92C832.537 503.92 833.657 505.232 833.721 507.632H826.329ZM851.853 518H856.333V514.576H852.461C849.901 514.576 849.005 513.52 849.005 510.896V504.624H856.813V501.2H849.005V496.432H844.973V501.2H841.133V504.624H844.973V510.928C844.973 515.76 847.149 518 851.853 518ZM866.208 518.32C867.808 518.32 869.024 518 869.792 517.232L870.752 516.272H871.68L872.064 518H875.2V506.832C875.2 502.8 873.024 500.88 868.512 500.88C863.968 500.88 861.6 502.928 861.472 506.352H865.152C865.28 504.72 866.496 504.048 868.192 504.048C870.176 504.048 871.168 504.944 871.168 507.12V508.432H866.72C862.912 508.432 860.704 510.192 860.704 513.456C860.704 516.592 862.624 518.32 866.208 518.32ZM864.8 513.072C864.8 511.6 865.792 510.832 867.68 510.832H871.168V511.92C871.168 514.032 869.824 515.248 867.52 515.248C865.568 515.248 864.8 514.384 864.8 513.072ZM879.668 518H893.812V514.576H888.436V507.536C888.436 505.552 889.556 504.528 891.732 504.528H895.924V500.88H893.172C891.636 500.88 890.42 501.2 889.62 501.968L888.692 502.928H887.764L887.348 501.2H880.244V504.624H884.404V514.576H879.668V518ZM899.943 524.08H904.071C907.303 524.08 908.967 522.832 909.735 519.824L914.919 501.2H910.759L907.559 513.616H906.055L902.599 501.2H898.343L903.015 517.2H906.631L906.023 519.248C905.735 520.304 905.255 520.656 904.039 520.656H899.943V524.08ZM943.662 530.16H946.35V485.36H943.662V530.16ZM644.982 540.752H647.766V538.32H645.75C640.854 538.32 639.35 536.816 639.35 531.92V517.36H636.662V532.432C636.662 538.16 639.254 540.752 644.982 540.752ZM647.434 540.752H666.954V538.32H647.434V540.752ZM666.621 540.752H686.141V538.32H666.621V540.752ZM685.809 540.752H705.329V538.32H685.809V540.752ZM704.996 540.752H724.516V538.32H704.996V540.752ZM724.184 540.752H743.704V538.32H724.184V540.752ZM743.371 540.752H762.891V538.32H743.371V540.752ZM762.559 540.752H782.079V538.32H762.559V540.752ZM790.162 562.16H792.85V540.752H801.266V538.32H781.746V540.752H790.162V562.16ZM800.934 540.752H820.454V538.32H800.934V540.752ZM820.121 540.752H839.641V538.32H820.121V540.752ZM839.309 540.752H858.829V538.32H839.309V540.752ZM858.496 540.752H878.016V538.32H858.496V540.752ZM877.684 540.752H897.204V538.32H877.684V540.752ZM896.871 540.752H916.391V538.32H896.871V540.752ZM916.059 540.752H935.579V538.32H916.059V540.752ZM935.246 540.752H938.03C943.758 540.752 946.35 538.16 946.35 532.432V517.36H943.662V531.92C943.662 536.816 942.158 538.32 937.262 538.32H935.246V540.752ZM636.662 578.64V594.16H639.35V579.152C639.35 574.256 640.854 572.752 645.75 572.752H647.766V570.32H644.982C639.254 570.32 636.662 572.912 636.662 578.64ZM647.434 572.752H666.954V570.32H647.434V572.752ZM666.621 572.752H686.141V570.32H666.621V572.752ZM685.809 572.752H705.329V570.32H685.809V572.752ZM704.996 572.752H724.516V570.32H704.996V572.752ZM724.184 572.752H743.704V570.32H724.184V572.752ZM743.371 572.752H762.891V570.32H743.371V572.752ZM762.559 572.752H782.079V570.32H762.559V572.752ZM781.746 572.752H801.266V570.32H792.85V549.36H790.162V570.32H781.746V572.752ZM800.934 572.752H820.454V570.32H800.934V572.752ZM820.121 572.752H839.641V570.32H820.121V572.752ZM839.309 572.752H858.829V570.32H839.309V572.752ZM858.496 572.752H878.016V570.32H858.496V572.752ZM877.684 572.752H897.204V570.32H877.684V572.752ZM896.871 572.752H916.391V570.32H896.871V572.752ZM916.059 572.752H935.579V570.32H916.059V572.752ZM943.662 579.152V594.16H946.35V578.64C946.35 572.912 943.758 570.32 938.03 570.32H935.246V572.752H937.262C942.158 572.752 943.662 574.256 943.662 579.152ZM636.662 626.16H639.35V581.36H636.662V626.16ZM707.556 614H711.684V607.024H715.108C720.452 607.024 723.172 604.848 723.172 599.472C723.172 594.096 720.452 591.92 715.108 591.92H707.556V614ZM711.684 603.344V595.6H715.172C717.7 595.6 718.916 596.624 718.916 599.504C718.916 602.352 717.732 603.344 715.172 603.344H711.684ZM726.168 614H740.312V610.576H734.936V603.536C734.936 601.552 736.056 600.528 738.232 600.528H742.424V596.88H739.672C738.136 596.88 736.92 597.2 736.12 597.968L735.192 598.928H734.264L733.848 597.2H726.744V600.624H730.904V610.576H726.168V614ZM753.131 614.32C758.283 614.32 760.971 611.44 760.971 605.584C760.971 599.76 758.283 596.88 753.131 596.88C747.979 596.88 745.291 599.76 745.291 605.584C745.291 611.44 747.979 614.32 753.131 614.32ZM749.483 605.584C749.483 601.872 750.603 600.336 753.131 600.336C755.659 600.336 756.779 601.872 756.779 605.584C756.779 609.296 755.659 610.864 753.131 610.864C750.603 610.864 749.483 609.328 749.483 605.584ZM765.183 620.08H769.215V615.056L768.863 612.496L769.759 612.272L770.719 613.232C771.487 613.968 772.415 614.32 773.791 614.32C777.791 614.32 780.191 611.44 780.191 605.584C780.191 599.76 777.791 596.88 773.695 596.88C772.287 596.88 771.295 597.2 770.495 597.968L769.535 598.928H768.639L768.191 597.2H765.183V620.08ZM769.183 607.664V603.536C769.183 601.456 770.303 600.368 772.351 600.368C774.847 600.368 775.967 602 775.967 605.584C775.967 609.2 774.847 610.832 772.351 610.832C770.303 610.832 769.183 609.744 769.183 607.664ZM783.73 614H797.874V610.576H792.498V603.536C792.498 601.552 793.618 600.528 795.794 600.528H799.986V596.88H797.234C795.698 596.88 794.482 597.2 793.682 597.968L792.754 598.928H791.826L791.41 597.2H784.306V600.624H788.466V610.576H783.73V614ZM803.142 614H818.822V610.576H813.35V597.2H803.75V600.624H809.318V610.576H803.142V614ZM808.358 592.048C808.358 593.68 809.158 594.448 811.238 594.448C813.318 594.448 814.118 593.68 814.118 592.048C814.118 590.384 813.318 589.616 811.238 589.616C809.158 589.616 808.358 590.384 808.358 592.048ZM830.073 614.32C834.361 614.32 837.017 612.304 837.401 608.88H833.657C833.369 610.448 832.057 611.184 830.201 611.184C827.609 611.184 826.361 609.712 826.201 606.256H837.465C838.073 599.792 835.513 596.88 830.169 596.88C824.985 596.88 822.201 599.76 822.201 605.584C822.201 611.44 824.953 614.32 830.073 614.32ZM826.329 603.632C826.713 601.104 827.929 599.92 830.169 599.92C832.537 599.92 833.657 601.232 833.721 603.632H826.329ZM851.853 614H856.333V610.576H852.461C849.901 610.576 849.005 609.52 849.005 606.896V600.624H856.813V597.2H849.005V592.432H844.973V597.2H841.133V600.624H844.973V606.928C844.973 611.76 847.149 614 851.853 614ZM866.208 614.32C867.808 614.32 869.024 614 869.792 613.232L870.752 612.272H871.68L872.064 614H875.2V602.832C875.2 598.8 873.024 596.88 868.512 596.88C863.968 596.88 861.6 598.928 861.472 602.352H865.152C865.28 600.72 866.496 600.048 868.192 600.048C870.176 600.048 871.168 600.944 871.168 603.12V604.432H866.72C862.912 604.432 860.704 606.192 860.704 609.456C860.704 612.592 862.624 614.32 866.208 614.32ZM864.8 609.072C864.8 607.6 865.792 606.832 867.68 606.832H871.168V607.92C871.168 610.032 869.824 611.248 867.52 611.248C865.568 611.248 864.8 610.384 864.8 609.072ZM879.668 614H893.812V610.576H888.436V603.536C888.436 601.552 889.556 600.528 891.732 600.528H895.924V596.88H893.172C891.636 596.88 890.42 597.2 889.62 597.968L888.692 598.928H887.764L887.348 597.2H880.244V600.624H884.404V610.576H879.668V614ZM899.943 620.08H904.071C907.303 620.08 908.967 618.832 909.735 615.824L914.919 597.2H910.759L907.559 609.616H906.055L902.599 597.2H898.343L903.015 613.2H906.631L906.023 615.248C905.735 616.304 905.255 616.656 904.039 616.656H899.943V620.08ZM943.662 626.16H946.35V581.36H943.662V626.16ZM644.982 636.752H647.766V634.32H645.75C640.854 634.32 639.35 632.816 639.35 627.92V613.36H636.662V628.432C636.662 634.16 639.254 636.752 644.982 636.752ZM647.434 636.752H666.954V634.32H647.434V636.752ZM666.621 636.752H686.141V634.32H666.621V636.752ZM685.809 636.752H705.329V634.32H685.809V636.752ZM704.996 636.752H724.516V634.32H704.996V636.752ZM724.184 636.752H743.704V634.32H724.184V636.752ZM743.371 636.752H762.891V634.32H743.371V636.752ZM762.559 636.752H782.079V634.32H762.559V636.752ZM781.746 636.752H801.266V634.32H781.746V636.752ZM800.934 636.752H820.454V634.32H800.934V636.752ZM820.121 636.752H839.641V634.32H820.121V636.752ZM839.309 636.752H858.829V634.32H839.309V636.752ZM858.496 636.752H878.016V634.32H858.496V636.752ZM877.684 636.752H897.204V634.32H877.684V636.752ZM896.871 636.752H916.391V634.32H896.871V636.752ZM916.059 636.752H935.579V634.32H916.059V636.752ZM935.246 636.752H938.03C943.758 636.752 946.35 634.16 946.35 628.432V613.36H943.662V627.92C943.662 632.816 942.158 634.32 937.262 634.32H935.246V636.752Z" fill="#24211D"/>
<path d="M678.269 230H684.605V224.304H679.677C678.397 224.304 677.949 223.856 677.949 222.512V218.544H685.053V212.848H677.949V208.432H670.909V212.848H667.805V218.544H670.909V222.64C670.909 227.344 673.565 230 678.269 230ZM659.082 326H665.418V320.304H660.49C659.21 320.304 658.762 319.856 658.762 318.512V314.544H665.866V308.848H658.762V304.432H651.722V308.848H648.618V314.544H651.722V318.64C651.722 323.344 654.378 326 659.082 326ZM659.082 422H665.418V416.304H660.49C659.21 416.304 658.762 415.856 658.762 414.512V410.544H665.866V404.848H658.762V400.432H651.722V404.848H648.618V410.544H651.722V414.64C651.722 419.344 654.378 422 659.082 422ZM678.269 518H684.605V512.304H679.677C678.397 512.304 677.949 511.856 677.949 510.512V506.544H685.053V500.848H677.949V496.432H670.909V500.848H667.805V506.544H670.909V510.64C670.909 515.344 673.565 518 678.269 518ZM678.269 614H684.605V608.304H679.677C678.397 608.304 677.949 607.856 677.949 606.512V602.544H685.053V596.848H677.949V592.432H670.909V596.848H667.805V602.544H670.909V606.64C670.909 611.344 673.565 614 678.269 614Z" fill="#1DA1F2"/>
<path d="M264.448 230.512C269.248 230.512 272.384 227.664 273.44 222.192H270.656C269.792 225.936 267.872 227.92 264.608 227.92C260.96 227.92 259.872 225.392 260.96 219.152C262.08 212.848 264.224 210 268 210C271.008 210 272.224 211.888 271.872 215.728H274.592C275.2 210.384 273.152 207.408 268.16 207.408C262.688 207.408 259.552 210.992 258.176 218.768C256.768 226.736 258.784 230.512 264.448 230.512ZM283.635 230.32C284.244 230.32 284.98 230.16 285.812 229.712L292.468 226.192L291.347 224.144L284.436 227.76L283.828 227.152L286.836 208.88C287.124 207.184 286.42 206.32 284.595 206.32H278.484V208.624H284.308L281.268 227.088C280.948 228.944 281.844 230.32 283.635 230.32ZM303.943 230.32C304.551 230.32 305.287 230.16 306.119 229.712L312.295 226.448L311.207 224.4L304.711 227.792L304.103 227.184L306.567 216.496C307.047 214.416 305.991 213.04 304.199 213.04C303.591 213.04 302.855 213.2 302.023 213.648L295.847 216.912L296.935 218.96L303.431 215.568L304.039 216.176L301.575 226.864C301.095 228.944 302.151 230.32 303.943 230.32ZM304.647 207.888C304.391 209.296 304.999 209.968 306.599 209.968C308.007 209.968 308.647 209.488 308.871 208.272C309.127 206.864 308.519 206.192 306.919 206.192C305.511 206.192 304.871 206.672 304.647 207.888ZM321.786 230.32C323.547 230.32 325.147 229.872 326.907 228.816L329.755 227.12L328.507 225.104L325.947 226.64C324.379 227.568 323.323 227.92 322.107 227.92C319.387 227.92 318.299 226.16 318.779 222.576L325.755 221.712C328.635 221.36 330.139 220.4 330.427 218.16C330.843 215.152 328.571 213.04 324.795 213.04C320.251 213.04 317.147 216.08 316.187 221.488C315.195 227.12 317.211 230.32 321.786 230.32ZM319.259 220.304C320.155 216.976 321.883 215.44 324.635 215.44C326.811 215.44 328.027 216.368 327.867 217.84C327.739 218.896 327.003 219.312 325.563 219.504L319.259 220.304ZM334.254 230H336.814L338.35 221.232C338.542 220.112 338.958 219.632 340.238 218.96L346.766 215.536L347.47 215.984L344.782 230H347.342L349.934 216.496C350.318 214.416 349.39 213.04 347.598 213.04C346.99 213.04 346.254 213.2 345.422 213.648L341.966 215.568C341.198 215.984 340.526 216.496 339.886 217.232L339.118 216.976L339.438 213.36H337.198L334.254 230ZM359.746 230.32C360.354 230.32 361.09 230.16 361.922 229.712L368.578 226.192L367.458 224.144L360.546 227.76L359.938 227.152L361.826 215.664H369.666V213.36H362.21L363.01 208.432H360.45L359.65 213.36H354.434V215.664H359.266L357.378 227.088C357.058 228.944 357.954 230.32 359.746 230.32ZM262.752 326H265.44L266.592 319.6L276.32 303.92H273.28L267.808 312.944L266.144 316.496H265.28L264.832 312.944L262.56 303.92H259.744L263.904 319.472L262.752 326ZM283.411 326.32C288.02 326.32 291.156 323.312 292.116 317.872C293.108 312.24 290.964 309.04 286.164 309.04C281.556 309.04 278.42 312.048 277.46 317.488C276.468 323.12 278.612 326.32 283.411 326.32ZM280.212 317.872C280.98 313.552 282.804 311.472 286.004 311.472C289.012 311.472 290.1 313.36 289.364 317.488C288.596 321.808 286.772 323.888 283.572 323.888C280.564 323.888 279.476 322 280.212 317.872ZM312.071 309.36H309.511L307.975 318.128C307.783 319.248 307.367 319.728 306.087 320.4L299.559 323.824L298.855 323.376L301.543 309.36H298.983L296.391 322.864C296.007 324.944 296.935 326.32 298.727 326.32C299.335 326.32 300.071 326.16 300.903 325.712L304.359 323.792C305.127 323.376 305.799 322.864 306.439 322.128L307.207 322.384L306.887 326H309.127L312.071 309.36ZM314.683 326H328.123V323.696H322.203L323.323 317.232C323.515 316.112 323.931 315.664 325.211 315.024L332.699 311.184L331.515 309.04L326.939 311.568C326.203 311.984 325.499 312.496 324.859 313.232L324.091 312.976C324.539 310.448 323.643 309.04 321.851 309.04C321.243 309.04 320.507 309.2 319.675 309.648L315.387 311.92L316.443 314L321.083 311.568L321.691 312.144L319.643 323.696H314.683V326ZM352.866 326H359.074C365.474 326 368.642 322.928 370.017 315.152C371.426 307.184 369.186 303.92 362.786 303.92H356.77L352.866 326ZM355.97 323.568L359.042 306.352H362.722C367.234 306.352 368.322 308.688 367.234 314.8C366.114 321.232 363.97 323.568 359.394 323.568H355.97ZM376.981 326.256C377.845 326.256 378.773 326 379.573 325.456L380.789 324.656C381.621 324.112 382.293 323.472 382.869 322.704L383.701 322.864L383.413 326H385.589L388.341 310.32L384.405 309.392C383.317 309.136 382.453 309.04 381.717 309.04C377.525 309.04 374.613 312.176 373.589 317.872C372.661 323.024 373.909 326.256 376.981 326.256ZM376.181 318.224C377.141 313.008 379.509 310.864 383.349 311.664L385.493 312.112L384.373 318.448C384.181 319.504 383.765 320.112 382.677 320.848L379.157 323.216C378.549 323.632 378.005 323.728 377.557 323.728C376.117 323.728 375.605 321.648 376.181 318.224ZM398.121 326.32C398.729 326.32 399.465 326.16 400.297 325.712L406.953 322.192L405.833 320.144L398.921 323.76L398.312 323.152L400.201 311.664H408.041V309.36H400.585L401.385 304.432H398.825L398.025 309.36H392.809V311.664H397.641L395.753 323.088C395.433 324.944 396.329 326.32 398.121 326.32ZM415.356 326.256C416.22 326.256 417.148 326 417.948 325.456L419.164 324.656C419.996 324.112 420.668 323.472 421.244 322.704L422.076 322.864L421.788 326H423.964L426.716 310.32L422.78 309.392C421.692 309.136 420.828 309.04 420.092 309.04C415.9 309.04 412.988 312.176 411.964 317.872C411.036 323.024 412.284 326.256 415.356 326.256ZM414.556 318.224C415.516 313.008 417.884 310.864 421.724 311.664L423.868 312.112L422.748 318.448C422.556 319.504 422.14 320.112 421.052 320.848L417.532 323.216C416.924 323.632 416.38 323.728 415.932 323.728C414.492 323.728 413.98 321.648 414.556 318.224ZM264.224 422.512C269.568 422.512 272.704 418.896 274.08 411.152C275.488 403.216 273.504 399.408 267.936 399.408C262.592 399.408 259.456 403.024 258.08 410.768C256.672 418.704 258.656 422.512 264.224 422.512ZM260.864 411.152C261.984 404.88 264.128 402 267.808 402C271.296 402 272.384 404.688 271.296 410.768C270.176 417.136 268.096 419.92 264.352 419.92C260.832 419.92 259.776 417.36 260.864 411.152ZM282.996 422.32C283.604 422.32 284.34 422.16 285.172 421.712L291.828 418.192L290.708 416.144L283.796 419.76L283.188 419.152L285.076 407.664H292.916V405.36H285.46L286.26 400.432H283.7L282.9 405.36H277.684V407.664H282.516L280.628 419.088C280.308 420.944 281.204 422.32 282.996 422.32ZM296.135 422H298.695L300.071 413.232C300.231 412.112 300.615 411.632 301.895 410.96L308.423 407.536L309.127 407.984L306.439 422H308.999L311.591 408.496C311.975 406.416 311.047 405.04 309.255 405.04C308.647 405.04 307.911 405.2 307.079 405.648L303.623 407.568C302.855 407.984 302.151 408.496 301.479 409.232L300.711 408.976L301.319 405.36L302.407 398.32H299.847L296.135 422ZM321.786 422.32C323.547 422.32 325.147 421.872 326.907 420.816L329.755 419.12L328.507 417.104L325.947 418.64C324.379 419.568 323.323 419.92 322.107 419.92C319.387 419.92 318.299 418.16 318.779 414.576L325.755 413.712C328.635 413.36 330.139 412.4 330.427 410.16C330.843 407.152 328.571 405.04 324.795 405.04C320.251 405.04 317.147 408.08 316.187 413.488C315.195 419.12 317.211 422.32 321.786 422.32ZM319.259 412.304C320.155 408.976 321.883 407.44 324.635 407.44C326.811 407.44 328.027 408.368 327.867 409.84C327.739 410.896 327.003 411.312 325.563 411.504L319.259 412.304ZM333.87 422H347.31V419.696H341.39L342.51 413.232C342.702 412.112 343.118 411.664 344.398 411.024L351.886 407.184L350.702 405.04L346.126 407.568C345.39 407.984 344.686 408.496 344.046 409.232L343.278 408.976C343.726 406.448 342.83 405.04 341.038 405.04C340.43 405.04 339.694 405.2 338.862 405.648L334.574 407.92L335.63 410L340.27 407.568L340.878 408.144L338.83 419.696H333.87V422ZM372.053 422H378.261C384.661 422 387.829 418.928 389.205 411.152C390.613 403.184 388.373 399.92 381.973 399.92H375.957L372.053 422ZM375.157 419.568L378.229 402.352H381.909C386.421 402.352 387.509 404.688 386.421 410.8C385.301 417.232 383.157 419.568 378.581 419.568H375.157ZM396.169 422.256C397.033 422.256 397.961 422 398.76 421.456L399.977 420.656C400.809 420.112 401.481 419.472 402.057 418.704L402.889 418.864L402.601 422H404.777L407.529 406.32L403.593 405.392C402.505 405.136 401.641 405.04 400.905 405.04C396.713 405.04 393.801 408.176 392.777 413.872C391.849 419.024 393.097 422.256 396.169 422.256ZM395.369 414.224C396.329 409.008 398.697 406.864 402.537 407.664L404.681 408.112L403.561 414.448C403.369 415.504 402.953 416.112 401.865 416.848L398.345 419.216C397.737 419.632 397.193 419.728 396.745 419.728C395.305 419.728 394.793 417.648 395.369 414.224ZM417.308 422.32C417.916 422.32 418.652 422.16 419.484 421.712L426.14 418.192L425.02 416.144L418.108 419.76L417.5 419.152L419.388 407.664H427.228V405.36H419.772L420.572 400.432H418.012L417.212 405.36H411.996V407.664H416.828L414.94 419.088C414.62 420.944 415.516 422.32 417.308 422.32ZM434.544 422.256C435.408 422.256 436.336 422 437.135 421.456L438.352 420.656C439.184 420.112 439.856 419.472 440.432 418.704L441.264 418.864L440.976 422H443.152L445.904 406.32L441.968 405.392C440.88 405.136 440.016 405.04 439.28 405.04C435.088 405.04 432.176 408.176 431.152 413.872C430.224 419.024 431.472 422.256 434.544 422.256ZM433.744 414.224C434.704 409.008 437.072 406.864 440.912 407.664L443.056 408.112L441.936 414.448C441.744 415.504 441.328 416.112 440.24 416.848L436.72 419.216C436.112 419.632 435.568 419.728 435.12 419.728C433.68 419.728 433.168 417.648 433.744 414.224ZM264.224 518.512C268.448 518.512 272.064 516.72 272.864 512.24C273.472 508.72 271.808 506.928 268.576 505.84L264.96 504.624C263.232 504.048 262.432 502.96 262.72 501.328C263.104 499.088 265.12 497.968 267.744 497.968C270.24 497.968 271.744 499.024 271.68 501.232H274.304C274.592 497.616 272.032 495.408 267.936 495.408C264.128 495.408 260.704 497.264 260 501.232C259.456 504.24 260.832 506.128 263.936 507.152L267.584 508.368C269.664 509.072 270.4 510.32 270.08 512.112C269.632 514.736 267.424 515.952 264.448 515.952C261.472 515.952 259.904 514.672 260.192 511.984H257.472C257.024 516.144 259.424 518.512 264.224 518.512ZM283.411 518.32C288.02 518.32 291.156 515.312 292.116 509.872C293.108 504.24 290.964 501.04 286.164 501.04C281.556 501.04 278.42 504.048 277.46 509.488C276.468 515.12 278.612 518.32 283.411 518.32ZM280.212 509.872C280.98 505.552 282.804 503.472 286.004 503.472C289.012 503.472 290.1 505.36 289.364 509.488C288.596 513.808 286.772 515.888 283.572 515.888C280.564 515.888 279.476 514 280.212 509.872ZM301.095 524.4C302.471 524.4 303.719 523.728 303.943 521.616L305.831 503.664H312.743V501.36H306.087L306.215 500.048C306.471 497.552 307.559 496.624 309.863 496.624H314.247V494.32H309.831C306.087 494.32 304.103 495.888 303.687 499.856L303.527 501.36H297.511V503.664H303.271L301.383 521.68L300.679 522.032L295.303 519.248L294.215 521.328L298.823 523.76C299.591 524.176 300.327 524.4 301.095 524.4ZM321.371 518.32C321.979 518.32 322.715 518.16 323.547 517.712L330.203 514.192L329.083 512.144L322.171 515.76L321.562 515.152L323.451 503.664H331.291V501.36H323.835L324.635 496.432H322.075L321.275 501.36H316.059V503.664H320.891L319.003 515.088C318.683 516.944 319.579 518.32 321.371 518.32ZM334.222 518H338.638L342.958 503.6H343.726L343.502 518H347.694L350.99 509.488C351.598 507.952 351.854 506.832 351.854 505.392V501.36H349.518V505.584C349.518 506.736 349.39 507.28 348.942 508.56L346.35 515.76H345.614L345.774 501.36H341.614L337.198 515.76H336.43L337.006 501.36H334.67L334.222 518ZM357.794 518.256C358.658 518.256 359.586 518 360.385 517.456L361.602 516.656C362.434 516.112 363.106 515.472 363.682 514.704L364.514 514.864L364.226 518H366.402L369.154 502.32L365.218 501.392C364.13 501.136 363.266 501.04 362.53 501.04C358.338 501.04 355.426 504.176 354.402 509.872C353.474 515.024 354.722 518.256 357.794 518.256ZM356.994 510.224C357.954 505.008 360.322 502.864 364.162 503.664L366.306 504.112L365.186 510.448C364.994 511.504 364.578 512.112 363.49 512.848L359.97 515.216C359.362 515.632 358.818 515.728 358.37 515.728C356.93 515.728 356.418 513.648 356.994 510.224ZM372.245 518H385.685V515.696H379.765L380.885 509.232C381.077 508.112 381.493 507.664 382.773 507.024L390.261 503.184L389.077 501.04L384.501 503.568C383.765 503.984 383.061 504.496 382.421 505.232L381.653 504.976C382.101 502.448 381.205 501.04 379.413 501.04C378.805 501.04 378.069 501.2 377.237 501.648L372.949 503.92L374.005 506L378.645 503.568L379.253 504.144L377.205 515.696H372.245V518ZM398.536 518.32C400.297 518.32 401.897 517.872 403.657 516.816L406.505 515.12L405.257 513.104L402.697 514.64C401.129 515.568 400.073 515.92 398.857 515.92C396.137 515.92 395.049 514.16 395.529 510.576L402.505 509.712C405.385 509.36 406.889 508.4 407.177 506.16C407.593 503.152 405.321 501.04 401.545 501.04C397.001 501.04 393.897 504.08 392.937 509.488C391.945 515.12 393.961 518.32 398.536 518.32ZM396.009 508.304C396.905 504.976 398.633 503.44 401.385 503.44C403.561 503.44 404.777 504.368 404.617 505.84C404.489 506.896 403.753 507.312 402.313 507.504L396.009 508.304ZM257.344 614H260.032L261.408 606.32H266.176C271.264 606.32 274.016 604.08 274.848 599.312C275.712 594.352 273.6 591.92 268.512 591.92H261.248L257.344 614ZM261.824 603.888L263.52 594.352H268.32C271.52 594.352 272.64 595.76 272.064 599.056C271.456 602.48 269.824 603.888 266.496 603.888H261.824ZM276.308 614H289.748V611.696H283.828L284.948 605.232C285.14 604.112 285.556 603.664 286.836 603.024L294.324 599.184L293.14 597.04L288.564 599.568C287.828 599.984 287.124 600.496 286.484 601.232L285.716 600.976C286.164 598.448 285.268 597.04 283.476 597.04C282.868 597.04 282.132 597.2 281.3 597.648L277.012 599.92L278.068 602L282.708 599.568L283.316 600.144L281.268 611.696H276.308V614ZM302.599 614.32C307.207 614.32 310.343 611.312 311.303 605.872C312.295 600.24 310.151 597.04 305.351 597.04C300.743 597.04 297.607 600.048 296.647 605.488C295.655 611.12 297.799 614.32 302.599 614.32ZM299.399 605.872C300.167 601.552 301.991 599.472 305.191 599.472C308.199 599.472 309.287 601.36 308.551 605.488C307.783 609.808 305.959 611.888 302.759 611.888C299.751 611.888 298.663 610 299.399 605.872ZM321.371 614.32C321.979 614.32 322.715 614.16 323.547 613.712L330.203 610.192L329.083 608.144L322.171 611.76L321.562 611.152L323.451 599.664H331.291V597.36H323.835L324.635 592.432H322.075L321.275 597.36H316.059V599.664H320.891L319.003 611.088C318.683 612.944 319.579 614.32 321.371 614.32ZM340.974 614.32C345.582 614.32 348.718 611.312 349.678 605.872C350.67 600.24 348.526 597.04 343.726 597.04C339.118 597.04 335.982 600.048 335.022 605.488C334.03 611.12 336.174 614.32 340.974 614.32ZM337.774 605.872C338.542 601.552 340.366 599.472 343.566 599.472C346.574 599.472 347.662 601.36 346.926 605.488C346.158 609.808 344.334 611.888 341.134 611.888C338.126 611.888 337.038 610 337.774 605.872ZM360.034 614.32C361.762 614.32 363.362 613.872 365.154 612.816L368.002 611.12L366.754 609.104L364.194 610.64C362.786 611.472 361.666 611.92 360.354 611.92C357.538 611.92 356.418 610 357.154 605.872C357.922 601.552 359.778 599.44 362.882 599.44C365.25 599.44 366.37 600.72 366.274 603.376H368.898C369.122 599.312 367.01 597.04 363.074 597.04C358.53 597.04 355.394 600.048 354.434 605.488C353.442 611.12 355.458 614.32 360.034 614.32ZM379.349 614.32C383.957 614.32 387.093 611.312 388.053 605.872C389.045 600.24 386.901 597.04 382.101 597.04C377.493 597.04 374.357 600.048 373.397 605.488C372.405 611.12 374.549 614.32 379.349 614.32ZM376.149 605.872C376.917 601.552 378.741 599.472 381.941 599.472C384.949 599.472 386.037 601.36 385.301 605.488C384.533 609.808 382.709 611.888 379.509 611.888C376.501 611.888 375.413 610 376.149 605.872ZM398.76 614.32C399.369 614.32 400.105 614.16 400.937 613.712L407.593 610.192L406.472 608.144L399.561 611.76L398.953 611.152L401.961 592.88C402.249 591.184 401.545 590.32 399.72 590.32H393.609V592.624H399.433L396.393 611.088C396.073 612.944 396.969 614.32 398.76 614.32Z" fill="#24211D"/>
<path d="M1200.36 134H1203.05L1204.72 124.528H1214.51V122.096H1205.16L1206.54 114.352H1216.94V111.92H1204.27L1200.36 134ZM1225.57 134.32C1227.33 134.32 1228.93 133.872 1230.69 132.816L1233.54 131.12L1232.29 129.104L1229.73 130.64C1228.16 131.568 1227.1 131.92 1225.89 131.92C1223.17 131.92 1222.08 130.16 1222.56 126.576L1229.54 125.712C1232.42 125.36 1233.92 124.4 1234.21 122.16C1234.62 119.152 1232.35 117.04 1228.58 117.04C1224.03 117.04 1220.93 120.08 1219.97 125.488C1218.98 131.12 1220.99 134.32 1225.57 134.32ZM1223.04 124.304C1223.94 120.976 1225.66 119.44 1228.42 119.44C1230.59 119.44 1231.81 120.368 1231.65 121.84C1231.52 122.896 1230.78 123.312 1229.34 123.504L1223.04 124.304ZM1242.39 134.256C1243.25 134.256 1244.18 134 1244.98 133.456L1246.2 132.656C1247.03 132.112 1247.7 131.472 1248.28 130.704L1249.11 130.864L1248.98 134H1251.16L1254.87 110.32H1252.31L1251.16 117.712L1249.84 117.392C1248.72 117.136 1247.86 117.04 1247.12 117.04C1242.93 117.04 1240.02 120.176 1239 125.872C1238.07 131.024 1239.32 134.256 1242.39 134.256ZM1241.59 126.224C1242.55 121.008 1244.92 118.864 1248.76 119.664L1250.77 120.08L1249.78 126.448C1249.62 127.504 1249.17 128.112 1248.08 128.848L1244.56 131.216C1243.96 131.632 1243.41 131.728 1242.96 131.728C1241.52 131.728 1241.01 129.648 1241.59 126.224ZM1265.29 134.32C1265.89 134.32 1266.63 134.16 1267.46 133.712L1273.64 130.448L1272.55 128.4L1266.05 131.792L1265.45 131.184L1267.91 120.496C1268.39 118.416 1267.33 117.04 1265.54 117.04C1264.93 117.04 1264.2 117.2 1263.37 117.648L1257.19 120.912L1258.28 122.96L1264.77 119.568L1265.38 120.176L1262.92 130.864C1262.44 132.944 1263.49 134.32 1265.29 134.32ZM1265.99 111.888C1265.73 113.296 1266.34 113.968 1267.94 113.968C1269.35 113.968 1269.99 113.488 1270.21 112.272C1270.47 110.864 1269.86 110.192 1268.26 110.192C1266.85 110.192 1266.21 110.672 1265.99 111.888ZM1281.59 134H1286.3L1291.77 125.744C1292.7 124.336 1292.89 123.536 1292.89 122.032V117.36H1290.43V121.808C1290.43 123.024 1290.36 123.504 1289.66 124.56L1284.95 131.696H1283.9L1283.19 119.536C1283.1 117.808 1282.3 117.04 1280.92 117.04C1280.28 117.04 1279.51 117.2 1278.68 117.648L1276.09 119.024L1277.21 121.072L1280.09 119.568L1280.7 119.952L1281.59 134ZM1302.32 134.32C1304.08 134.32 1305.68 133.872 1307.44 132.816L1310.29 131.12L1309.04 129.104L1306.48 130.64C1304.91 131.568 1303.85 131.92 1302.64 131.92C1299.92 131.92 1298.83 130.16 1299.31 126.576L1306.29 125.712C1309.17 125.36 1310.67 124.4 1310.96 122.16C1311.37 119.152 1309.1 117.04 1305.33 117.04C1300.78 117.04 1297.68 120.08 1296.72 125.488C1295.73 131.12 1297.74 134.32 1302.32 134.32ZM1299.79 124.304C1300.69 120.976 1302.41 119.44 1305.17 119.44C1307.34 119.44 1308.56 120.368 1308.4 121.84C1308.27 122.896 1307.53 123.312 1306.09 123.504L1299.79 124.304ZM1314.4 134H1327.84V131.696H1321.92L1323.04 125.232C1323.23 124.112 1323.65 123.664 1324.93 123.024L1332.42 119.184L1331.23 117.04L1326.66 119.568C1325.92 119.984 1325.22 120.496 1324.58 121.232L1323.81 120.976C1324.26 118.448 1323.36 117.04 1321.57 117.04C1320.96 117.04 1320.23 117.2 1319.39 117.648L1315.11 119.92L1316.16 122L1320.8 119.568L1321.41 120.144L1319.36 131.696H1314.4V134ZM1340.69 134.32C1344.85 134.32 1347.64 132.72 1348.21 129.488C1348.66 126.928 1347.44 125.264 1344.47 124.592L1340.82 123.76C1339.54 123.472 1339 122.8 1339.19 121.744C1339.44 120.24 1340.98 119.408 1343.44 119.408C1345.59 119.408 1346.8 120.08 1346.8 121.808H1349.27C1349.49 118.288 1346.68 117.04 1343.44 117.04C1339.7 117.04 1337.11 118.704 1336.6 121.68C1336.18 123.92 1337.17 125.456 1339.86 126.064L1343.54 126.896C1345.14 127.248 1345.75 128.112 1345.56 129.296C1345.24 131.056 1343.48 131.92 1340.72 131.92C1338.36 131.92 1337.08 131.216 1337.2 129.168H1334.68C1334.36 132.976 1337.04 134.32 1340.69 134.32ZM1359.88 134.32C1361.64 134.32 1363.24 133.872 1365 132.816L1367.85 131.12L1366.6 129.104L1364.04 130.64C1362.47 131.568 1361.42 131.92 1360.2 131.92C1357.48 131.92 1356.39 130.16 1356.87 126.576L1363.85 125.712C1366.73 125.36 1368.23 124.4 1368.52 122.16C1368.94 119.152 1366.66 117.04 1362.89 117.04C1358.34 117.04 1355.24 120.08 1354.28 125.488C1353.29 131.12 1355.3 134.32 1359.88 134.32ZM1357.35 124.304C1358.25 120.976 1359.98 119.44 1362.73 119.44C1364.9 119.44 1366.12 120.368 1365.96 121.84C1365.83 122.896 1365.1 123.312 1363.66 123.504L1357.35 124.304ZM1129.66 194.64V210.16H1132.35V195.152C1132.35 190.256 1133.85 188.752 1138.75 188.752H1140.77V186.32H1137.98C1132.25 186.32 1129.66 188.912 1129.66 194.64ZM1140.43 188.752H1159.95V186.32H1140.43V188.752ZM1159.62 188.752H1179.14V186.32H1159.62V188.752ZM1178.81 188.752H1198.33V186.32H1178.81V188.752ZM1198 188.752H1217.52V186.32H1198V188.752ZM1217.18 188.752H1236.7V186.32H1217.18V188.752ZM1236.37 188.752H1255.89V186.32H1236.37V188.752ZM1255.56 188.752H1275.08V186.32H1255.56V188.752ZM1274.75 188.752H1294.27V186.32H1274.75V188.752ZM1293.93 188.752H1313.45V186.32H1293.93V188.752ZM1313.12 188.752H1332.64V186.32H1313.12V188.752ZM1332.31 188.752H1351.83V186.32H1332.31V188.752ZM1351.5 188.752H1371.02V186.32H1351.5V188.752ZM1370.68 188.752H1390.2V186.32H1370.68V188.752ZM1389.87 188.752H1409.39V186.32H1389.87V188.752ZM1409.06 188.752H1428.58V186.32H1409.06V188.752ZM1436.66 195.152V210.16H1439.35V194.64C1439.35 188.912 1436.76 186.32 1431.03 186.32H1428.25V188.752H1430.26C1435.16 188.752 1436.66 190.256 1436.66 195.152ZM1129.66 242.16H1132.35V197.36H1129.66V242.16ZM1205.71 230H1209.8V223.6L1216.43 207.92H1212.01L1209.16 214.96L1208.27 218.896H1207.31L1206.41 214.96L1203.56 207.92H1199.08L1205.71 223.6V230ZM1226.94 230.32C1232.1 230.32 1234.78 227.44 1234.78 221.584C1234.78 215.76 1232.1 212.88 1226.94 212.88C1221.79 212.88 1219.1 215.76 1219.1 221.584C1219.1 227.44 1221.79 230.32 1226.94 230.32ZM1223.3 221.584C1223.3 217.872 1224.42 216.336 1226.94 216.336C1229.47 216.336 1230.59 217.872 1230.59 221.584C1230.59 225.296 1229.47 226.864 1226.94 226.864C1224.42 226.864 1223.3 225.328 1223.3 221.584ZM1253.27 213.2H1249.24V223.536C1249.24 225.616 1248.12 226.704 1245.97 226.704C1243.92 226.704 1242.96 225.712 1242.96 223.536V213.2H1238.93V224.656C1238.93 228.432 1240.72 230.32 1244.4 230.32C1245.94 230.32 1247.16 230 1247.96 229.232L1248.92 228.272H1249.81L1250.26 230H1253.27V213.2ZM1257.54 230H1271.69V226.576H1266.31V219.536C1266.31 217.552 1267.43 216.528 1269.61 216.528H1273.8V212.88H1271.05C1269.51 212.88 1268.29 213.2 1267.49 213.968L1266.57 214.928H1265.64L1265.22 213.2H1258.12V216.624H1262.28V226.576H1257.54V230ZM1303.69 230.32C1308.59 230.32 1311.25 228.432 1311.25 224.816C1311.25 222.128 1309.74 220.656 1306.29 219.984L1302.38 219.216C1301.26 218.992 1300.69 218.48 1300.69 217.616C1300.69 216.464 1301.74 215.792 1303.66 215.792C1305.58 215.792 1306.83 216.464 1307.02 217.936H1310.83C1310.64 214.256 1307.66 212.88 1303.79 212.88C1299.34 212.88 1296.85 214.704 1296.85 218.064C1296.85 220.464 1298.19 222 1301.13 222.576L1305.2 223.376C1306.54 223.664 1307.21 224.272 1307.21 225.264C1307.21 226.608 1306 227.312 1303.82 227.312C1301.68 227.312 1300.37 226.608 1300.27 224.912H1296.3C1296.43 228.88 1299.34 230.32 1303.69 230.32ZM1323.07 230.32C1327.36 230.32 1330.02 228.304 1330.4 224.88H1326.66C1326.37 226.448 1325.06 227.184 1323.2 227.184C1320.61 227.184 1319.36 225.712 1319.2 222.256H1330.47C1331.07 215.792 1328.51 212.88 1323.17 212.88C1317.99 212.88 1315.2 215.76 1315.2 221.584C1315.2 227.44 1317.95 230.32 1323.07 230.32ZM1319.33 219.632C1319.71 217.104 1320.93 215.92 1323.17 215.92C1325.54 215.92 1326.66 217.232 1326.72 219.632H1319.33ZM1334.29 230H1348.44V226.576H1343.06V219.536C1343.06 217.552 1344.18 216.528 1346.36 216.528H1350.55V212.88H1347.8C1346.26 212.88 1345.04 213.2 1344.24 213.968L1343.32 214.928H1342.39L1341.97 213.2H1334.87V216.624H1339.03V226.576H1334.29V230ZM1357.74 230H1364.78L1369.54 213.2H1365.38L1361.83 226.416H1360.78L1357.22 213.2H1352.97L1357.74 230ZM1380.64 230.32C1384.92 230.32 1387.58 228.304 1387.96 224.88H1384.22C1383.93 226.448 1382.62 227.184 1380.76 227.184C1378.17 227.184 1376.92 225.712 1376.76 222.256H1388.03C1388.64 215.792 1386.08 212.88 1380.73 212.88C1375.55 212.88 1372.76 215.76 1372.76 221.584C1372.76 227.44 1375.52 230.32 1380.64 230.32ZM1376.89 219.632C1377.28 217.104 1378.49 215.92 1380.73 215.92C1383.1 215.92 1384.22 217.232 1384.28 219.632H1376.89ZM1391.86 230H1406V226.576H1400.62V219.536C1400.62 217.552 1401.74 216.528 1403.92 216.528H1408.11V212.88H1405.36C1403.82 212.88 1402.61 213.2 1401.81 213.968L1400.88 214.928H1399.95L1399.54 213.2H1392.43V216.624H1396.59V226.576H1391.86V230ZM1436.66 242.16H1439.35V197.36H1436.66V242.16ZM1137.98 252.752H1140.77V250.32H1138.75C1133.85 250.32 1132.35 248.816 1132.35 243.92V229.36H1129.66V244.432C1129.66 250.16 1132.25 252.752 1137.98 252.752ZM1140.43 252.752H1159.95V250.32H1140.43V252.752ZM1159.62 252.752H1179.14V250.32H1159.62V252.752ZM1178.81 252.752H1198.33V250.32H1178.81V252.752ZM1198 252.752H1217.52V250.32H1198V252.752ZM1217.18 252.752H1236.7V250.32H1217.18V252.752ZM1236.37 252.752H1255.89V250.32H1236.37V252.752ZM1255.56 252.752H1275.08V250.32H1255.56V252.752ZM1283.16 274.16H1285.85V252.752H1294.27V250.32H1274.75V252.752H1283.16V274.16ZM1293.93 252.752H1313.45V250.32H1293.93V252.752ZM1313.12 252.752H1332.64V250.32H1313.12V252.752ZM1332.31 252.752H1351.83V250.32H1332.31V252.752ZM1351.5 252.752H1371.02V250.32H1351.5V252.752ZM1370.68 252.752H1390.2V250.32H1370.68V252.752ZM1389.87 252.752H1409.39V250.32H1389.87V252.752ZM1409.06 252.752H1428.58V250.32H1409.06V252.752ZM1428.25 252.752H1431.03C1436.76 252.752 1439.35 250.16 1439.35 244.432V229.36H1436.66V243.92C1436.66 248.816 1435.16 250.32 1430.26 250.32H1428.25V252.752ZM1129.66 290.64V306.16H1132.35V291.152C1132.35 286.256 1133.85 284.752 1138.75 284.752H1140.77V282.32H1137.98C1132.25 282.32 1129.66 284.912 1129.66 290.64ZM1140.43 284.752H1159.95V282.32H1140.43V284.752ZM1159.62 284.752H1179.14V282.32H1159.62V284.752ZM1178.81 284.752H1198.33V282.32H1178.81V284.752ZM1198 284.752H1217.52V282.32H1198V284.752ZM1217.18 284.752H1236.7V282.32H1217.18V284.752ZM1236.37 284.752H1255.89V282.32H1236.37V284.752ZM1255.56 284.752H1275.08V282.32H1255.56V284.752ZM1274.75 284.752H1294.27V282.32H1285.85V261.36H1283.16V282.32H1274.75V284.752ZM1293.93 284.752H1313.45V282.32H1293.93V284.752ZM1313.12 284.752H1332.64V282.32H1313.12V284.752ZM1332.31 284.752H1351.83V282.32H1332.31V284.752ZM1351.5 284.752H1371.02V282.32H1351.5V284.752ZM1370.68 284.752H1390.2V282.32H1370.68V284.752ZM1389.87 284.752H1409.39V282.32H1389.87V284.752ZM1409.06 284.752H1428.58V282.32H1409.06V284.752ZM1436.66 291.152V306.16H1439.35V290.64C1439.35 284.912 1436.76 282.32 1431.03 282.32H1428.25V284.752H1430.26C1435.16 284.752 1436.66 286.256 1436.66 291.152ZM1129.66 338.16H1132.35V293.36H1129.66V338.16ZM1205.71 326H1209.8V319.6L1216.43 303.92H1212.01L1209.16 310.96L1208.27 314.896H1207.31L1206.41 310.96L1203.56 303.92H1199.08L1205.71 319.6V326ZM1226.94 326.32C1232.1 326.32 1234.78 323.44 1234.78 317.584C1234.78 311.76 1232.1 308.88 1226.94 308.88C1221.79 308.88 1219.1 311.76 1219.1 317.584C1219.1 323.44 1221.79 326.32 1226.94 326.32ZM1223.3 317.584C1223.3 313.872 1224.42 312.336 1226.94 312.336C1229.47 312.336 1230.59 313.872 1230.59 317.584C1230.59 321.296 1229.47 322.864 1226.94 322.864C1224.42 322.864 1223.3 321.328 1223.3 317.584ZM1253.27 309.2H1249.24V319.536C1249.24 321.616 1248.12 322.704 1245.97 322.704C1243.92 322.704 1242.96 321.712 1242.96 319.536V309.2H1238.93V320.656C1238.93 324.432 1240.72 326.32 1244.4 326.32C1245.94 326.32 1247.16 326 1247.96 325.232L1248.92 324.272H1249.81L1250.26 326H1253.27V309.2ZM1257.54 326H1271.69V322.576H1266.31V315.536C1266.31 313.552 1267.43 312.528 1269.61 312.528H1273.8V308.88H1271.05C1269.51 308.88 1268.29 309.2 1267.49 309.968L1266.57 310.928H1265.64L1265.22 309.2H1258.12V312.624H1262.28V322.576H1257.54V326ZM1303.69 326.32C1308.59 326.32 1311.25 324.432 1311.25 320.816C1311.25 318.128 1309.74 316.656 1306.29 315.984L1302.38 315.216C1301.26 314.992 1300.69 314.48 1300.69 313.616C1300.69 312.464 1301.74 311.792 1303.66 311.792C1305.58 311.792 1306.83 312.464 1307.02 313.936H1310.83C1310.64 310.256 1307.66 308.88 1303.79 308.88C1299.34 308.88 1296.85 310.704 1296.85 314.064C1296.85 316.464 1298.19 318 1301.13 318.576L1305.2 319.376C1306.54 319.664 1307.21 320.272 1307.21 321.264C1307.21 322.608 1306 323.312 1303.82 323.312C1301.68 323.312 1300.37 322.608 1300.27 320.912H1296.3C1296.43 324.88 1299.34 326.32 1303.69 326.32ZM1323.07 326.32C1327.36 326.32 1330.02 324.304 1330.4 320.88H1326.66C1326.37 322.448 1325.06 323.184 1323.2 323.184C1320.61 323.184 1319.36 321.712 1319.2 318.256H1330.47C1331.07 311.792 1328.51 308.88 1323.17 308.88C1317.99 308.88 1315.2 311.76 1315.2 317.584C1315.2 323.44 1317.95 326.32 1323.07 326.32ZM1319.33 315.632C1319.71 313.104 1320.93 311.92 1323.17 311.92C1325.54 311.92 1326.66 313.232 1326.72 315.632H1319.33ZM1334.29 326H1348.44V322.576H1343.06V315.536C1343.06 313.552 1344.18 312.528 1346.36 312.528H1350.55V308.88H1347.8C1346.26 308.88 1345.04 309.2 1344.24 309.968L1343.32 310.928H1342.39L1341.97 309.2H1334.87V312.624H1339.03V322.576H1334.29V326ZM1357.74 326H1364.78L1369.54 309.2H1365.38L1361.83 322.416H1360.78L1357.22 309.2H1352.97L1357.74 326ZM1380.64 326.32C1384.92 326.32 1387.58 324.304 1387.96 320.88H1384.22C1383.93 322.448 1382.62 323.184 1380.76 323.184C1378.17 323.184 1376.92 321.712 1376.76 318.256H1388.03C1388.64 311.792 1386.08 308.88 1380.73 308.88C1375.55 308.88 1372.76 311.76 1372.76 317.584C1372.76 323.44 1375.52 326.32 1380.64 326.32ZM1376.89 315.632C1377.28 313.104 1378.49 311.92 1380.73 311.92C1383.1 311.92 1384.22 313.232 1384.28 315.632H1376.89ZM1391.86 326H1406V322.576H1400.62V315.536C1400.62 313.552 1401.74 312.528 1403.92 312.528H1408.11V308.88H1405.36C1403.82 308.88 1402.61 309.2 1401.81 309.968L1400.88 310.928H1399.95L1399.54 309.2H1392.43V312.624H1396.59V322.576H1391.86V326ZM1436.66 338.16H1439.35V293.36H1436.66V338.16ZM1137.98 348.752H1140.77V346.32H1138.75C1133.85 346.32 1132.35 344.816 1132.35 339.92V325.36H1129.66V340.432C1129.66 346.16 1132.25 348.752 1137.98 348.752ZM1140.43 348.752H1159.95V346.32H1140.43V348.752ZM1159.62 348.752H1179.14V346.32H1159.62V348.752ZM1178.81 348.752H1198.33V346.32H1178.81V348.752ZM1198 348.752H1217.52V346.32H1198V348.752ZM1217.18 348.752H1236.7V346.32H1217.18V348.752ZM1236.37 348.752H1255.89V346.32H1236.37V348.752ZM1255.56 348.752H1275.08V346.32H1255.56V348.752ZM1283.16 370.16H1285.85V348.752H1294.27V346.32H1274.75V348.752H1283.16V370.16ZM1293.93 348.752H1313.45V346.32H1293.93V348.752ZM1313.12 348.752H1332.64V346.32H1313.12V348.752ZM1332.31 348.752H1351.83V346.32H1332.31V348.752ZM1351.5 348.752H1371.02V346.32H1351.5V348.752ZM1370.68 348.752H1390.2V346.32H1370.68V348.752ZM1389.87 348.752H1409.39V346.32H1389.87V348.752ZM1409.06 348.752H1428.58V346.32H1409.06V348.752ZM1428.25 348.752H1431.03C1436.76 348.752 1439.35 346.16 1439.35 340.432V325.36H1436.66V339.92C1436.66 344.816 1435.16 346.32 1430.26 346.32H1428.25V348.752ZM1091.29 386.64V402.16H1093.98V387.152C1093.98 382.256 1095.48 380.752 1100.38 380.752H1102.39V378.32H1099.61C1093.88 378.32 1091.29 380.912 1091.29 386.64ZM1102.06 380.752H1121.58V378.32H1102.06V380.752ZM1121.25 380.752H1140.77V378.32H1121.25V380.752ZM1140.43 380.752H1159.95V378.32H1140.43V380.752ZM1159.62 380.752H1179.14V378.32H1159.62V380.752ZM1178.81 380.752H1198.33V378.32H1178.81V380.752ZM1198 380.752H1217.52V378.32H1198V380.752ZM1217.18 380.752H1236.7V378.32H1217.18V380.752ZM1236.37 380.752H1255.89V378.32H1236.37V380.752ZM1255.56 380.752H1275.08V378.32H1255.56V380.752ZM1274.75 380.752H1294.27V378.32H1285.85V357.36H1283.16V378.32H1274.75V380.752ZM1293.93 380.752H1313.45V378.32H1293.93V380.752ZM1313.12 380.752H1332.64V378.32H1313.12V380.752ZM1332.31 380.752H1351.83V378.32H1332.31V380.752ZM1351.5 380.752H1371.02V378.32H1351.5V380.752ZM1370.68 380.752H1390.2V378.32H1370.68V380.752ZM1389.87 380.752H1409.39V378.32H1389.87V380.752ZM1409.06 380.752H1428.58V378.32H1409.06V380.752ZM1428.25 380.752H1447.77V378.32H1428.25V380.752ZM1447.43 380.752H1466.95V378.32H1447.43V380.752ZM1475.04 387.152V402.16H1477.73V386.64C1477.73 380.912 1475.13 378.32 1469.41 378.32H1466.62V380.752H1468.64C1473.53 380.752 1475.04 382.256 1475.04 387.152ZM1091.29 434.16H1093.98V389.36H1091.29V434.16ZM1175.78 422.224C1177.32 422.224 1177.99 421.488 1177.99 419.792C1177.99 418.096 1177.32 417.392 1175.78 417.392C1174.25 417.392 1173.57 418.096 1173.57 419.792C1173.57 421.488 1174.25 422.224 1175.78 422.224ZM1160.77 419.792C1160.77 421.488 1161.45 422.224 1162.98 422.224C1164.52 422.224 1165.19 421.488 1165.19 419.792C1165.19 418.096 1164.52 417.392 1162.98 417.392C1161.45 417.392 1160.77 418.096 1160.77 419.792ZM1167.17 419.792C1167.17 421.488 1167.85 422.224 1169.38 422.224C1170.92 422.224 1171.59 421.488 1171.59 419.792C1171.59 418.096 1170.92 417.392 1169.38 417.392C1167.85 417.392 1167.17 418.096 1167.17 419.792ZM1207.76 422.512C1213.55 422.512 1216.14 418.96 1216.14 410.96C1216.14 402.96 1213.55 399.408 1207.76 399.408C1201.96 399.408 1199.37 402.96 1199.37 410.96C1199.37 418.96 1201.96 422.512 1207.76 422.512ZM1203.69 410.96C1203.69 405.392 1204.88 403.184 1207.76 403.184C1210.64 403.184 1211.85 405.392 1211.85 410.96C1211.85 416.688 1210.7 418.736 1207.76 418.736C1204.81 418.736 1203.69 416.688 1203.69 410.96ZM1229.73 422H1234.21V418.576H1230.34C1227.78 418.576 1226.88 417.52 1226.88 414.896V408.624H1234.69V405.2H1226.88V400.432H1222.85V405.2H1219.01V408.624H1222.85V414.928C1222.85 419.76 1225.02 422 1229.73 422ZM1239 422H1243.03V411.664C1243.03 409.584 1244.15 408.496 1246.29 408.496C1248.34 408.496 1249.3 409.488 1249.3 411.664V422H1253.33V410.544C1253.33 406.768 1251.57 404.88 1247.96 404.88C1246.45 404.88 1245.33 405.2 1244.53 405.968L1243.57 406.928L1242.68 406.704L1243.03 404.144V398.32H1239V422ZM1265.51 422.32C1269.8 422.32 1272.45 420.304 1272.84 416.88H1269.09C1268.81 418.448 1267.49 419.184 1265.64 419.184C1263.05 419.184 1261.8 417.712 1261.64 414.256H1272.9C1273.51 407.792 1270.95 404.88 1265.61 404.88C1260.42 404.88 1257.64 407.76 1257.64 413.584C1257.64 419.44 1260.39 422.32 1265.51 422.32ZM1261.77 411.632C1262.15 409.104 1263.37 407.92 1265.61 407.92C1267.97 407.92 1269.09 409.232 1269.16 411.632H1261.77ZM1276.73 422H1290.87V418.576H1285.5V411.536C1285.5 409.552 1286.62 408.528 1288.79 408.528H1292.99V404.88H1290.23C1288.7 404.88 1287.48 405.2 1286.68 405.968L1285.75 406.928H1284.83L1284.41 405.2H1277.31V408.624H1281.47V418.576H1276.73V422ZM1322.88 422.32C1327.78 422.32 1330.43 420.432 1330.43 416.816C1330.43 414.128 1328.93 412.656 1325.47 411.984L1321.57 411.216C1320.45 410.992 1319.87 410.48 1319.87 409.616C1319.87 408.464 1320.93 407.792 1322.85 407.792C1324.77 407.792 1326.02 408.464 1326.21 409.936H1330.02C1329.83 406.256 1326.85 404.88 1322.98 404.88C1318.53 404.88 1316.03 406.704 1316.03 410.064C1316.03 412.464 1317.38 414 1320.32 414.576L1324.39 415.376C1325.73 415.664 1326.4 416.272 1326.4 417.264C1326.4 418.608 1325.19 419.312 1323.01 419.312C1320.87 419.312 1319.55 418.608 1319.46 416.912H1315.49C1315.62 420.88 1318.53 422.32 1322.88 422.32ZM1342.26 422.32C1346.55 422.32 1349.2 420.304 1349.59 416.88H1345.84C1345.56 418.448 1344.24 419.184 1342.39 419.184C1339.8 419.184 1338.55 417.712 1338.39 414.256H1349.65C1350.26 407.792 1347.7 404.88 1342.36 404.88C1337.17 404.88 1334.39 407.76 1334.39 413.584C1334.39 419.44 1337.14 422.32 1342.26 422.32ZM1338.52 411.632C1338.9 409.104 1340.12 407.92 1342.36 407.92C1344.72 407.92 1345.84 409.232 1345.91 411.632H1338.52ZM1353.48 422H1367.62V418.576H1362.25V411.536C1362.25 409.552 1363.37 408.528 1365.54 408.528H1369.74V404.88H1366.98C1365.45 404.88 1364.23 405.2 1363.43 405.968L1362.5 406.928H1361.58L1361.16 405.2H1354.06V408.624H1358.22V418.576H1353.48V422ZM1376.92 422H1383.96L1388.73 405.2H1384.57L1381.02 418.416H1379.96L1376.41 405.2H1372.16L1376.92 422ZM1399.82 422.32C1404.11 422.32 1406.77 420.304 1407.15 416.88H1403.41C1403.12 418.448 1401.81 419.184 1399.95 419.184C1397.36 419.184 1396.11 417.712 1395.95 414.256H1407.22C1407.82 407.792 1405.26 404.88 1399.92 404.88C1394.74 404.88 1391.95 407.76 1391.95 413.584C1391.95 419.44 1394.7 422.32 1399.82 422.32ZM1396.08 411.632C1396.46 409.104 1397.68 407.92 1399.92 407.92C1402.29 407.92 1403.41 409.232 1403.47 411.632H1396.08ZM1411.04 422H1425.19V418.576H1419.81V411.536C1419.81 409.552 1420.93 408.528 1423.11 408.528H1427.3V404.88H1424.55C1423.01 404.88 1421.79 405.2 1420.99 405.968L1420.07 406.928H1419.14L1418.72 405.2H1411.62V408.624H1415.78V418.576H1411.04V422ZM1438.01 422.32C1442.9 422.32 1445.56 420.432 1445.56 416.816C1445.56 414.128 1444.05 412.656 1440.6 411.984L1436.69 411.216C1435.57 410.992 1435 410.48 1435 409.616C1435 408.464 1436.05 407.792 1437.97 407.792C1439.89 407.792 1441.14 408.464 1441.33 409.936H1445.14C1444.95 406.256 1441.97 404.88 1438.1 404.88C1433.65 404.88 1431.16 406.704 1431.16 410.064C1431.16 412.464 1432.5 414 1435.45 414.576L1439.51 415.376C1440.85 415.664 1441.53 416.272 1441.53 417.264C1441.53 418.608 1440.31 419.312 1438.13 419.312C1435.99 419.312 1434.68 418.608 1434.58 416.912H1430.61C1430.74 420.88 1433.65 422.32 1438.01 422.32ZM1475.04 434.16H1477.73V389.36H1475.04V434.16ZM1099.61 444.752H1102.39V442.32H1100.38C1095.48 442.32 1093.98 440.816 1093.98 435.92V421.36H1091.29V436.432C1091.29 442.16 1093.88 444.752 1099.61 444.752ZM1102.06 444.752H1121.58V442.32H1102.06V444.752ZM1121.25 444.752H1140.77V442.32H1121.25V444.752ZM1140.43 444.752H1159.95V442.32H1140.43V444.752ZM1159.62 444.752H1179.14V442.32H1159.62V444.752ZM1178.81 444.752H1198.33V442.32H1178.81V444.752ZM1198 444.752H1217.52V442.32H1198V444.752ZM1217.18 444.752H1236.7V442.32H1217.18V444.752ZM1236.37 444.752H1255.89V442.32H1236.37V444.752ZM1255.56 444.752H1275.08V442.32H1255.56V444.752ZM1283.16 466.16H1285.85V444.752H1294.27V442.32H1274.75V444.752H1283.16V466.16ZM1293.93 444.752H1313.45V442.32H1293.93V444.752ZM1313.12 444.752H1332.64V442.32H1313.12V444.752ZM1332.31 444.752H1351.83V442.32H1332.31V444.752ZM1351.5 444.752H1371.02V442.32H1351.5V444.752ZM1370.68 444.752H1390.2V442.32H1370.68V444.752ZM1389.87 444.752H1409.39V442.32H1389.87V444.752ZM1409.06 444.752H1428.58V442.32H1409.06V444.752ZM1428.25 444.752H1447.77V442.32H1428.25V444.752ZM1447.43 444.752H1466.95V442.32H1447.43V444.752ZM1466.62 444.752H1469.41C1475.13 444.752 1477.73 442.16 1477.73 436.432V421.36H1475.04V435.92C1475.04 440.816 1473.53 442.32 1468.64 442.32H1466.62V444.752ZM1033.72 482.64V498.16H1036.41V483.152C1036.41 478.256 1037.92 476.752 1042.81 476.752H1044.83V474.32H1042.04C1036.32 474.32 1033.72 476.912 1033.72 482.64ZM1044.5 476.752H1064.02V474.32H1044.5V476.752ZM1063.68 476.752H1083.2V474.32H1063.68V476.752ZM1082.87 476.752H1102.39V474.32H1082.87V476.752ZM1102.06 476.752H1121.58V474.32H1102.06V476.752ZM1121.25 476.752H1140.77V474.32H1121.25V476.752ZM1140.43 476.752H1159.95V474.32H1140.43V476.752ZM1159.62 476.752H1179.14V474.32H1159.62V476.752ZM1178.81 476.752H1198.33V474.32H1178.81V476.752ZM1198 476.752H1217.52V474.32H1198V476.752ZM1217.18 476.752H1236.7V474.32H1217.18V476.752ZM1236.37 476.752H1255.89V474.32H1236.37V476.752ZM1255.56 476.752H1275.08V474.32H1255.56V476.752ZM1274.75 476.752H1294.27V474.32H1285.85V453.36H1283.16V474.32H1274.75V476.752ZM1293.93 476.752H1313.45V474.32H1293.93V476.752ZM1313.12 476.752H1332.64V474.32H1313.12V476.752ZM1332.31 476.752H1351.83V474.32H1332.31V476.752ZM1351.5 476.752H1371.02V474.32H1351.5V476.752ZM1370.68 476.752H1390.2V474.32H1370.68V476.752ZM1389.87 476.752H1409.39V474.32H1389.87V476.752ZM1409.06 476.752H1428.58V474.32H1409.06V476.752ZM1428.25 476.752H1447.77V474.32H1428.25V476.752ZM1447.43 476.752H1466.95V474.32H1447.43V476.752ZM1466.62 476.752H1486.14V474.32H1466.62V476.752ZM1485.81 476.752H1505.33V474.32H1485.81V476.752ZM1505 476.752H1524.52V474.32H1505V476.752ZM1532.6 483.152V498.16H1535.29V482.64C1535.29 476.912 1532.7 474.32 1526.97 474.32H1524.18V476.752H1526.2C1531.1 476.752 1532.6 478.256 1532.6 483.152ZM1033.72 530.16H1036.41V485.36H1033.72V530.16ZM1438.2 518.32C1442.49 518.32 1445.14 516.304 1445.53 512.88H1441.78C1441.49 514.448 1440.18 515.184 1438.33 515.184C1435.73 515.184 1434.49 513.712 1434.33 510.256H1445.59C1446.2 503.792 1443.64 500.88 1438.29 500.88C1433.11 500.88 1430.33 503.76 1430.33 509.584C1430.33 515.44 1433.08 518.32 1438.2 518.32ZM1434.45 507.632C1434.84 505.104 1436.05 503.92 1438.29 503.92C1440.66 503.92 1441.78 505.232 1441.85 507.632H1434.45ZM1459.98 518H1464.46V514.576H1460.59C1458.03 514.576 1457.13 513.52 1457.13 510.896V504.624H1464.94V501.2H1457.13V496.432H1453.1V501.2H1449.26V504.624H1453.1V510.928C1453.1 515.76 1455.27 518 1459.98 518ZM1476.54 518.32C1481.31 518.32 1483.77 515.952 1483.97 511.76H1480C1479.81 513.936 1478.65 514.864 1476.54 514.864C1473.95 514.864 1472.83 513.328 1472.83 509.584C1472.83 505.872 1473.95 504.336 1476.54 504.336C1478.62 504.336 1479.74 505.264 1479.93 507.312H1483.87C1483.68 503.248 1481.28 500.88 1476.54 500.88C1471.39 500.88 1468.64 503.76 1468.64 509.584C1468.64 515.44 1471.39 518.32 1476.54 518.32ZM1495.57 518.288C1497.78 518.288 1498.7 517.392 1498.7 515.376C1498.7 513.392 1497.78 512.464 1495.57 512.464C1493.36 512.464 1492.43 513.392 1492.43 515.376C1492.43 517.392 1493.36 518.288 1495.57 518.288ZM1532.6 530.16H1535.29V485.36H1532.6V530.16ZM1042.04 540.752H1044.83V538.32H1042.81C1037.92 538.32 1036.41 536.816 1036.41 531.92V517.36H1033.72V532.432C1033.72 538.16 1036.32 540.752 1042.04 540.752ZM1044.5 540.752H1064.02V538.32H1044.5V540.752ZM1063.68 540.752H1083.2V538.32H1063.68V540.752ZM1082.87 540.752H1102.39V538.32H1082.87V540.752ZM1102.06 540.752H1121.58V538.32H1102.06V540.752ZM1121.25 540.752H1140.77V538.32H1121.25V540.752ZM1140.43 540.752H1159.95V538.32H1140.43V540.752ZM1159.62 540.752H1179.14V538.32H1159.62V540.752ZM1178.81 540.752H1198.33V538.32H1178.81V540.752ZM1198 540.752H1217.52V538.32H1198V540.752ZM1217.18 540.752H1236.7V538.32H1217.18V540.752ZM1236.37 540.752H1255.89V538.32H1236.37V540.752ZM1255.56 540.752H1275.08V538.32H1255.56V540.752ZM1283.16 562.16H1285.85V540.752H1294.27V538.32H1274.75V540.752H1283.16V562.16ZM1293.93 540.752H1313.45V538.32H1293.93V540.752ZM1313.12 540.752H1332.64V538.32H1313.12V540.752ZM1332.31 540.752H1351.83V538.32H1332.31V540.752ZM1351.5 540.752H1371.02V538.32H1351.5V540.752ZM1370.68 540.752H1390.2V538.32H1370.68V540.752ZM1389.87 540.752H1409.39V538.32H1389.87V540.752ZM1409.06 540.752H1428.58V538.32H1409.06V540.752ZM1428.25 540.752H1447.77V538.32H1428.25V540.752ZM1447.43 540.752H1466.95V538.32H1447.43V540.752ZM1466.62 540.752H1486.14V538.32H1466.62V540.752ZM1485.81 540.752H1505.33V538.32H1485.81V540.752ZM1505 540.752H1524.52V538.32H1505V540.752ZM1524.18 540.752H1526.97C1532.7 540.752 1535.29 538.16 1535.29 532.432V517.36H1532.6V531.92C1532.6 536.816 1531.1 538.32 1526.2 538.32H1524.18V540.752ZM1129.66 578.64V594.16H1132.35V579.152C1132.35 574.256 1133.85 572.752 1138.75 572.752H1140.77V570.32H1137.98C1132.25 570.32 1129.66 572.912 1129.66 578.64ZM1140.43 572.752H1159.95V570.32H1140.43V572.752ZM1159.62 572.752H1179.14V570.32H1159.62V572.752ZM1178.81 572.752H1198.33V570.32H1178.81V572.752ZM1198 572.752H1217.52V570.32H1198V572.752ZM1217.18 572.752H1236.7V570.32H1217.18V572.752ZM1236.37 572.752H1255.89V570.32H1236.37V572.752ZM1255.56 572.752H1275.08V570.32H1255.56V572.752ZM1274.75 572.752H1294.27V570.32H1285.85V549.36H1283.16V570.32H1274.75V572.752ZM1293.93 572.752H1313.45V570.32H1293.93V572.752ZM1313.12 572.752H1332.64V570.32H1313.12V572.752ZM1332.31 572.752H1351.83V570.32H1332.31V572.752ZM1351.5 572.752H1371.02V570.32H1351.5V572.752ZM1370.68 572.752H1390.2V570.32H1370.68V572.752ZM1389.87 572.752H1409.39V570.32H1389.87V572.752ZM1409.06 572.752H1428.58V570.32H1409.06V572.752ZM1436.66 579.152V594.16H1439.35V578.64C1439.35 572.912 1436.76 570.32 1431.03 570.32H1428.25V572.752H1430.26C1435.16 572.752 1436.66 574.256 1436.66 579.152ZM1129.66 626.16H1132.35V581.36H1129.66V626.16ZM1199.15 614H1203.37L1204.24 609.776H1211.18L1212.04 614H1216.36L1211.6 591.92H1203.92L1199.15 614ZM1204.97 606.16L1207.15 595.44H1208.27L1210.44 606.16H1204.97ZM1227.1 614.32C1231.87 614.32 1234.34 611.952 1234.53 607.76H1230.56C1230.37 609.936 1229.22 610.864 1227.1 610.864C1224.51 610.864 1223.39 609.328 1223.39 605.584C1223.39 601.872 1224.51 600.336 1227.1 600.336C1229.18 600.336 1230.3 601.264 1230.5 603.312H1234.43C1234.24 599.248 1231.84 596.88 1227.1 596.88C1221.95 596.88 1219.2 599.76 1219.2 605.584C1219.2 611.44 1221.95 614.32 1227.1 614.32ZM1248.92 614H1253.4V610.576H1249.52C1246.96 610.576 1246.07 609.52 1246.07 606.896V600.624H1253.88V597.2H1246.07V592.432H1242.04V597.2H1238.2V600.624H1242.04V606.928C1242.04 611.76 1244.21 614 1248.92 614ZM1257.77 614H1273.45V610.576H1267.97V597.2H1258.37V600.624H1263.94V610.576H1257.77V614ZM1262.98 592.048C1262.98 593.68 1263.78 594.448 1265.86 594.448C1267.94 594.448 1268.74 593.68 1268.74 592.048C1268.74 590.384 1267.94 589.616 1265.86 589.616C1263.78 589.616 1262.98 590.384 1262.98 592.048ZM1280.99 614H1288.03L1292.79 597.2H1288.63L1285.08 610.416H1284.03L1280.47 597.2H1276.22L1280.99 614ZM1296.14 614H1311.82V610.576H1306.35V597.2H1296.75V600.624H1302.32V610.576H1296.14V614ZM1301.36 592.048C1301.36 593.68 1302.16 594.448 1304.24 594.448C1306.32 594.448 1307.12 593.68 1307.12 592.048C1307.12 590.384 1306.32 589.616 1304.24 589.616C1302.16 589.616 1301.36 590.384 1301.36 592.048ZM1325.67 614H1330.15V610.576H1326.27C1323.71 610.576 1322.82 609.52 1322.82 606.896V600.624H1330.63V597.2H1322.82V592.432H1318.79V597.2H1314.95V600.624H1318.79V606.928C1318.79 611.76 1320.96 614 1325.67 614ZM1335.38 620.08H1339.51C1342.74 620.08 1344.4 618.832 1345.17 615.824L1350.36 597.2H1346.2L1343 609.616H1341.49L1338.04 597.2H1333.78L1338.45 613.2H1342.07L1341.46 615.248C1341.17 616.304 1340.69 616.656 1339.48 616.656H1335.38V620.08ZM1354.06 614H1358.18V607.024H1361.61C1366.95 607.024 1369.67 604.848 1369.67 599.472C1369.67 594.096 1366.95 591.92 1361.61 591.92H1354.06V614ZM1358.18 603.344V595.6H1361.67C1364.2 595.6 1365.42 596.624 1365.42 599.504C1365.42 602.352 1364.23 603.344 1361.67 603.344H1358.18ZM1387.58 597.2H1383.55V607.536C1383.55 609.616 1382.43 610.704 1380.28 610.704C1378.24 610.704 1377.28 609.712 1377.28 607.536V597.2H1373.24V608.656C1373.24 612.432 1375.04 614.32 1378.72 614.32C1380.25 614.32 1381.47 614 1382.27 613.232L1383.23 612.272H1384.12L1384.57 614H1387.58V597.2ZM1401.01 614.32C1405.1 614.32 1407.5 611.44 1407.5 605.584C1407.5 599.76 1405.1 596.88 1401.1 596.88C1399.73 596.88 1398.8 597.2 1398.03 597.968L1397.07 598.928L1396.18 598.704L1396.53 596.144V590.32H1392.5V614H1395.5L1395.95 612.272H1396.85L1397.81 613.2C1398.61 614 1399.6 614.32 1401.01 614.32ZM1396.5 607.664V603.536C1396.5 601.456 1397.62 600.368 1399.66 600.368C1402.16 600.368 1403.28 602 1403.28 605.584C1403.28 609.2 1402.16 610.832 1399.66 610.832C1397.62 610.832 1396.5 609.744 1396.5 607.664ZM1436.66 626.16H1439.35V581.36H1436.66V626.16ZM1137.98 636.752H1140.77V634.32H1138.75C1133.85 634.32 1132.35 632.816 1132.35 627.92V613.36H1129.66V628.432C1129.66 634.16 1132.25 636.752 1137.98 636.752ZM1140.43 636.752H1159.95V634.32H1140.43V636.752ZM1159.62 636.752H1179.14V634.32H1159.62V636.752ZM1178.81 636.752H1198.33V634.32H1178.81V636.752ZM1198 636.752H1217.52V634.32H1198V636.752ZM1217.18 636.752H1236.7V634.32H1217.18V636.752ZM1236.37 636.752H1255.89V634.32H1236.37V636.752ZM1255.56 636.752H1275.08V634.32H1255.56V636.752ZM1274.75 636.752H1294.27V634.32H1274.75V636.752ZM1293.93 636.752H1313.45V634.32H1293.93V636.752ZM1313.12 636.752H1332.64V634.32H1313.12V636.752ZM1332.31 636.752H1351.83V634.32H1332.31V636.752ZM1351.5 636.752H1371.02V634.32H1351.5V636.752ZM1370.68 636.752H1390.2V634.32H1370.68V636.752ZM1389.87 636.752H1409.39V634.32H1389.87V636.752ZM1409.06 636.752H1428.58V634.32H1409.06V636.752ZM1428.25 636.752H1431.03C1436.76 636.752 1439.35 634.16 1439.35 628.432V613.36H1436.66V627.92C1436.66 632.816 1435.16 634.32 1430.26 634.32H1428.25V636.752Z" fill="#24211D"/>
<path d="M1160.42 230H1166.41V226.544L1164.58 217.68L1165.7 217.456L1168.77 227.44H1169.99L1173.03 217.456L1174.15 217.68L1172.36 226.544V230H1178.34V207.92H1171.88L1170.34 210.448L1170.02 214.064H1168.87L1168.55 210.448L1166.98 207.92H1160.42V230ZM1160.42 326H1166.41V322.544L1164.58 313.68L1165.7 313.456L1168.77 323.44H1169.99L1173.03 313.456L1174.15 313.68L1172.36 322.544V326H1178.34V303.92H1171.88L1170.34 306.448L1170.02 310.064H1168.87L1168.55 306.448L1166.98 303.92H1160.42V326ZM1122.05 422H1128.03V418.544L1126.21 409.68L1127.33 409.456L1130.4 419.44H1131.61L1134.65 409.456L1135.77 409.68L1133.98 418.544V422H1139.97V399.92H1133.5L1131.97 402.448L1131.65 406.064H1130.49L1130.17 402.448L1128.61 399.92H1122.05V422ZM1065.12 518H1068.8V509.104L1068.1 501.296L1068.96 501.2L1071.94 512.208H1074.98L1077.89 501.2L1078.79 501.296L1078.08 509.104V518H1081.76V495.92H1076.58L1074.5 502.64L1073.96 505.936H1073.06L1072.52 502.64L1070.4 495.92H1065.12V518ZM1090.58 518.32C1092.18 518.32 1093.4 518 1094.17 517.232L1095.13 516.272H1096.06L1096.44 518H1099.58V506.832C1099.58 502.8 1097.4 500.88 1092.89 500.88C1088.34 500.88 1085.98 502.928 1085.85 506.352H1089.53C1089.66 504.72 1090.87 504.048 1092.57 504.048C1094.55 504.048 1095.54 504.944 1095.54 507.12V508.432H1091.1C1087.29 508.432 1085.08 510.192 1085.08 513.456C1085.08 516.592 1087 518.32 1090.58 518.32ZM1089.18 513.072C1089.18 511.6 1090.17 510.832 1092.06 510.832H1095.54V511.92C1095.54 514.032 1094.2 515.248 1091.9 515.248C1089.94 515.248 1089.18 514.384 1089.18 513.072ZM1111.82 518.32C1116.71 518.32 1119.37 516.432 1119.37 512.816C1119.37 510.128 1117.87 508.656 1114.41 507.984L1110.51 507.216C1109.39 506.992 1108.81 506.48 1108.81 505.616C1108.81 504.464 1109.87 503.792 1111.79 503.792C1113.71 503.792 1114.95 504.464 1115.15 505.936H1118.95C1118.76 502.256 1115.79 500.88 1111.91 500.88C1107.47 500.88 1104.97 502.704 1104.97 506.064C1104.97 508.464 1106.31 510 1109.26 510.576L1113.32 511.376C1114.67 511.664 1115.34 512.272 1115.34 513.264C1115.34 514.608 1114.12 515.312 1111.95 515.312C1109.8 515.312 1108.49 514.608 1108.39 512.912H1104.43C1104.55 516.88 1107.47 518.32 1111.82 518.32ZM1133.79 518H1138.27V514.576H1134.4C1131.84 514.576 1130.94 513.52 1130.94 510.896V504.624H1138.75V501.2H1130.94V496.432H1126.91V501.2H1123.07V504.624H1126.91V510.928C1126.91 515.76 1129.09 518 1133.79 518ZM1150.19 518.32C1155.35 518.32 1158.03 515.44 1158.03 509.584C1158.03 503.76 1155.35 500.88 1150.19 500.88C1145.04 500.88 1142.35 503.76 1142.35 509.584C1142.35 515.44 1145.04 518.32 1150.19 518.32ZM1146.55 509.584C1146.55 505.872 1147.67 504.336 1150.19 504.336C1152.72 504.336 1153.84 505.872 1153.84 509.584C1153.84 513.296 1152.72 514.864 1150.19 514.864C1147.67 514.864 1146.55 513.328 1146.55 509.584ZM1168.01 518.32C1169.41 518.32 1170.41 518 1171.21 517.2L1172.17 516.272H1173.06L1173.51 518H1176.52V494.32H1172.49V500.144L1172.84 502.704L1171.94 502.928L1170.98 501.968C1170.21 501.2 1169.29 500.88 1167.91 500.88C1163.91 500.88 1161.51 503.76 1161.51 509.584C1161.51 515.44 1163.91 518.32 1168.01 518.32ZM1165.73 509.584C1165.73 506 1166.85 504.368 1169.35 504.368C1171.4 504.368 1172.52 505.456 1172.52 507.536V511.664C1172.52 513.744 1171.4 514.832 1169.35 514.832C1166.85 514.832 1165.73 513.2 1165.73 509.584ZM1188.57 518.32C1193.72 518.32 1196.41 515.44 1196.41 509.584C1196.41 503.76 1193.72 500.88 1188.57 500.88C1183.42 500.88 1180.73 503.76 1180.73 509.584C1180.73 515.44 1183.42 518.32 1188.57 518.32ZM1184.92 509.584C1184.92 505.872 1186.04 504.336 1188.57 504.336C1191.1 504.336 1192.22 505.872 1192.22 509.584C1192.22 513.296 1191.1 514.864 1188.57 514.864C1186.04 514.864 1184.92 513.328 1184.92 509.584ZM1200.62 518H1204.65V507.664C1204.65 505.584 1205.77 504.496 1207.92 504.496C1209.96 504.496 1210.92 505.488 1210.92 507.664V518H1214.96V506.544C1214.96 502.768 1213.16 500.88 1209.48 500.88C1207.95 500.88 1206.73 501.2 1205.93 501.968L1204.97 502.928H1204.08L1203.63 501.2H1200.62V518ZM1222.11 524.08H1225.98L1229.54 513.328H1224.45L1222.11 524.08Z" fill="#5B50DF"/>
<path d="M1142.13 422H1149.17V416.432H1150.03C1156.31 416.432 1159.19 414.224 1159.19 408.176C1159.19 402.128 1156.31 399.92 1150.03 399.92H1142.13V422ZM1149.17 410.224V406.128H1150.07C1151.51 406.128 1152.05 406.608 1152.05 408.144C1152.05 409.68 1151.51 410.224 1150.07 410.224H1149.17ZM1258.12 518H1262.25V511.024H1265.67C1271.01 511.024 1273.73 508.848 1273.73 503.472C1273.73 498.096 1271.01 495.92 1265.67 495.92H1258.12V518ZM1262.25 507.344V499.6H1265.73C1268.26 499.6 1269.48 500.624 1269.48 503.504C1269.48 506.352 1268.29 507.344 1265.73 507.344H1262.25ZM1276.95 518H1292.63V514.576H1287.1V494.32H1277.56V497.744H1283.07V514.576H1276.95V518ZM1303.89 518.32C1308.17 518.32 1310.83 516.304 1311.21 512.88H1307.47C1307.18 514.448 1305.87 515.184 1304.01 515.184C1301.42 515.184 1300.17 513.712 1300.01 510.256H1311.28C1311.89 503.792 1309.33 500.88 1303.98 500.88C1298.8 500.88 1296.01 503.76 1296.01 509.584C1296.01 515.44 1298.77 518.32 1303.89 518.32ZM1300.14 507.632C1300.53 505.104 1301.74 503.92 1303.98 503.92C1306.35 503.92 1307.47 505.232 1307.53 507.632H1300.14ZM1315.11 518H1329.25V514.576H1323.87V507.536C1323.87 505.552 1324.99 504.528 1327.17 504.528H1331.36V500.88H1328.61C1327.07 500.88 1325.86 501.2 1325.06 501.968L1324.13 502.928H1323.2L1322.79 501.2H1315.68V504.624H1319.84V514.576H1315.11V518ZM1342.07 518.32C1347.22 518.32 1349.91 515.44 1349.91 509.584C1349.91 503.76 1347.22 500.88 1342.07 500.88C1336.92 500.88 1334.23 503.76 1334.23 509.584C1334.23 515.44 1336.92 518.32 1342.07 518.32ZM1338.42 509.584C1338.42 505.872 1339.54 504.336 1342.07 504.336C1344.6 504.336 1345.72 505.872 1345.72 509.584C1345.72 513.296 1344.6 514.864 1342.07 514.864C1339.54 514.864 1338.42 513.328 1338.42 509.584ZM1353.03 518H1356.42V506.128C1356.42 505.104 1357.1 504.368 1358.18 504.368C1359.34 504.368 1359.66 505.168 1359.66 506.128V518H1362.89V506.128C1362.89 505.104 1363.56 504.368 1364.65 504.368C1365.8 504.368 1366.12 505.168 1366.12 506.128V518H1369.51V504.56C1369.51 502.224 1368.33 501.008 1366.28 501.008C1365.26 501.008 1364.46 501.296 1363.91 501.872L1363.18 502.608H1362.41C1361.9 501.52 1361.06 501.008 1359.78 501.008C1358.82 501.008 1358.02 501.296 1357.48 501.872L1356.74 502.608H1355.98L1355.62 501.2H1353.03V518ZM1378.4 518.32C1380 518.32 1381.21 518 1381.98 517.232L1382.94 516.272H1383.87L1384.25 518H1387.39V506.832C1387.39 502.8 1385.21 500.88 1380.7 500.88C1376.16 500.88 1373.79 502.928 1373.66 506.352H1377.34C1377.47 504.72 1378.68 504.048 1380.38 504.048C1382.36 504.048 1383.36 504.944 1383.36 507.12V508.432H1378.91C1375.1 508.432 1372.89 510.192 1372.89 513.456C1372.89 516.592 1374.81 518.32 1378.4 518.32ZM1376.99 513.072C1376.99 511.6 1377.98 510.832 1379.87 510.832H1383.36V511.92C1383.36 514.032 1382.01 515.248 1379.71 515.248C1377.76 515.248 1376.99 514.384 1376.99 513.072ZM1394.8 524.08H1398.67L1402.22 513.328H1397.14L1394.8 524.08Z" fill="#D88D47"/>
<path d="M1160.17 614H1167.3L1167.56 611.312H1171.11L1171.37 614H1178.6L1175.85 591.92H1162.92L1160.17 614ZM1168.07 605.296L1168.77 597.68H1169.89L1170.6 605.296H1168.07Z" fill="#DD307D"/>
</svg>
